<?xml version="1.0" encoding="UTF-8"?><svg id="Layer_1" xmlns="http://www.w3.org/2000/svg" width="1000" height="1000" viewBox="0 0 1000 1000"><path d="M672.62,374.28h-91.01v-39.02c0-8.48-6.9-15.38-15.38-15.38h-132.44c-8.48,0-15.38,6.9-15.38,15.38v39.02h-91.01c-26.13,0-47.39,21.26-47.39,47.39v211.07c0,26.13,21.26,47.39,47.39,47.39h345.23c26.13,0,47.38-21.26,47.38-47.39v-211.07c0-26.13-21.26-47.39-47.38-47.39ZM438.07,339.55h123.86v34.73h-123.86v-34.73ZM700.33,632.74c0,15.28-12.43,27.71-27.71,27.71h-345.23c-15.28,0-27.71-12.43-27.71-27.71v-211.07c0-15.28,12.43-27.71,27.71-27.71h345.23c15.28,0,27.71,12.43,27.71,27.71v211.07Z"/><path d="M565.58,508h-46.38v-46.38c0-10.59-8.61-19.2-19.2-19.2s-19.2,8.61-19.2,19.2v46.38h-46.38c-10.59,0-19.2,8.61-19.2,19.2s8.61,19.2,19.2,19.2h46.38v46.38c0,10.59,8.61,19.2,19.2,19.2s19.2-8.61,19.2-19.2v-46.38h46.38c10.59,0,19.2-8.61,19.2-19.2s-8.61-19.2-19.2-19.2Z"/></svg>