<?xml version="1.0" encoding="UTF-8"?><svg id="Layer_1" xmlns="http://www.w3.org/2000/svg" width="1000" height="1000" viewBox="0 0 1000 1000"><path d="M402.63,646.2l-31.12-29.19c-6.13-5.75-11.45-9-20.34-8.3-9.63.76-19.35-.09-28.93-1.64-8.39-5.08-14.82-12.13-18.44-21.07l-.04-56.06c-7.21-.75-13.41-.97-19.2-.38-3.44,4.62-1.23,9.95-1.22,14.63l.15,48.35c.01,4.54-5.19,9.79-8.51,11.33-7.98,3.71-21.05-4.51-21.09-12.63l-.37-75.6-.02-16.48.67-63.42c.06-5.95,8.7-10.76,14.15-11.35,8.74-.95,15.04,7.41,15.09,15.82l.34,54.73,17.89.56c.7-1.46,2.07-5.33,2.09-7.18l.42-39.05c.16-14.63,14.98-22.7,27.71-23.49l14.27-.88c5.08-.31,8.81-4.11,12.4-7.66l15.08-14.87c12.27-12.11,25.07-19.6,42.57-19.54l31.38.12c3.38.01,7.08-4.38,6.93-8.73-2.8-1.07-7.74-2.09-10.97-2.07l-31.62.2c-7.52.05-15.05-6.54-16.19-14.57-.48-3.34,2.29-10.55,6.56-12.39,11.53-4.97,25.43-2.54,38.45-2.11,18.52.62,36.34-.05,54.79-.23l58.45-.55c8.09-.08,15.73,6.03,17.24,14.31.95,5.21-5.56,14.82-11.66,14.93l-42.69.75c-2.12,2.21-2.34,7.01-1.51,10.29,17.47.81,34.26-1.17,51.76,1.15,9.93,1.31,17.86,12.12,23.16,19.3l10.54,14.29c9.7,13.16,18.52,3.64,37.76,9.82,3.74,1.2,7.41,5.68,10.02,8.68,8.66,9.94-4.77,14.72,3.65,23.03,1.86,1.83,8.28.4,8.75-3.03,1.97-14.26,12.64-23.48,27.31-23.28l29.54.41c19.03.26,28.72,18.8,28.67,36.39l-.44,141.85c-3.72,10.72-16.59,21.25-28.05,21.4l-40.28.54-11.18-8.55c-7.06-5.39-2.89-14.18-10.74-16.5-3.33-.99-9.12.65-9.06,5.01.23,14.71-5.02,29.82-17.74,37.86l-12.84,6.6-195.68-.03c-2.33,0-6.47-1.85-7.93-3.09l-9.93-8.4ZM683.32,580.05l7.34,9.68,1.68,12.41,13.62.19c2.58.04,9.32-2.69,9.32-5.63l.09-128.34c-1.27-2.15-4.79-6.67-7.2-6.68l-15.49-.03-1.92,16.13-6.48,7.92c-7.95,2.11-15.25,3.55-23.11,3.07l-24.41-1.5c-7.72-.47-15.34-5.43-16.49-13.5l-3.11-21.71-13.05.63c-3.11.15-9.32-.82-12.38-1.41-15.62-9.14-19.01-24.43-31.34-34.43l-158.22-.02-23.99,24.23c-3.35,3.39-10.3,7.91-14.43,9.46-9.32.21-17.42.54-26.45,2.09-3.94,11.98-3.55,25.22-3.4,37.22l.27,21.66.38,20.39.61,40.45c.19,12.46,16.23,6.12,30.84,8.55,17.31,2.88,38.7,26.74,50.89,42.45,2.45,3.15,8.6,5.73,13.31,5.73h180.58c5.02.01,7.06-6.95,7.08-10.33l.09-15.35c.06-10.94,9.78-19.03,20.27-21.55,14.45-3.47,29.41-3.15,45.09-1.76Z"/></svg>