<?xml version="1.0" encoding="UTF-8"?><svg id="Layer_1" xmlns="http://www.w3.org/2000/svg" width="1920" height="1080" viewBox="0 0 1920 1080"><path d="M990.76,247.73l-12.44.52-1.84,4.49-20.07.18c-3.49.03-2.05-5.32-5.51-5.39l-25.88-.55-15.7-.74-35.36-2.43c-6.85-.47-14.47-3.91-14.46-12.03l.02-37.91c0-4.25,3.36-9.16,7.04-10.63,7.5-2.98,15.2-3.83,23.17-4.4l23.82-1.71,14.56-.8,21.12-.51,1.6-9.22c.11-.64,1.81-1.68,2.43-1.69,1.71-.03.43,5.26,1.55,5.15l2.5-.24,21.21-.2c.46-1.66,1.28-3.41,2.13-3.99,5.01,4.08-.76,10.06,5.31,10.35l10.21.49,12.42.5,13.27.71,26.84,2.41c5.93.53,11.6,1.7,16.45,5.46,2.53,1.96,4.85,6.36,4.84,9.72l-.07,35.03c-.01,7.17-6.04,12.84-12.91,13.41l-30.11,2.49-16.32.75-19.83.78ZM978.97,175.95c.16-1.66-.27-3.54-.95-3.53l-21.47.31c-.97.01-2.9,1.21-2.52,1.89.31.55,1.82,1.33,2.5,1.33h22.43ZM980.2,244.05l23-.67,17.76-.93,8.62-.7,10.98-.42,11.47-1.4c3.74-.46,7.45.1,10.58-2.65,1.83-1.61,3.42-5.56,3.42-8.8l-.04-33.1c0-6.97-7.94-10.51-13.68-11.19l-11.92-1.41-14.53-1-14.87-1.1-18.71-.72-21.73-.39-21.77.02-24.09.74-24.96,1.37-11.59.96c-6.09.5-11.67,1.26-17.64,2.85-3.56.95-7.45,4.95-7.46,9.08l-.12,37.28c2.29,6.49,8.65,9.42,15.25,7.59,4.54,1.02,9.22,1.74,13.81,1.91l10.95.4,9.27.77,19.45.84,19.52.72,20.93.08,8.1-.1ZM972.55,249.73c.51,0,1.75-.9,2.07-1.22s-.91-1.58-1.39-1.58l-15.61-.14c-.26.31-.54,2.01-.11,2.26s1.64.68,2.17.68h12.87Z"/><path d="M1007.29,155.61c1.09-1.03,3.45-3,3.97-2.02,1.35,2.53-1.34,6.22-3.97,7.04-7.27,2.25-14.64,3.26-22.32,3.26h-31.97c-7.49-.02-14.59-1.36-21.83-2.93-3.28-.71-7.11-4.17-5.36-7.2,1.21-1.75,2.96,2.01,3.97,2.72,6.11,2.22,15.28,3.61,22.36,3.61l33.74.04,9.91-.92c3.78-.35,8.53-.78,11.51-3.6Z"/><path d="M1023,240.94l-23.8.65-59.74.1-27.28-.76-9.3-.64-19.4-1.68-7.25-.45c-3.07-.19-10.23-1.18-10.25-5.7l-.2-38.62c-.02-4.48,4.95-6.82,8.59-7.31l10.9-1.5,16.99-1.73,17.72-.95,21.79-.77,42.7-.02,21,.79,17.6.95,17.44,1.65,14.83,1.9c3.3.42,8.18,3.17,8.19,6.93l.1,35.72c.01,5.23-3.34,8.12-8.56,8.53l-8.4.66-15.54,1.62-8.17.61ZM1029.16,236.32l8.19-.56,18.65-1.62c1.97-.17,3.91-2.56,3.92-4.57l.06-34.34c0-1.93-2.64-4.49-4.65-4.74l-23.39-2.85-10.11-.68-13.98-.76-14.28-.68-59.93.04-18.03.75-40.49,3.57c-3.47.31-5.72,2.69-5.72,6.25l.03,36.31c1.63,1.19,3.57,1.7,5.47,1.83l28.13,2,15.39.88,14.8.77h69.9s12.49-.79,12.49-.79l13.55-.82Z"/><path d="M1611.43,709.5c.81,1.33,2.05,2.79,3.56,3.89l15.3,11.2,11.02,9.15,6.68,5.49c.54.45.97,2.13.95,2.77s-2.34.35-2.89-.11l-14.72-12.18-18.52-14.12-20.15-15.63-9.81-7.29-12.45-9.26-18.37-13.5-10.52-8.2c-2.7-2.1-4.5-4.73-6.17-8.05-4.05,1.24-8.28,4.62-8.19,9.41.06,2.89,2.97,5.32,4.69,7.49,2.64,3.34,5.35,5.84,8.43,8.73l13.31,12.42,14.94,13.01,5.01,5.07,18.8,16.18,19.72,16.78,19.14,14.98,15.38,12.66.96,2.04c.27.57-1.91,1.3-2.46.85l-12.7-10.36-16.79-12.94-13.03-10.93-12.92-11.11-17.41-15.29-18.46-16.51-5.42-5.41-7.08-6.26-7.49-7.74c-2.37-2.44-3.29-4.49-6.05-7.02.12,3.42.68,5.39,1.43,8.21l5.29,19.82c2.94,11.03,9.88,20.74,16.53,29.87l6.23,8.56,16.05,16.76,18.66,16.84,9.68,9.11,13.14,12.43,19.5,17.04,7.79,6.24c2.67,2.14,6.18,3.42,7.02,7.59-6.78-3.23-12.36-7.75-17.76-12.41l-10.84-9.35-11.51-10.66.15,6.35,1.36,26.72,1.61,27.03.47,14.4,14.68,8.64,6.36,3.92,13.87,8.69c.52.32.85,2.06.82,2.56s-1.97.49-2.43.22l-15-8.82-19.37-11.83-18.6-11.72-40.84-25.87-18.27-12.88-3.04-3.91c-10.11-9.31-16.6-21.25-18.74-34.87-6.9-23.89-18.04-59.29-13.61-82.26,1.27-6.6,14.29-25.76,21.8-24.14l5.34,4.13-1.05-9.1c-.56-4.87-.37-8.35,2.72-12.42l7.08-14.69c4.81-7.65,11.39-13.86,17.77-20.15l4.72-4.65c19.94-19.66,50.46-12.5,74.9-3.04l14.45,5.6c.51.2,1.32,1.23,1.51,1.65.25.56-1.77,1.41-2.49,1.13l-15.66-6.09c-9.07-3.53-18.31-5.95-27.92-7.82-21.17-4.11-35.4,2.26-49.34,17.21l-11.62,12.46c-4.03,4.33-6.95,9.51-8.49,15.32,11.95-4.42,29.59-1.88,40.81,2.18,7.27,2.63,13.45,6.6,20.13,10.25l18.55,10.12,17.22,9.38,11.38,7.25c2.33,1.48,4.23,1.81,7.58,2.32-.48,1.37-2.28,2.36-4.07,2.68l-8.17,1.47-8.82,1.59-9.17,1.05c-.95,1.19-1.29,4.2-1.15,6.97,4.03-.03,7.22-.5,10.98-1.57l17.02-4.85,2.13-.66c.58-.18,1.29,1.27,1.15,1.86s-1.2,1.57-1.84,1.73l-19.26,4.86c-5.05,1.27-9.92,1.95-14.4,1.14l-.67.22ZM1611.85,708.43l2.27-7.53-5-.21c-.45-.02-2.09.51-2.16.11l-.47-2.54,8.18-.21,1.77-5.56-14.9,2.58-8.92-5.88c-2.9-1.91-4.96-3.16-8.64-4.29l6.33-3.79c10.6-6.35,10.92-4.43,23.79,3.63l6.83,4.28c1.84,1.15-3.86,2.51-3.93,9.13l8.6-1.29,14.29-2.36-10.22-6.65-22.97-12.69-18.6-10.24c-5.96-3.28-11.81-6.91-18.37-8.71-8.83-2.41-24.45-5.2-32.23-2.4l8.91,8.23,4.99-6.48c.82,2.97-.18,4.57-2.14,7.36l4.58,5.14,18.22,12.87,21.26,16.17,17.61,12.04.93-.7ZM1609.14,848.74l-1.67-29.4-.55-10.96-.05-20.13-8.39-7.88-11.99-11.26-13.57-12.04-18.86-19.4-3.33-5.14c-5.6-8.63-12.57-16.43-16.51-26.03l-7.13-23.29c-1.26-4.13-7.27-8.33-9.06-8.45-1.29-.08-3.6,1.75-4.41,2.93l-12.98,19.05.05,14.5c1.82,18.49,6.43,35.78,11.59,53.49l1.71,8.62,4.48,13.95c3,9.35,13.39,24.07,20.64,29.1l13.8,9.58,19.79,12.81,17.77,11.02,9.96,6.4,10.5,5.8-1.79-13.29ZM1595.82,682.58c4.93,1.33,7.9,1.81,11.28,1.31-2.52-2.57-6.31-4.76-9.15-3.53l-7.41,3.21c-.02,1.8,3.82,3.55,4.59,2.43l.68-3.42ZM1615.73,689.26c-4.27-2.48-6.2-2.07-9.56-2.29l-9.71-.64c1.87,6.59,11.8,5.53,19.26,2.93Z"/><path d="M1579.97,563.89l-6.81-22.26c-1.04-6.89-.69-14.29-.12-21.09l1.44-3.52c-7.72-3.37-13.46-6.96-19.55-2.31,1.28-9.29,13.48-2.95,23.25,1.52l16.57,7.57c10.66,4.87,20.84,10.23,30.33,16.96,4.37,3.1,6.3,6.67,8.42,11.24,4.52,9.75,8.47,18.96,9.69,29.84.32,2.91-.06,6.08-2.45,8.03s-5.6,1.14-8.68.06l-21.88-7.64-19.53-6.77c-7.2-2.5-24.61-4.04-30.15-14.22-5.36-9.85-6.94-20.32-8.41-31.26l-1.95-14.53c-.81-6.05,2.94-12.15,9.45-11.5,4.36.44,8.83,2.29,12.79,4.05l15.2,6.74,24.13,11.44,20.05,11.15,15.38,10.24c.42.28.33,2.99-.12,2.85s-1.75-.53-2.21-.84l-7.21-4.82-7.11-4.67-17.93-10.17-39.39-18.78c-4.53-2.16-9.27-4.25-14.21-4.51-3.52-.19-6.49,2.41-6.38,5.65.45,13.8,4.18,33.45,10,45.96l4.75.66c.03.8.02,1.87-.4,2.07l-2.47,1.16,9.57,5.67c.91.54,3.27.66,4.12.22.86-.43,2.03-3.16,1.82-4.21ZM1583.9,565.19c-1.91-.52-3.76,3.04-2.94,4.89,2.85,1.44,6.2,2.12,9.3,1.86l20.9,7.76,23.64,8.38c2.2.78,5.21-.25,5.33-2.82.45-10.11-3.59-18.85-7.2-27.96-2.33-5.88-4.95-10.9-10.63-14.53l-10.87-6.95-15.49-7.86-19.07-9.15c-2.8,5.99-2.47,10.97-1.73,16.8,1.32,10.38,3.81,20.54,9.3,29.12l.65.37,1.87,3.37-2.71-2.69-.36-.59Z"/><circle cx="1572.31" cy="564.06" r="1.29"/><path d="M1633.93,583.03l-21.81-6.73c-6.01-1.85-12.53-3.35-17.57-7.29-11.53-9.02-16.13-28.18-15.47-43.22,3.08-.36,5.73.25,8.28,1.45l18.58,8.72,8.8,5.83c10.09,6.68,16.3,15.99,17.98,28.02.59,4.24,2.22,7.79,1.2,13.22ZM1631.2,575.91c-1.87-9.17-4.75-16.33-9.23-23.93-3.04,4.7-5.43,8.07-8.94,11.61-7.28.44-13.9-1.35-19.4-5.97-4.86-8.59-8.38-17.41-9.24-27.36l-1.03-1.62c-.23-.35-1.73.25-1.68.67l.23,1.9c.99,8.26,1.94,16.86,6.29,24.08l5.27,8.76,13.5,4.42,20.25,6.07,3.99,1.36ZM1620.13,550.19l-11.89-8.7-20.79-10.39,5.99,19.76c2.88,7.11,11.25,10.05,18.31,9.4l8.38-10.07Z"/><path d="M1585.26,339.37l5.63-3.2c3.34-5.76,7.43-10.47,11.5-15.72l9.49-12.27,13.77-18.11,7.79-10.01,13.06-15.06,22.3-26.54c.51-.11,1.22-.3,1.28-.08l.41,1.61-16.47,20.21-8.67,10.79-12.97,15.77-12.73,16.07-9.02,12.77-10.79,14.09.82,4.67.43,29.24.77,14.05.85,19.98.61,19.1,10.76-.37,12.89-.39c-.63-5.72-.97-11.4.23-17.08l4.62-21.84c2.36-8.6,7.51-15.61,14.28-21.49l2.57.44c.59.1-.2,2.04-.72,2.45-18.42,14.62-19.24,47.74-16.38,70.87.99,8,1.94,16.08,5.58,23.03,4.05,1.22,8,.44,10.78,4.89l-12.15-1.81c-1.93-2.63-3.55-6.41-4.14-9.75l-4.72-26.64-15.2.31-7.84.13.03,37.83c3.9-.42,6.64.61,10.08,1.26l14.66,2.79,17.28,3.66,1.9.64c.55.18.44,1.98.04,2.4s-1.54.45-2.39.29l-38.47-7.11-15.54-.71c-11.66-.53-22.73-.82-34.14-3.51l-22.03-5.2-14.99-3.71c-7.38-1.83-14.57-3.26-22.53-1.79l15.53,5.08,20.53,8.22,18.45,7.99,21.45,9.57,18.67,8.54,18.68,8.6,36.21,17.27.66,2.38c.14.52-1.73.4-2.31.12l-68.84-32.21-18.7-8.59-21.68-9.41-23.05-9.43-16.91-5.94c2.12,3.2,4.92,4.6,8.19,6.17l27.24,13.07,19.86,8.96,21.68,10.13,19.5,9.25,25.87,12.95,16.75,8.84,11.95,6.68-.04,2.16c0,.36-1.52.48-1.94.25l-14.21-7.77-19.55-10.11-19.83-9.69-19.96-9.54-19.2-8.76-19.24-8.74-18.66-8.63c-2.84-1.31-4.79-4.32-8.71-4.85,4.6,5.22,6.42,10.41,7.81,16.93,1.71,7.97,5.08,15.8,5.04,24.07l-.09,18.67-3.65,16.02,5.71,18.89,1.35,11.58c10.57,1.1,21.24,2.2,31.31,5.21l21.55,6.44,29.28,8.98,25.62,8.62,14.44,5.01,1.77.81c.43.2.74,2.07.27,2.1l-2.97.22-37.29-13.25-28.9-8.47-22.1-6.76c-10.91-3.34-22.18-4.82-33.77-5.89l-4.18,13.32-4.95,13.8-16.71,33.53-3.91,7.16-18.2,25.86-3.57,5.02-17.53,20c13.71,2.94,27.94,2.41,37.2-8.16l16.3-18.61,9.1-11.11,18.9-21.58,19.43-18.44c1.81-1.72,3.48-3.14,5.85-1.97l-7.51,7.26-10.76,10.2-9.36,10.08-6.27,6.94-12.4,14.98-17.99,21.45c-7.42,8.85-17.49,15.3-29.55,13.82l-.81,8.06-5.24,37.32-2.32,19.33-.56,12.49.46,10.89c.55,13.13,3.03,25.65,5.56,38.46l10.89,1.63c.47.07,1.66-.21,2.04-.34s-.44-1.26-.56-1.64l-2.88-9.04c-5.66-17.74-12.32-40.65-9.07-58.25l6.28-34c.77-4.14,1.61-9.4,4.78-12.2,2.72-2.4,7.11.31,8.92,2.9,3.94,5.64,6.2,12.07,7.43,18.94l1.96,10.97,1.89,13.18c4.86,19.37,7.66,38.58,10.57,58.37l1.59,10.8,1.87,9.02,24.95,14.1c10.17,5.74,32.81,26.43,40.63,36.35l17.74,22.5,5.77,9.31,9.59,13.14c.32.44.22,2.77-.26,2.73-.65-.05-2.32-.52-2.7-1.07l-11.64-16.9-16.74-22.24-4.18-5.82-22.21-22.1-17.85-13.33c-5.43-4.05-11.54-7.12-17.81-10.19-15.08-7.39-31.39-10.96-48.01-13.19-.44-.06-1.71-.15-1.64.18l.45,2.02,5.9,10.04c7.87,2.09,15.33,2.97,22.29,6.46l15.58,7.8,5.63,3.61,14.79,10.91,6.17,6.25c6.62,6.71,13.98,12.58,18.82,20.81,5.1,8.66,12.47,15.67,15.07,25.61l-15.33-22.15-5.98-8.09-17.95-17.73-19.85-15.05-20.56-10.58-16.14-5.08c-.34-.11-1.57-.04-1.53.21l.21,1.22,17.94,31.82,4.23,8.28,18.91,34.5,5.2,10.94c.26.55.41,1.62.46,2.04.06.56-2.55.73-2.81.23l-4.02-7.96-5.14-9.68-13.69-24.39-19.07-33.69-3.12-7.01-11.85-21.74-75.54-6.68c-2.77-.24-5.29.07-7.4.57-1.54-.57-4-1.23-6.11-1.29l-23.1-.76-29.58-.81h-61.46s-27.99.79-27.99.79l-18.22.73-12.45.63-11.66.7-33.09,2.53-36.02,4.4,16.28,19.51c2.35,2.82,3.5,6.27,5.06,9.72l9.84,21.82c1.82,4.04,1.88,9.25,4.21,12.8l18-2.12,14.23-1.34,30.05-1.66,19.22-.79,18.01-.76,19.38-.83,79.07.03,28.96.77,20.98.8,17.83.73,33.77,1.71,15.56.9,7.02.64,12.09,1.52c1.13.06,2.41.67.89,1.3l-17.62-.7-13.23-.64-11.68-.63-22.52-.93-10.87-.62-31.01-1.02c-41.98-1.39-83.6-1.86-125.54-.11l-39.66,1.66-35.37,1.9-24.83,2.4-1.69.28c-.41.07-.43,1.06-.3,1.52l3.37,12.2,5.7,20.93-.17,2.71c-.04.65-1.99.25-2.8-.16l-3.27-13.53-6.59-21.21-6.16-18.91-7.69-18.01-7.4-12.95c-5.56,2.8-8.93,6.97-11.08,12.23-7.39,18.11-5.17,31-1.54,48.84l2.87,14.1c-.26.51-1.25,1.63-1.32,1.17l-.37-2.52c-3.94-10.79-6.78-21.48-7.37-32.87-.35-10.73,1.24-21.06,6.01-30.41,2.72-5.33,5.59-9.52,11.51-12.1l-11.6-14.19c-1.01-1.24-3.57-1.3-5.12-.96-9.7,2.13-19.26,3.79-27.71,9.03-12.59,7.8-18.56,21.52-19.48,35.91l.13,16.53c.04,4.76.49,9.47,1.67,14.06l6.09,23.78c.22.85-.27,2.38-.97,2.59-.99.3-2.84-.75-3.11-1.76l-7.73-28.63c-4.7-17.41-11.52-22.02-11.22-20.59l.51,2.49,2.71,5.74c3.38,7.16,5.86,14.55,6.97,22.41l3.82,19.16c.07.1-2.09-.02-2.68-.16l-5.84-27.33c-1.39-6.5-4.1-11.84-7.28-17.68-1.29-2.36-1.41-6.03-1.75-9.07-4.95-3.95-10.66-8.37-17-9.38l-18.29-2.91c-15.99-2.55-31.5-4.31-47.66-4.3l-45.18.04-17.97.83c-13.09.61-25.84,1.87-38.62,4.8-5.49,1.26-10.3,3.78-15.08,6.9-2.69,1.76-3.58,5.97-4.94,8.9-5.98,12.88-10.71,25.62-14.13,39.4l-2.35,9.45c-.16.66-1.2,1.66-1.8,1.86-3.48,1.18,2.31-18.46,4.97-26.75,3.3-10.3,7.9-19.43,13.12-29.52-4.15.48-5.37,3.99-7.11,6.84-4.04,6.62-7.75,13.15-9.69,20.67l-2.57,9.95-4.81,17.95-2.29.69c-.44.13-.99-.96-1.44-1.71l7.65-27.34c1.4-6.9,3.92-12.91,7.45-18.95l3.47-5.92c1.94-12.72,1.48-25.78-3.68-37.79-5.51-12.85-23.02-19.18-37.27-20.6-3.07,1.52-6.87,3.76-8.87,6.09l-6.32,7.35c-1.79,2.08,7.2,4.94,10.28,19.07,3.09,14.17-.1,27.96-3.39,41.83-1.77,7.45-3.51,14.38-6.54,21.48l-.6,1.4c-.13.31-1.14.37-1.12.04l.15-2.53,5.36-18.9,3.28-19.5c1.77-10.52,1.29-20.56-2-30.78-1.59-4.94-7.22-9.69-8.09-8.57l-1.57,2.01c-5.01,6.44-8.46,13.06-11.6,20.39l-10.96,25.58-6.32,16.73-3.39,11.66-6.03,17.5c-.23.67-1.98,1.72-2.4,1.34l-1.84-1.65,9.34-26.86,4.3-13.63,3.29-8.42-.87-1.69-68.19-5.09-12.54-.65-29.81-1.43-18.54-.81-33.62-.69-63.31-.35-8.71.48-48.8,1.74-19.17,1.16-19.11,1.07-12.78,1.01c-.4.03-1.64-.31-1.94-.38-.46-.1.85-2.11,1.32-2.15l10.42-.81,23.12-1.7,23.86-1.56,15.7-.76,22.49-.79h86.17s28.71.8,28.71.8l19.58.76,28.51,1.57,25.41,1.65,10.61.68,40.39,3.64,2.1.49c.43.1.96-1.21,1.17-1.66l12.09-25.83c2.13-4.55,4.25-8.82,7.63-12.68l11.97-13.68,3.94-4.14c.12-.16.43-.84.71-1.52-20.29-3.97-40.06-6.33-60.56-7.75l-43.54-3-17.88-.81-18.76-.8h-80.77s-22.64.81-22.64.81l-17.24.71-40.12,3.18-18.39,1.91c-7.67.8-15.77,2.08-22.7,5.13l-13.11,20.43-18.5,31.29-5.57,10.9-18.83,32.3-2.45,5.46-7.07,11.94c-1.1,1.85-4.1,1.64-4.2,1.32l-.58-1.87,12.75-21.51,6.07-11.76,13.86-23.25,9.16-16.67,8.46-13.36,4.54-9.55c.23-.1-1.97-.36-2.92-.39-13.94,1.49-27.01,5.91-39.08,12.86-6.94,3.99-13.5,8.01-19.42,13.31-6.19,5.55-12.82,10.29-18.15,16.77l-7.37,8.97c-5.28,6.42-10.18,12.7-14.61,19.61l-7.54,11.75c-.78.82-1.37-.29-1.19-1.48l10.13-16.92c5.26-8.79,12.5-16.11,19.07-24.15,5.7-6.98,12.43-12.25,19.32-17.99,6.12-5.11,12.74-9.04,19.8-12.96,13.31-7.38,28.88-12.46,44.21-12.32l.62-.97,3.69-5.81,2.66-4.19c.24-.38-.57-2.21-.96-2.18-16.66.31-34.66,2.96-49.85,10.14l-18.64,8.8c-6.57,4.1-13.48,7.55-19.3,12.5l-15.56,13.25-6.17,6.29-11.23,12.04-10.49,12.87-16.31,22.58-8.93,13.29-.97.85c-.24.21-.77.65-.91.67l-1.68.29c-.47.08-.28-1.66.02-2.11l5.92-8.66,5.51-8.66,13.27-18.41,6.87-8.79,18.58-20.15,5-5.14,15.48-12.73c16.13-13.26,35.94-21.63,56.04-27.53l3.09-26.98,4.34-19.44c3.61-11.89,7.25-23.48,9.13-35.81,1.41-9.26,3.15-17.96,8.51-25.71,2.3-3.33,8.13-6.34,11.31-3.34,4.09,3.86,5.98,9.71,6.69,15.15,2.23,16.96,3.96,33.36,2.78,50.41l-1.93,17.26c-.84,7.49-2.56,14.61-5.67,21.42l-.71,1.56c-1.64,3.6,8.94-2.66,17.93-3.72l28.56-3.35c-.4-2.89-.14-4.78.34-7.37l1.47-7.9,2.08-18.93c-.48-.36-1.32-.98-1.27-.95-5.65,4.51-9.63-7.43-10.43-16.4-.74-8.39-.47-16.5.36-25.09l2.3-23.85c.06-.63,1.62-2.27,1.9-1.76l1.28,2.32-2.54,34.19c-.35,8.76,1.33,24.39,4.34,28.04.58.71,3.55-.69,3.83-1.6.73-2.35,1.38-6.86,1.53-9.77.81-15.27,4.81-45.55,11.26-55.78.41-.65,2.49-1.46,2.68-.94s.82,2.42.71,3.08l-1.88,11.25c-2.24,13.42-5.79,26.11-6.71,39.66l-.73,10.73c3.92-1.29,5.91-2.68,8.67-4.21l9.6-5.33c2.8-1.55.14-3.91.27-12.02l.72-42.72.06-1.88c.02-.53-1.77-.7-2.31-.72l-13.28-.6-10.96-.43-22.46-.57-13.19-.63-2,.08c-.53.02-.37,1.63-.28,2.25l2.06,14.18,4,26.39,2.04,23.02.14,14.24c0,.22-.42,1.45-.5,1.66.11,11-1.32,22.07-7.56,31.05-.84-.1-2.33-.3-2.31-.75l.12-2.72c4.16-9.89,5.42-20.04,5.33-30.74l-.45-20.94-.7-8.57-4.26-29.68-2.58-17.56c-.09-.59-1.15-2.17-1.69-2.2l-14.39-.62c-7.38-.32-12.77-5.52-17.65-10.27-3.51-3.42-5.66-7.14-8.58-10.98l-17.39-22.82-6.82-8.82-13.16-14.8-7.82-7.74-11.47-8.95c-.63-.49-1.13-1.34-1.29-3.08,7.61,3.75,14.57,9.25,20.63,15.79l13.86,14.96,6.72,8.78,16.37,20.98c6.67,8.55,12.39,18.67,23.32,22.55,5.21,1.85,12.01,1.4,17.65,1.73l3.61.21,1.31.2,1.45.22c.32.05,1.03-.81.76-.98l-1.33-.89-5.91-4.87-16.62-16.86-4.23-6.57-16.94-24.34-2.09-4.91c-7.27-12.8-13.38-25.6-17.49-39.88-1.9-6.6-2.47-13.27-3.98-20.45l-12.33.14c-9.87,1.27-19.21,4.06-28.71,6.8l-21.13,6.11-34.48,10.72-26.17,8.6c-.48.47-1.31,1.25-1.71,1.17-.52-.11-2.09-.42-1.69-.34l.39-2.05.45-2.34c.12-.62,2.08-.4,2.71-.59l26.21-8.14,39.76-12.27,21.14-6.01,19.04-4.35c8.17-1.87,15.16,1.85,15.85-2.68l2.5-16.36c.8-5.25,2.57-10.67,4.22-15.49-2.06-6.05-3.5-12.2-2.89-18.73l1.26-13.5c2.36-14.12,6.91-26.26,15.01-38.87l-17.17,7.88-19.66,8.33-19.44,8.51-18.92,8.27-21.79,10.07-19.6,9.14-20.39,9.88-8.11,3.55c-.96-2.44-.08-3.26,1.32-3.97l8.8-4.44,18.28-8.95,19.54-9.25,17.46-8.22,22.24-10.35,20.86-9.47,14.3-5.93,8.07-3.55c7.66-3.37,15.83-4.83,22.26-10.34l1.19-1.02c.21-.18.08-.58-.21-.64l-2.03-.43c-9.18,3.01-18,6.08-26.85,9.77l-23.41,9.31-6.23,2.45-57.76,24.45-9.01,4.42-21.82,9.68-.99.82-1.09.53-.91.45-1.08.55-1.14.57c-.33.17-1.69-.07-1.59-.42l.49-1.73c6.82-4.18,13.69-7.67,21.23-10.5l9.4-4.53,17.26-7.69,17.59-7.35,19.66-8.31,19.51-7.72,22.23-8.83c7.67-3.05,15.09-5.61,22.98-7.96l2.38-.71-.25-1.29-1.98.27-7.75,1.05c-4.81.65-9.34,1.09-13.97,2.43-16.46,4.76-33.01,8.8-50.13,8.68-4.37-.03-8.44-.09-12.87.52-4.69.64-8.83.39-13.4-.56l-1.39-.29-1.52-.02c-16.02,2.8-31.44,6.62-47.29,10.45l-2.05-.22-.69-2.04,1.83-1.74,33.82-7.55,15.48-2.71c.42-.07,1.99-1.1,1.99-1.4l.32-17.8.63-11.79-.17-2.75c-.04-.71-2.25-.58-2.98-.61l-1.65-.07-15.78-.68c-1.14-.05-2.12,1.87-2.32,3.05l-2.41,14.09c-.83,4.84-2.26,10.36-4.56,14.68-.73,1.38-4.23,2.58-5.9,2.95l-12.56,2.82-4.41.54c-.44.05-1.37-1.5-1.09-1.83s1.26-.99,1.83-1.11l14.01-2.75c1.69-.33,3.89-2.47,5.06-3.69,5.52-14.82,8.53-29.78,7.94-45.65.14-8.63-.82-16.9-3.89-24.81-4.27-9.84-11.91-17.51-22.49-20.49-.5-.2-.91-2.6-.22-2.54l3.26.26c11.03,3.82,20.2,12.07,23.45,23.23,2.05,8.14,5.01,16,4.26,24.34l-1.01,11.22c-.07.81-.25,2.46.39,2.53l3.1.35,1.83-.19,14.61.89c.62.04,2.23-1.07,2.25-1.72l.38-18.35.9-16.08.67-27.5.61-14.17.39-13.6c-.32-1.43-2.38-4.21-3.17-5.39l-5.71-8.44-17.55-23.59-5.97-8.7-6.73-8.29-9.33-11.75-.65-1.42-.68-1.32-11.27-14.14c-.58-.73-.89-2.08-.66-2.56.19-.39,1.39-1.32,1.65-.97l1.21,1.59,8.83,11.3c2.9,3.71,5.27,7.49,8.29,11.15,4.54,5.5,8.72,10.9,12.97,16.64l19.5,26.28c1.08,1.45,2.19,3.9,3.2,5.13l.85,1.04c2.08,2.52,4.76,5.33,6.44,8.17l10.27,17.34c.91,1.54,4.31,1.44,6.3,1.8l1.38.25,1.66.36c.27.06.16-.76,0-.97l-.82-1.16c-3.52-4.94-7.19-10.46-10.71-15.51l-15.99-22.91-.63-.88-.7-.95-.21-1.29-39.95-53.93-5.18-8.68c-.2-.9.38-1.75,1.31-1.53l4.24,5.89,17.56,22.71c1.8,2.33,3.07,5.28,4.92,7.56,5.3,6.54,10.61,12.71,15.13,19.72,4.53,7.03,9.14,13.51,14.12,20.19,3.68,4.94,6.52,9.96,9.81,15.14,5.89,9.28,13.12,15.64,18.91,23.81l10.36,14.58c4.4,6.19,8.35,12.1,12.33,18.66,5.04,8.29,11.19,15.84,14.46,25.02l5.14,14.41.38,1.16c2.31,7.06,3.47,14.27,2.04,21.46-.16.23-.67.94-.7,1.08l-.3,1.68c-.09.48,1.47.11,2.09.04l6.83-.78c.41-.05,1.59-1.17,1.8-1.44-.77-11.83-3.89-22.73-8.87-33.44l-7.58-16.04c-4.92-10.42-11.82-19.85-18.42-29.33l-5.79-8.32c-4.8-6.9-10.39-12.91-15.23-19.75l-18.36-25.94-6.09-9.44c-5.1-7.9-10.91-15-15.85-22.99-7.12-11.52-15.01-20.18-21.06-31.25-1.56-2.85-4.87-6.25-6.14-8.89l-1.08-2.25c-.21-.43,1.86-1.53,2.23-1.12,1.54,1.73,4.22,5.44,5.88,7.75l19.73,27.57c5.61,7.84,10.76,15.41,16.76,22.94,2.25,2.82,3.85,5.98,5.94,8.93l16.7,23.49c3.2,4.51,5.81,9.01,9.24,13.39,4.17,5.31,7.98,10.64,11.74,16.23l15.02,22.3,3.95,6.79,7.06,13.28c8.36,15.73,14.49,26.03,14.45,45.45,0,1.01,1.7,1.49,2.94,1.62l6.83.71c.37.04,1.8-.47,1.92-.59-1.59-9.27-3.78-17.26-7.23-25.67l-5.9-14.57c-3.52-8.68-9.35-16.22-14.38-24.2l-6.04-9.58-18.36-25.84-14.46-20.63-6.5-9.82-18.9-27.66c-6.45-9.44-13.3-18.18-19.62-27.64l-5.02-7.52c-3.26-4.88-6.94-9.02-9.64-14.46,3.89.27,4.54,3.26,6.22,5.42,3.15,4.07,5.79,8.13,8.82,12.34l17.19,23.88,11.08,16.82c3.85,5.85,7.88,11.16,11.88,16.96l18.65,27.03c3.78,5.48,7.24,10.72,11.28,15.98,3.71,4.83,7.07,9.52,10.31,14.66,5.52,8.75,11.84,16.57,16.85,25.73l3.15,7.79c6.16,15.25,10.13,23.02,12.7,40.79.04.3.48,1.37.75,1.36l1.18-.04,5.1-3.43,18.8-9.28c12.74-6.29,27.3-7.8,38.44-16.76l6.97-5.61,1.69-1.25c.35-.25-.53-.5-1.43-.6-9.75-2.24-19.31-5.5-26.85-11.92-7.44-6.34-14.36-12.72-20.01-20.5-6.28-8.65-13.72-16.05-18.83-25.4l-3.04-5.55c-5.91-8.58-11.49-16.87-17.07-25.6l-11.85-18.58-8.56-13.35-19.21-30.3-1.96-4.25-15.03-22.87c.84-.67,1.77-1.42,2.18-1.28.56.19,1.58.99,1.93,1.49l10.63,15.22c.87,1.25,1.71,3.75,2.56,5.12l19.76,31.52,17.53,26.69,11.83,18.48,8.72,13.05,5.96,9.56,15.31,20.51c5.76,7.72,12.3,14.32,19.58,20.92,8.88,8.05,29.71,16.84,39.19,11.14l17.04-10.25c4.86-2.92,9.9-5.14,15.19-7.25l11.06-4.41,18.54-5.7c14.49-4.46,29.44-5.49,44.65-6.54,10.25-.71,20.16-.31,30.48-.07,19.42.46,37.93,3.17,56.94,7.52l14,3.2,25.53,7.05c8.04,2.22,15.95,5.57,24.33,6.41l14.73,1.48c14.26,1.43,27.97-.04,42.39-.04h180.88s27.26.92,27.26.92l38.92.68,20.14.83,28.84.73,20.09.82,20.33.75,16.97.79,17.1.8,17.98.78,12.34.73,14.92.88,43.06,2.68,40.29,3.19,9.46.74,20.21,1.51,15.53,1.42,34.97,2.91c14.73,1.22,48.11-7.86,58.9-18.49l11.77-11.59,8.6-10.85,15.7-21.62,3.34-5.94,8.86-12.95,12.19-18.95,16.07-24.27,4.13-7.45,15.87-23.86,11.33-17.28.82-.93,1.62-1.67c.36-.37,2.53-.49,2.31-.01l-1.3,2.81-.66.99-14.92,23.85-15.15,22.64-.71,1.31-.47,1.37-.47,1.37-19.23,28.99c-.96,3.34-2.95,5.72-4.8,8.45l-14.75,21.77-5.51,9.2-8.12,10.64-8.04,10.79c-2.49,3.34-5.81,6.46-8.79,9.58-9,9.4-19.14,15.76-31.58,19.76l-14.5,3.54-2.83.24c-.55.05-1.3,1.83-.77,1.93l2.88.55c9.51,1.81,18.62,2.95,27.86,5.76l13.06,3.97,1.12.47c7.7,3.25,15.12,6.04,22.24,10.39l10.62,6.48,1.69,1.07c.33.21.5-1.71.49-2l9.66-29.96,10.32-20.24,25.11-37.52,12.77-16.89.49-1.06.49-1.06.49-1.06.52-1.13,34.44-47.73.89-.87c6.43-10.39,14.17-19.66,21.92-29.22l.62-.96.61-.95.6-.94.62-.96.7-.85.71-.86.7-.86,5.98-7.26.7-.85.68-.84.7-.84,1.29-1.23,1,1.63-13.68,17.71-15.29,19.74-5.51,8.47-18.45,24.9-19.27,27.46-3.32,5.97-16.61,22.15-17.12,25.79-4.28,8.14c-3.91,7.44-7.16,14.81-9.77,22.8l-4.22,12.92-1.84,5.17c-.07.42-.31,2.3-.2,1.51l13.12-.65c-.63-3.03-1.2-6.98-.37-9.96l5.65-20.24c2.43-8.71,8.22-15.89,12.78-23.63l7.49-12.71,8.13-11.27,11.91-16.09,18.72-25.68,14.48-19.47.97-1.09,5.17-8.18.9-1.04,40.86-53.67,1.11-.71c.13-.08.88-.48,1.02-.5l1.61-.21-.33,1.56-.58,1.01-.57.99-.59,1-.53.91-.46.53-.76.47-2.38,3.23-.48.57-.38.79-.51,1.08-.67.93-.84.69c-.94.78-.8.53-.66,1.6l.2,1.54c.04.29-.28.34-.45.11l-1.36-1.89-.5,5.07-14.1,17.99c-.81,1.03-1.49,2.5-1.89,4.04l-18.97,24.62-3.12,5.5-17.76,22.81-14.32,19-2.82,4.11-12.24,17.37-1.78,2.05-7.98,12.28-11.23,19.97c-3.38,9.35-6.38,18.57-8.29,28.28l.25,4.07c.03.52-.4,2.56.12,2.67l2.97.62,1.43.3,4.99,1.07,1.96.27c.37.05.12-1.51-.19-1.76-8.12-6.49.35-26.37,5.11-37.59l3.9-9.2,30.07-43.69,9.04-11.28,11.29-13.49,9.81-13.52,17.54-22.87,20.31-26.25.5-1.12.49-1.03.74-.84.72-.82.79-.88.64-.78,7.34-8.99,6.64-8.13.6-.85.6-1.04.6-1.02,1.27-1.63c.35-.45,1.97.44,1.7.94l-1.27,2.37-5.17,8.11-16.41,20.93-18.92,24.5-19.76,26.15-.37,1.19-.51,1.06-.64.92-.62.9-.63.9-8.69,10.71-2.69,3-.45,1.47,6.26-2.59.52-.24ZM310.62,453.52c2.95,1.01,5.94.64,7.79-1.11l.51-55.47.8-38.07.49-22.13-5.56-9.02-.5,17.93-.72,30.36-.79,22.56-.78,18.52-.81,21.73-.43,14.7ZM1600.47,436.93l-.77-19.83-.76-16.33-1.62-27.09-.68-32.17-.5-9.03c-6.35,2.35-4.25,14.42-4.17,22.16l.54,54.34.21,48.08,8.14-.32-.4-19.81ZM349.22,396.52l-.12,55.6c11.46-1.88,21.21-4.29,31.75-7.22,1.98-5.17,1.96-10.03,1.24-15.48-1.91-8.1-4.96-15.64-8.71-23.1l-5.53-11-7.16-14.72-7.2-12.71c-3.29-5.81-6.55-11.26-10.66-16.56l-8.51-10.97-11.14-.42-.51,24-.67,44.6-.46,44.15,23.27-.13-.37-11.14c-.19-5.73-.09-11.45.07-17.25l.84-30.23c.18-6.39.36-12.69.09-19.13-.18-4.49-.87-8.49.06-13.22,2.14,2.86,3.93,6.41,4.1,9.12l-.36,25.81ZM1585.88,340.07c-.66.07-.89.1-1.03.21l-8.88,6.39c-1.87,1.34-3.98,2.54-5.18,4.28l-6.04,8.77c-5.8,6.52-9.15,14.24-13.15,21.91l-5.07,9.72c-4.64,8.91-10.74,17.23-13.07,26.96l-5.06,21.09c-.48,2.01,2.82,4.05,3.9,5.31,1.94,2.26,3.61,4,6.49,4.64l22.3,5.02.33-57.79.76-23.17.53-4.83c.06-.55.94-1.83,1.44-2.03.37-.15.91.17,1.7.57l-.62,6.96-.77,23.64-.31,53.82-.53,2.07c-.1.41.76,1.01,1.38,1.54l24.89,1.38-.45-85.91-.4-29.46c-.01-1.02-3.04-1.45-3.18-1.08ZM1068.35,563.12c-15.15,5.67-30.25,8.79-45.94,9.38l-22.02.84h-83.82s-25.64-.92-25.64-.92c-9.25-.33-19.02.1-27.62-3.44l-23.06-9.49-24.11-10.84-17.46-5.19-29.13-6.01c-.9-.18-2.46.3-2.85.95-.32.52.77,2.22,1.35,2.33l16.91,3.2c11.24,2.12,22.22,3.96,32.4,8.9l22.49,10.92,20.16,8.56c9.17,3.89,19.36,3.9,29.37,4.12l36.43.81,52.94-.02,52.16-.77c17.53-.26,33.71-5.78,49.02-13.72l12.96-4.94,10.51-3.43,18.01-3.92c34.28-5.3,68.3-7.79,102.83-9.65l16.43-.88,12.33-.76,18.73-.78,11.6-.76,24.93-.75,16.22-.82,22.66-.74,21.77-.8,22.55-.79,27.93-.76,16.38-.74,26.32-.87,49.85-.49c1.59-1.83,1.37-4.64,1.86-6.84,2.37-10.66,1.66-20.79.54-31.36-1.74-16.52-8.12-30.72-21.04-41.62-5.8-4.89-12.15-9.39-19.25-12.52l-15.73-6.92-24.33-7.49c-14.59-3.33-29.16-4.79-44.1-6.24l-33.9-3.29-34.22-2.78-23.07-1.72-47.15-3.11-50.34-3.17-17.27-.73-20.22-.8-28.05-.71-15.47-.8-21.75-.79-24.23-.79-32.49-.76-32.68-.79-52.03-.75h-50.01s-131.98.69-131.98.69c7.94,4.49,16.54,5.73,24.78,8.79,7.08,2.63,14.44,2.94,21.21,6.27-5.8.69-11.02-.29-16.23-1.87l-22.76-6.92-22.54-7.72c-13.3-4.55-26.4-7.66-40.03-11.33-19.81-5.34-39.25-10.23-59.69-12.3-6.7-.68-12.74-1.97-19.71-.88l25.26,7.55,16.34,5.33,10.83,1.73c16.64,3.72,32.26,9.34,48.02,15.66l17.84,7.15,17.31,6.84c20.59,8.14,43.65,12.89,65.87,11.07l27.96-2.29,12.44-.75,12.48-.68,36.28-.65h26.21s28.97.74,28.97.74l21.23,1.26,31.55,2.62c17.49,1.45,34.61,4.24,51.17,10.24l25.17,11.18,14.91,8.7c-6.26.56-10.47-4.04-15.61-6.3l-18.43-8.1c-29.51-12.97-85.07-15.85-119.39-17.35-25.09-1.09-49.43-1.18-74.48.09l-37.1,1.88-23.61,2.08c-21.43,1.88-42.86-1.83-62.87-9.45l-16.54-6.3-19.2-7.96-21.76-8.51-19.99-6.46c-4.72-1.52-8.96-2.81-14.47-2.85,4.3,2.71,8.45,4.85,13.28,6.56l20.6,7.3,17.59,7.26c7.18,3.72,14.36,7.03,20.73,11.93,6.28,4.83,12.49,8.88,17.75,14.93l3.2,5.3c3.82,6.34,7.96,11.98,10.86,18.79,2.29,5.37,1.69,10.71,1.58,16.43l-.39,20.09c-.22,11.12-13.12,23.08-23.91,27.26l-.11,10.07,12.5,2.38c13.62,2.59,26.48,5.73,39.84,11.01l-7.17-7.84c-6.5-8.16-8.72-18.52-8.8-28.71l-.07-8.08c.62-14.6,2.6-28.86,8.18-42.49,1.54-3.75,4.2-7.14,6.74-10.47,9.73-12.8,38.81-15.37,56.41-16.31l14.18-.76,17.82-.84,79.49-.13,10.25.73,11.68.73,47.36,4.64c13.26,1.3,27.29,4.02,38.15,12.47,9.53,7.41,13.32,28.74,13.35,42.62l.04,20.9-1.18,10.57c-.97,8.65-8.62,21.95-14.23,25.57-7.6,4.9-14.93,9.8-23.78,13.11ZM661.09,666.9l18.28-8.97c7.04-4.5,14.15-8.32,20.47-13.72l15.52-13.28,22.25-25.09,11.86-21.59c4.27-7.77,7.35-16.53,8.89-25.23l4.3-24.25c.87-9.13,1.45-18.61-.09-27.51l-4.23-24.53c-1.45-8.44-4.72-16.96-8.93-24.33l-12.48-21.83c-2.48-4.34-6.57-8.01-10-11.67l-8.33-8.91c-5.5-5.87-12.59-9.99-19.08-15-5.43-4.2-11.53-7.05-17.5-10.54-4.61-2.7-9.06-4.8-14.43-5.83l-10.17-3.74c-8.29-3.05-16.9-5.74-25.69-6.71l-12.71-1.39c-17.92-1.96-45.69,1.06-62.84,7.18l-21.23,7.57c-5.68,2.03-10.66,4.56-15.79,7.65-13.24,7.96-26.64,15.21-38.52,25.12-6.01,5.01-12.43,9.3-17.24,15.44l-11.6,14.83c-3.31,4.22-7.22,8.22-9.39,13.11l-4.55,10.26c-6.51,11.41-9.62,23.25-12.34,36.05-4.97,23.42-4.72,54.64,4.75,76.37,3.24,7.43,7.41,14.07,11.44,21.21,5.02,8.9,12.47,15.69,19.16,23.39,6.14,7.07,13.2,12.74,21.01,17.93,7.21,4.79,13.98,9.97,21.73,13.99,15.52,8.07,32.32,12.52,49.48,15.89,11.35,2.23,22.03,3,33.53,3.16,15.43.21,29.96-1.97,44.81-5.77l11.77-3.01c6.29-1.61,12.12-3.43,17.88-6.25ZM1525.52,440.58l2.31-12.87,6.21-18.77,13.97-26.91-13.84,20.93-3.98,10.11c-3.24,8.23-8.98,22.75-4.68,27.52ZM384.61,422.17c-1.18-3.42-1.85-7.46-3.27-10.75-4.34-10.07-9.82-19.65-16.19-28.01l16.11,33.42c1.79,5.32,2.23,10.8,4.46,16.44.76-3.64.18-7.35-1.11-11.1ZM779.38,493.42c6.04-5.59,8.92-14.37,7.8-23.13-.92-7.18-4.02-13.38-7.19-19.95-1.94-4.02-4.08-8.05-7.98-10.75l-16-11.06c-7.24-5-15.54-8.42-23.42-12.31-3.66-1.81-7.29-2.51-10.12-5.71,13.67,2.31,24.44,11.23,36.17,15.46-11.33-9.46-24.31-14.9-37.39-19.58l-12.4-4.43,10.06,8.25,7.23,7.05,11.5,13.15c3.98,4.55,6.62,8.95,13,10.55,4.15,1.04,7.17,4.93,10.01,7.62,3.93,3.73,7.71,6.72,7.67,12.78l-.09,17.51-2.34,10.74c-.95,4.36-.61,8.96,1.54,13.35l9.28-6.19,2.67-3.34ZM419.33,523.32l-15.3-.33c-6.27-.13-9.56-6.83-9.84-12.5-.55-11.18,2.91-21.1,6.66-31.41,2.9-7.96,7.25-16.11,15.59-18.84,2.1-.69,5.63-2.05,7.64-2.1l16.76-.41c5.97-8.71,12.54-15.96,19.11-23.9l6.74-8.15-20.73,8.32c-13.8,5.54-26.53,12.16-37.95,21.72-3.28,2.74-5.38,6.16-7.41,9.76-3.59,6.39-7.42,12.48-8.99,19.68l-4.06,18.63c-1.13,5.17-1.12,10.46-.19,15.55l1.73,9.43,29.46.11.78-5.55ZM1099.06,487.88v16.64c0,8.06-.84,15.54-2.61,23.18-2.7,11.66-8.63,20.2-19.28,26.23-10.4,5.89-22.11,9.54-34.33,10.63l-19.91,1.77-18.64.78-90.08-.04-24.97-.7c-12.55-.35-24.3-2.52-37.35-4.87,6.24,4.02,13.36,5.94,20.7,6.82l10.86,1.3,25.34.68h87.62s29.1-.84,29.1-.84c10.9-.32,21.5-2.49,31.91-5.16,9.27-2.38,17.35-6.05,25.09-11.41,5-3.46,10.29-7.02,13.32-12.23,4.62-7.97,7.42-16.31,7.4-25.37l-.05-24.37c-.02-10.53-2.75-20.44-6.14-30.27-1.62-4.69-4.18-7.4-8.59-9.58-9.8-4.83-19.69-7.78-30.67-8.98l-32.03-3.51-8.57-.65-12.44-.78-11.65-.73-24.48-.68-43.6.03-31.8.8c-18.21.46-35.99,1.67-53.68,6.11-7.35,1.85-14.2,4.75-19.18,10.53l-3.7,7.16c-4.44,10.68-7.1,21.87-8.22,33.55l.05,21.94c.83,9.66,4.75,17.73,10.87,24.86,4.42,5.15,10.23,7.5,16.37,10.23,10.43,4.65,20.67,8.86,32.24,10.29l10.3,1.27,13.31.83,15.66.8h97.97s16.22-.79,16.22-.79l20.63-1.7c15.86-1.3,42.02-9.01,47.36-22.83l3.61-9.34-19.17-.33-11.68-.29c-3.64-.09-7.64-1.22-7.61-5.72l.29-41.47.83-12.36.67-18.21c.03-.85.45-2.54.86-3.18,2.15-3.29,15.7-.21,23.98,3.56,10.59,4.82,15,10,16.37,22.62l1.5,13.8ZM1531.61,446.82c-.87-1.43-2.81-2.57-3.73-1.93-.57.39.27,2.51.96,2.4l2.77-.46ZM758.36,451.9c-1.21-3.92-3.82-5.59-7.41-6.41,2,2.88,4.46,5.23,7.41,6.41ZM749.33,449.32l8.98,15.94c2.1-5.89-3.27-12.63-8.98-15.94ZM1077.51,453.89c-4.65-3.18-10.67-4.23-16.25-3.5-.68.85-1.64,2.07-1.11,2.25.4.14,1.7.49,2.28.52l15.09.73ZM763.74,484.33c3.53-9.38,2.94-25.87-4.88-31.3l3.86,14.29c1.47,5.45-1.37,10.92,1.02,17.01ZM1085.91,459.25c-2.12-4.02-5.21-2.15-8.25-2.26l-16.39-.62c-.59-.02-2.02,1.98-1.53,2.04l1.74.24,24.44.6ZM404.77,514.48c-3.9-4.16-3.05-9.73-2.44-14.6,1.34-10.72,4.98-20.62,10.94-29.65,4.75-7.21,17.35-6.76,26.66-7.99-4.33-3.96-9.49-1.53-14.18-1.29-5.68.29-11.78,2-15.14,6.59-3.69,5.05-7.2,10.18-8.84,16.02-2.47,8.83-4.68,17.04-4.52,26.12.08,4.17,2.13,10.09,6.9,10.17l15.14.24c.4-.62.59-3.15-.12-3.15h-2.87c-3.5-.03-8.83.41-11.53-2.47ZM1090.24,464.96c-.13-1.35-1.41-2.57-2.24-2.5-9.95.77-18.84-1.05-28.81,1.19l31.05,1.32ZM435.91,465.66l-4.59.38,3.3,1.2c.4.15.92-.89,1.29-1.58ZM428.13,467.89l-.43-.66-4.32.21.43.66,4.32-.21ZM761.19,474.7l-1.63-7.51c-.74,2.66-.63,5.35,1.63,7.51ZM1092.89,471.43c-.73-3.74-3-2.83-5.01-2.87l-28.66-.6c-.22.86.87,2.27,1.59,2.29l16.58.56,15.49.62ZM430.86,471.03c.75.06,2.85.13,2.56-.19l-1.18-1.3c-.19-.21-.8.33-1.52.95-1.2.27-1.05.49.13.54ZM418.6,514.87c.57.1,2.31-.8,1.96-1.16l-1.25-1.3c-3.01.81-7.59.67-9.92-1.51-2.92-13.4,2.39-29.65,9.04-40.63-2.7,1.43-4.18,3.73-5.39,6.21-4.53,9.26-7.52,19.26-7.71,29.6-.08,4.05,1.28,6.76,5.44,7.47l7.83,1.33ZM429.74,478.06l.93-2.68c.13-.37-1.32-.42-1.79-.35l-7.89,1.11,8.75,1.93ZM1092.24,478.41c.54.02,2.03-.3,1.97-.64l-.34-2.18-35.49-.27c5.96,3.19,11.9,1.35,17.71,2.48l16.15.62ZM428.57,480.92c-4.31-2.66-7.87-.7-11.43.18l11.43-.18ZM1092.2,482.2l-14.63-.67-18.4-.51.03,2.56,32.85,1.12,2.51-.08c.46-.01.49-2.03.04-2.1l-2.41-.33ZM414.82,486.65l11.77.19v-2.42s-10.45.86-10.45.86l-1.32,1.38ZM767.9,520.12c5.65-1.49,9-5.14,12.6-8.91,5.87-6.15,9.16-13.2,7.05-22.5l-6.88,7.85c-3.89,4.44-8.13,7.92-13.54,10.75l.77,12.8ZM1094.96,491.47c-.58-1.43-1.07-2.17-1.54-2.5h-34.49c.1,1.26,1.48,2.32,2.71,2.33l33.31.17ZM422.83,492.61c.89.04,3.04-2.38,2.38-2.54-3.8-.92-11.21-1.09-12.63,2.03l10.25.51ZM1091.41,495.3c-7.46.82-13.58.17-20.7.11l-11.19-.1c-.56,0-.62,2.56-.06,2.57l2.03.06,33.96.43c.32-2.4-1.83-3.31-4.03-3.07ZM422.64,496.8h-7.38v.78h7.38v-.78ZM1093.78,505.28c.6.03,2.39-1.39,1.92-1.75l-1.62-1.24-28.28-.41c-2.72-.65-5.83-1.23-8.11,1.76l16.16.78,19.93.86ZM421.63,504.07l-6-.22c1.69,1.37,3.77,2.83,6,.22ZM421.13,509.07l-.43-.66-4.32.21.43.66,4.32-.21ZM1095.04,511.74c-.44-1.88-.88-2.56-1.32-2.56l-16.4-.4-18.88-.52v2.41s20.28.69,20.28.69l16.33.39ZM1093.62,517.97c.73-.81,1.38-1.59,1.03-1.79l-1.38-.76-32.63-.77-2.48,1.18c-.56.27,1.31,1.92,1.71,1.93l33.75.21ZM1091.94,524.1c.46-.09,1.59-1.65,1.23-1.81l-1.46-.64-33.93.33c4.51,2.81,9.1,1.97,13.82,2l20.34.13ZM406.28,564.89l-4.85-9.84.28-21.64-11.83-1.1-2.52,7.06c-2.85,7.99-5.12,16.39-4.28,24.94l13.13.68,10.06-.1ZM412.4,542.3l.6,11.65c1.76.34,4.15.25,5.86-.21l-.48-10.35.06-9.94-15.54-.18,1.21,20.83,6.48.1-2.36-14.78c-.1-.6.23-2.09.43-2.66.15-.43,1.65-.19,2.02.08l4.2,3.1-2.48,2.36ZM1096.04,607.1c8.92-5.84,18.77-8.96,28.66-12.09l6.44-2.04c1.99.64,3.3.36,5.49.07l61.1-8.12,13.71-1.34,17.68-1.64,22.72-1.83,23.57-1.28,26.17-1.6,20.18-.99,9.47-.55,19.07-.81,58.05-3.03,18.83-.79,13.89-.78,24.16-.76,13.14-.81,22.72-.75,12.76-1.2c1.08-.1,2.55-.48,3.16-.98.49-.4,1-2.35.87-3l-3.92-19.36-2.36-8.66-12.11.02c1.56,6.49,2.75,12.41,2.69,18.72-.05,4.6-3.74,6.63-7.85,6.89l-10.09.66-40.09,1.36-35.62,1.55-21.89.84-15.44.72-18.8.8-35.54,1.61-25.07,1.44-27.07,1.59-26.05,1.81-44.67,3.7c-26.11,2.16-51.59,5.24-76.97,11.61-15.43,3.88-29.63,11.15-40.28,22.47-5.16,5.48-9.96,10.1-15.75,14.58l-1.12-1.9c-.15-.25.75-.93.97-1.14l16.33-15.75c10.92-10.53,26.66-17.94,41.91-21.64,25.67-6.23,51.61-9.1,77.99-11.28l37.9-3.14,22.28-1.63,17.1-1.08,20.03-1.16,31.6-1.62,30.32-1.53,23.41-.77,12.38-.76,26.47-.77,14.69-.81,21.08-.69,15.46-.85,17.5-.62,10.31-.65c2.41-6.12,1.47-16.87-1.49-22.59l-31.78.45-23.98.81-21.9.77-23.16.81-21.16.76-27.16.76-18.54.81-20.33.75-16.98.8-22.63.75-14.02.75-15.54.82-27.28,1.52c-31.73,1.77-62.99,4.1-94.26,9.69-13.77,2.46-26.22,6.87-38.74,12.69l-10.75,5-11.23,46.8c-1.32,5.52-4.04,9.42-9.59,11.57-8.52,3.3-17.66,5.86-27.27,5.96l-77.8.86-31.66-.87-32.68-.57c-8.69-1.51-16.27-4.29-22.32-10.31-7.22-3.14-13.25-7.86-18.76-13.25l-18.79-13.99c-5.24-3.9-11.8-5.25-17.17-9.42,6.3.7,11.77,3.1,16.72,6.18l7.16,4.47,13.75,10.98c5.22,4.17,9.8,8.24,15.87,11.82l-4.11-9.48c-4.09-13.02-6.98-26.01-8.45-39.68-.27-2.5-.29-5.22-2.98-6.56l-25.87-12.9c-1.94-.97-4.2-1.7-6.59-.98,10.12,4.91,15.34,16.59,9.96,27.1-1.87,3.65-7.02,5.25-10.89,5.83l-7.38,1.12c-6.02-.08-13.21-1.73-17.75-5.77-2.61-2.32-4.54-6.25-6.3-9.12-4.04-6.59-2.49-14.29,2.53-19.64,3.01-3.21,5.82-3.7,10.74-5.59l-18.36-4.24c-.55-.13-1.86-.03-2.32.29-.34.24-.72,1.32-.84,1.81l-5.94,25.09c-1.28,5.39-2.68,10.08-5.33,15.23l19.84,2.21c8.26.92,16.83,2.27,24.06,6.05,20.37,10.65,29.08,19.28,42.83,36.44,5.08,6.35,11.75,11.34,19.33,14.05l7.72,1.51,13.16,1.56,18.21.78,68.63.66h12.67s43.04-.61,43.04-.61l15.97-1.85c12.85-1.49,23.28-9.92,32.14-19.34l6.41-6.82c4.99-5.31,11.32-8.76,17.73-12.96ZM812.37,578.82c4.46-4.24,1.68-13.72-1.55-17.53-8-9.45-21.51-14.44-30.86-7.72-2.61,1.87-4.88,6.76-5.17,10.04-.33,3.67,1.49,7.04,2.87,10.18,5.07,11.59,26.14,13.36,34.72,5.03ZM414.31,571.36l7.19.5-2.26-14.23-9.66-.58-4.75.1,5.01,9.23,8.8,1.02-6.98,1.26.38,2.02c.09.48,1.46.62,2.27.68ZM862.06,791.35c2.23-22.64,1.43-44.46.26-66.79l-.95-9.43-4.32-31.19c-1.92-13.88-6.83-26.78-10.87-40.14-1.12-3.7-2.94-5.85-5.39-8.74l-12.46-14.71-9.26-9.46c-3.92-4-9.21-6.38-14.31-8.99l-7.63-3.9-24.94-7.06c-6.43-1.82-12.82-1.19-19.02-.23l1.29-1.86c.22-.31-.8-1.32-1.15-1.16-.23.11-1.09.73-1.22.95l-2.96,5.4c-2.8,5.1-5.21,10.06-4.68,16.16.69,7.89-1.82,14.42-5.01,21.36-3.44,7.46-9.46,12.47-17.17,15.73-4.09,1.73-8.33,3.44-12.92,4.04l-14.42,1.88-18.46,11-17.65,8.14c-17.25,6.57-35.6,10.98-54.3,12.78-24.74,2.39-61.43-1.48-83.55-10.74l-18.17-7.61-21.96-13.65-16.25-12.59-4.47-4.85c-6.35-6.89-13.62-13.02-18.39-21.07-1.75-2.95-2.44-4.57-6.35-4.9-12.54-1.04-22.94-2.94-25.08-15.72l-2.39-14.22c-.29-1.74.99-4.04,2.47-5.54l-2.9-5.96-8.24-.59-16.19-.1c2.99,18.91,9.52,35.89,18.01,52.38l6.1,11.85,13.41,19.3,7.8,10.84,13.04,13.58c3.52,3.67,8.48,8.51,13.38,10.41l23.48.77,17.79.91,28.07.69,23.21.86,34.17.76,40.58.73,61.97.82,52.22.75,42.71.76,19.32.78,14.1.8c9.22.52,16.82,4.42,24.05,10.86-2.29-25.14-5.33-48.91-10.12-72.94-.9-4.54-4.74-8.55-5.86-12.79l-1.21-4.63c2.31,2.01,3.28,3.31,4.32,5.28l10.46,19.87c4.69,8.92,16.69,49.39,18.24,60.15l2.57,17.85,1.72,22.53v16.3s-.61,22.5-.61,22.5l-1.64,19.99-.71,8.35-3.86,29.47c-1.16,8.84-4,16.17-7.69,24.91l6.05-2.35c2.49-.97,5.19-3.06,5.79-5.77l3.59-16.25,4.59-46.61ZM1453.59,679.83l10.86-12.48,9.19-11.89,14.92-21.49,4.88-9.21c6.81-12.87,14.14-25.41,18.58-39.38l5.09-16.04-10.15,1.37c-2.14,12.21-6.18,23.12-10.73,34.51l-4.46,11.16-17.8,30.14-4.2,6.77-14.55,18.79c-3.87,4.99-7.49,9.07-12.69,13.73,6.7,3,8.42-2.94,11.07-5.98ZM1156.26,693.82l15.92-.8,28.83-.75,14.85-.74,29.46-.77,22.46-.85,47.55-.73,67.52-.79,36.11-.68,12.57-.52c6.11-2.47,15.9-10.31,19.63-15.13l10.88-14.03,7.07-9.35,4.48-7.22,9.89-16.46c3.58-5.95,7.15-11.54,9.23-18.13l11.33-35.82-17.95.7-13.87.75-20.33.78-34.03,1.61-32.61,1.56-13.41.66-17.72.87-18.82.8-54.21,3.11-48.96,3.03-21.47,1.93-48.85,5.73-28.61,4.66c-1.48,14.85-4.77,28.42-8.73,42.58l-8.47,30.32c-2.6,9.32-5.69,17.85-10.99,26.27l13.79-.95,16.83-.87,20.63-.76ZM1058.06,601.23l6.72-27.73c-9.63,3.06-18.7,5.76-28.44,6.06l-30.5.93-93.92-.17-25.23-.76-17.9-1.48c-8.58-.71-15.6-4.7-24.35-7.17l1.58,12.94,4.11,19.35c1.71,8.03,4.03,16.61,9.86,22.78,4.12,4.36,11.41,7,17.46,7.16l29.67.8,33.46.79,59.09.02,20.41-.7c9.09-.31,17.67-2.44,26.12-5.61,9.9-3.71,9.8-18.7,11.86-27.23ZM430.03,596.43l-10.3-.4c-.98-.04-3.03-1.04-3.24-1.93-.17-.74.34-2.37.81-3.3,3.46,3.11,7.65,3.75,11.97,2.71-3.15-6.37-5.61-11.47-7.29-17.95l-9.9-1.23c-2.38,4.41-.15,7.65.55,11.53l2.06,11.42c.58,3.24,3.99,6.12,7.16,6.73l14.52,2.76c-1.92-4.19-3.86-7.4-6.35-10.34ZM1071.07,711.16c1.21-.87,2.75-2.17,3.42-3.07,7.35-9.7,21.62-7.76,26.45-13.17,4.02-4.51,6.09-10.67,7.94-16.27l6.14-18.61,5.04-20.75c3.37-13.87,6.86-27.07,8.54-41.86-11.67,3.05-22.39,6.76-31.85,13.06l-9.88,6.57c-2.84,2.17-6.35,5.03-8.24,8.07l.47,7.53c-1.17,4.37-2.04,8.75-2.36,13.28l-.81,11.67-1.67,16.78-1.69,22.25-1.5,14.51ZM700.65,648.83l12.21-1.82c11.8-2.8,22.32-11.19,25.44-23.37l1.68-14.5-13.19,15.44-9.24,10.07-16.92,14.18ZM1035.42,861.01l9,6.08c-1.96-10.03-3.68-18.4-3.56-28.01l.56-42.37.98-18.52,1.24-18.01,1.95-20.53c1.65-17.36,4.9-34.12,8.65-51.17l3.97-18.05c2.38-10.81,7.03-21.5,13.57-30.38,2.87-3.9,6.65-7.1,5.74-13.18l-18.67,15.85c-7.01,5.95-18.56,56.32-20.17,71.84l-1.53,14.77-.92,14.27-1.53,22.53-1.65,27.04-.78,22.64-.05,20.12c-.02,8.53,1.19,16.38,3.22,25.1ZM839.8,845.66l-4.55,21.62c1.9-.59,3.39-2.8,4.22-5.09,3.6-10.01,6.51-19.73,7.87-30.29l3.26-25.38,2.22-29.46-.04-43.71c-1.2-23.62-6.24-45.79-13.13-68.25-2.61-8.49-3.69-17.08-8.93-24.14,3.65,19.88,6.84,38.55,8.11,58.15l.77,11.83,3.03,15.66,1.86,20.35.64,12.5-.11,24.5-.81,20.24-4.4,41.49ZM853.45,654.84l-1.41-6.03c-.62-2.68-.55-5.84-4.28-7.11l4.95,13.62.74-.48ZM874.39,745.64l-1.66-25.09-4.95-31.52-9.4-41.29c-.31-1.38-3.83-2.77-5.13-2.71,2.42,8.35,4.01,16.07,5.81,24.26l3.44,15.59c4.68,21.19,6.56,42.2,7.25,64.22,1.53.02,4.73-2.09,4.64-3.46ZM1013.73,705.82c3.03.01,7.14,2.51,7.41,5.37.75,7.78-.7,15.01-1.15,22.67-.22,3.67-.11,7.46-2.68,10.2l-51.39-.53c-.33,1.74.84,2.63,2.24,2.63l39.66.1c6.86.02,13.33.91,20.06,2.25l.32,18.1c.96-1.75,1.32-3.58,1.4-5.54l.4-10.57,5.5-49.45,1-6.93c2.33-16.17,7.13-31.09,12.45-46.62l-6.23,1.66-6.88,26.64c-4.28,16.58-7.09,33.02-8.67,50.16l-1.45,15.68c-.14,1.53-1.39,2.92-3.35,3.01l3.17-31.39,10.35-48.24c1.13-5.25,2.26-10.07,4.8-15.45-12.8,1.91-24.78,2.66-37.58,2.6l-87.48-.41-27.94-.71c-9.05-.23-17.63-1.94-27.33-3.76l9.03,35.46c3.38,13.26,4.9,26.45,6.24,40.1l1.39,14.17.13,9.86,10.27-.79,9.28-.71,35.48.11,1.24-1.96c.22-.36-.51-1.03-.92-.93l-1.62.42-31.84.56-12.65-.17c-1.1-2.1-2.15-4.97-2.18-7.2l-.32-25.87c-4.37,9.48-2.42,18.78-2.35,28.28.01,1.95.66,3.95,1.61,5.88.2,1-4.04.86-4.31-.49-.8-4.09-.61-7.87-.52-11.76l.51-21.13c.08-3.41,5.56-5.78,8.86-5.78h33.86s7.05-.11,7.05-.11c-2.3-10.46-3.84-19.46-3.44-29.9,3.08-6.07,7.87-10.86,13.72-14.5,10.21-1.83,20.97-.93,29.39,5.23,3.2,2.34,6.88,6.46,7.33,10.33.66,5.65,1.01,11.42.07,16.91l-2.13,12.37,40.19.17ZM1047.59,866.39c1.18,4.81,3.51,8.67,6.93,12.25l-1.35-12.11.14-36.81.78-14.02,1.64-18.61c1.51-27.8,5.25-54.75,11.66-82.02l.92-14.63,2.63-30.36c.64-7.42,2.89-14.23,1.97-22.31l-10.04,22.98c-3.05,6.99-5.07,13.44-6.57,21.04-3.81,19.3-6.98,38.29-8.55,57.95l-1.4,17.49-1.65,27.57-.81,18.57v25.02c0,9.58,1.41,18.73,3.69,28.02ZM853.63,655.29l-.69.47,1.1,4.27.76-.47-1.17-4.26ZM855.35,659.98l-.75.39.6,4.39.15-4.78ZM962.72,691.58l1.65-23.33c-7.42-5.09-19.16-4.72-27.12-.21-.45,8.74-.23,16.83,1.19,25.35,8.39,3.48,23.94,2.97,24.27-1.8ZM934.88,689.75l-.35-20.4c-6.16,5.95-7.8,13.61-5.56,20.58l1.17-5.7c2.79,4.58-2.53,8.8.33,12.37l.71-3.6,3.19-2.69.52-.56ZM934.77,690.74l.76,5.76c6.69,6.75,17.11,8.38,25.56,3.62,1.72-.97,3.46-4.41,4.58-6.02.83,4.7-2.25,8.94-6.78,10.17-5.3,1.43-11.01,1.51-16.26,0-3.53-1.03-4.85-3.36-7.64-6.81l1.42,12.96c.55,5.08,1.17,9.49,2.76,14.19,1.29,3.78,1.99,5.76,6.65,6.34,3.69.46,8.59.78,12.23-1.11l7.71-17.08,2.48-15.67,1.22,6.97c3.44-10.26,5.34-23.14.29-31.93-1.67.75-3.41,1.21-3.44,2l-.15,3.76c-.21,5.25.63,11.41-2.24,15.92-3.58,5.6-18.16,5.73-25.82,1.74l-2.68-5.25-.62.46ZM1414.02,771.67c2.18,6.03,2.14,11.29,3.02,16.84,1.42,8.93,3.9,17.38,8.02,25.17l16.48,1.8,17.18,2.11-3.68-20.58-1.47-12.47-.06-31.9,5.11-36.69,3.19-23.96-11.05-1.17-6.05-.34c-1.54-.09-4.48-1.27-6.19-1.8-5.39,2.62-10.55,2.82-16.52,3.13l-10.81.57-47.34.31.42,19.28.63,11.81,1.79,24.72,3.27,28.8,3.24,19.14,3.15,13.99,44.7,3c-4.38-8.01-6.4-15.17-7.14-23.38-.56-6.24-1.13-12.27.1-18.39ZM483.1,800.06l24.27-1.72,18.07-1.34,7.23-40.1,6.09-40.78,1.59-14.93.47-7.82-11.76-.58-13.82-.11-.56,23.54-.14,23.67c-.02,3.5,2.24,9.09-1.47,11.32l-10.63,6.4c-3.55,2.14-6.56,4.22-10.67,5.98l-2.71,19.59-1.76,10.41c-1.61,2.1-3.32,3.78-4.21,6.46ZM1070.53,836.54l7.91-6.47c7.45-4.62,15.62-7.29,24.23-9.23,15.77-3.55,31.23-5.95,47.39-7.12l25.29-1.83,24.77-1.56,18.03-.74,22.51-.82,92.36-.02,20.18.86,19.64.4c-3.67-12.47-6.34-23.91-7.54-36.66l-5.02-53.09-.53-27.6-15.17.27-47.31.75-34.21.77-24.12.79-30.28.76-23.97.81-19.59.74-33.31,1.6c-11.41.55-22.65.05-33.88,2.8-5.91,1.45-13.37,2.82-18.07,6.75-6.82,5.69-9.93,15.14-11.28,23.6l-5.67,35.56-3.79,31.95-1.97,28.43-.15,38.49c1.86-11.47,5.22-21.96,13.55-30.19ZM742.19,696.79l-35.71-.41-4.12,27.33,15.5.27c3.16.06,7.92,1.5,10.11,3.49,2.91,2.65,2.49,7.07,1.94,10.32l-2.69,16.14c-1.04,6.21-5.06,11.98-10.94,14.59-5.95,2.64-12.26,1.28-18.52,1.2l-37.11-.45c-5.17-.06-9.83-3.9-11.78-8.26-3.36-7.54-3.19-15.25-3.31-23.35-.1-6.17,2.07-11.6,8.57-13.48,5.03-1.45,10.88-1.33,16.44-1.11l14.54.57,3.29-27.87-57.15-.51-47.22-.75-26.17-.71-12.01-.38-3.7,26.22-2.3,19.65-5.59,35.59-1.65,9.17-2.65,12.89,15.04-.58,23.37-.78h64.46s21.62.8,21.62.8l30.89,1.59,21.77,1.54,20.89,1.73,21.67,2.3,5.64-20.1,3.53-14.53,7.91-26.75,10.16-29.39,4.49-15.46-39.2-.52ZM933.8,698.5c.16-1.1-.8-3.71-1.24-4.43l.14,11.79,1.1-7.36ZM700.44,709.39l1.88-12.82-9.68-.27-3.41,27.42,9.91.03,1.31-14.37ZM861.89,701.97l.66-.43-.21-4.32-.66.43.21,4.32ZM834.13,854.78c1.31-3.24,2.35-6.47,2.6-10.24l2.83-42.36.67-14.05-.06-37.22-.65-9.45-2.35-24.53c-.36-3.8-3.62-8.5-6.48-11.13-6.26-5.75-15.77-7.87-23.85-6.88l-3.18.86.75,3.82,1.21-3,3.49,14.97-6.33.1-.52-14.44c-.02-.56,1.35-2.36.84-2.49l-2.49-.63-14.77-.12-7.29,21.88-9.95,30.35-8.33,28.03-6.51,25.58,11.37,1.83,31.46,5.59,3.28-24.6,6.73-38.86,1.94-15.98,1.15-11.56c4.07,3.83,4.3,8.79,3.46,13.85l-3.43,20.78-10.22,57.32c6.99,2.06,13.47,3.94,18.94,8.24,6.3,4.96,11.7,10.74,13.05,18.78l2.61,15.53ZM401.02,812.05l23.98-3.7c2.08-.32,5.44-.04,7.01-1.54,4.22-10.58,7.68-21.1,8.59-32.62,1.14-14.49,1.06-28.81-.35-43.13-.85-8.66-4.88-26.29-8.84-27.54-3.05-.97-8.9,5.63-10.6,13.75l-2.7,12.89c-2.36,11.26-5.01,21.95-8,33.07l-6.39,23.79-1.79,14.34-.92,10.69ZM496.62,712.07l.68-.42-.2-5.1-.68.42.2,5.1ZM1490.94,823.16l13.94,3.84-5.12-34.16-7.25-39.13-5.37-26.67c-1.56-7.76-6.42-21.92-10.97-20.44-.85.27-2.11,1.92-2.3,2.85l-4.73,22.39-1.94,11.29c-2.41,14-2.29,27.51,1.3,41.23l6.18,23.59,5.04,12.63,11.22,2.57ZM926.86,709.69c.43.24,1.83,1.03,1.94.61l.52-2.07-38.17-.16-1.44,1.59,37.15.02ZM1009.82,708.12l-37.76.05v1.44s45.1.21,45.1.21c-1.57-.85-4.53-1.71-7.34-1.71ZM863.45,713.62l.66-.43-.21-4.32-.66.43.21,4.32ZM1015.74,722.59l.47-10.31-37.19.06-7.35-.92-2,8.34c-1.84,7.69-7.85,10.67-3.01,21.07l48.53.02.55-18.26ZM919.37,740.37l15.46-.48c-.04-9.56-1.87-17.9-4.06-27.66l-43.35-.18c-1.05,6.8-1.05,12.89-.36,19.44l1,9.44,31.31-.55ZM495.07,719.06l.68-.42-.2-5.1-.68.42.2,5.1ZM864.99,727.6l.68-.42-.2-5.1-.68.42.2,5.1ZM1017.94,726.01h-.78v11.65h.78v-11.65ZM725.36,740.17c.35-2.68.84-5.8.08-8.56-.44-1.63-4.2-3.29-5.87-3.32l-21.41-.46-40.62-.24c-5.52-.03-7.57,4.86-7.48,9.19.26,11.57-.06,28.73,12.19,28.75l49.23.06c10.14.01,12.47-14.74,13.88-25.41ZM938.05,736.96c2.62-2.38,1.85-5.14-.1-6.37l.1,6.37ZM959.53,732.2c-6.4,2.66-11.74,2.07-18.85.05l1.52,8.76c.66,3.83.1,9.21,3.94,11.78,4.45,2.98,12.09-1.18,12.58-6.36-2.33-7.08,1.9-9.2.82-14.23ZM939.45,737.66h-1.55v3.39h1.55v-3.39ZM976.17,768.71c.8-7.19.53-12.91-6.61-14.83l4.24,6.06-2.78,1.2c-.88.38,1.03,7.87-2.96,18.22l-5.88,15.27c-1.06,2.75-.71,5.31,1.03,7.98.44.67.08,3.02-.71,2.88-3.95-.71-5.88-5.79-4.01-11.38l6.72-20.03c.85-2.54-.14-4.78-.39-7.18l-1.68-15.86c-.07-.7-1.88-2.23-2.27-1.82l-1.43,1.51c-3.4,3.59-8.18,7.07-13.26,4.98-7.04-2.91-4.32-12.94-8.05-14.28-1.38,7.62-1.98,14.59-4.56,21.51-1.38,3.7-2.41,7.12-1.88,11.3,1.43,11.3-.64,22.35.75,22.75l2.43.69c-1.73.76-3.45,3-4.32,4.98-.28.25-1.31-.36-1.35-.86l-.26-2.97c.82-.7-.19.09-1.16.87.05.88-.09,3.26-.76,3.33l-2.76.26c-3.4,2.74-5.33,6.79-6.05,11.22l4.95-.49,29.96.19,16.37.58c.83.03,2.78-.87,2.57-1.41l-.73-1.85c-1.5-3.81-3.22-6.67-2.19-11.42,1.9,1.64,2.45,3.33,3.55,6.26l.38-6.58,1.72-18.55,1.39-12.53ZM1026.27,751.04c-11.48-2.02-22.38-2.28-33.79-2.9-5.16-.28-9.98-.55-15.16,0l-8.21.89c4.96,4.3,11.51,6.33,13.15,12.59,2.16,8.22-.15,17.23-.75,25.71l-2.17,30.51c-.15,2.06-1.05,4.84-2.56,6.14l-17.53-.55-46.01-.66c-4.23-.06-2.91-6.53-2.8-9.17l.8-18.72,1.31-29.99c.14-3.24,4.17-7.54,6.58-9.18l11-7.5-36.34-.1-9.11.78c-3.96.34-8.32,1.29-11.61,2.93l-.81,11.75-1.76,10.66-3.5,35.72-.67,15.34c4.98,3.98,13.01,5.64,19.55,5.67l67.92.32,14.6.87,27.8.6,9.3-.02c6.69-.01,13.69-.67,18.41-6.27l.73-19.21.97-42.38c.11-4.69,1.47-8.88.67-13.81ZM931.55,757.95c1.41-3.83,1.95-6.19,2.07-9.79-3.14,3.04-4.11,6.54-2.07,9.79ZM870.4,757.13c.83-2.34,1.24-4.48.6-7.42-1.44,1.95-2.05,4.53-.6,7.42ZM929.5,752.52c-2.34.24-5.41,2.61-7.05,4.47,3.31-.4,5.95-.02,7.05-4.47ZM866.56,757.91l.66-.43-.21-4.32-.66.43.21,4.32ZM926.77,787.55l.41-26.45c.01-.88-.1-2.09-.39-2.64-.48-.89-5.66,1.32-7.62,4.05l.8,42.32c5.1-4.18,6.7-10.55,6.8-17.28ZM913.8,816.17c3.23-4.17,4.02-7.27,3.18-10.98l-.08-40.27.73-3.95-2.18,2.63-.27,23.02-.9,19.42-.47,10.14ZM977.9,787.32l2.32-18.64c.28-2.25-.19-5.03-.86-7.18-2.3,5.91-2.3,11.4-1.95,17.34l.49,8.47ZM867.17,762.53h-.78v13.21h.78v-13.21ZM1029.14,845.79c.89-3.06-.12-6.21-.11-9.53l.12-28.29.91-15.45.02-15.29-1.77,17.94-.53,28.52.08,7.17c.06,5.11-.25,9.89,1.29,14.93ZM974.39,809.96l2.34,7.87.81-29.77c-1.39.92-1.65,2.23-1.57,3.98.29,6.09-.52,12.02-1.58,17.92ZM864.06,802.15h-.78v6.99h.78v-6.99ZM862.51,816.14h-.78v8.55h.78v-8.55ZM915.36,816.91v3.07s57.49.12,57.49.12v-3.07s-57.49-.12-57.49-.12ZM1024.49,830.99c-6.1,1.89-10.52,3.81-15.95,4.56l-42.66-.7-10.23-.66-65.12-.27c-8.25-.03-16.15-.9-23.34-4.56-.64-.33-2.22-1.15-2.43-.61l-.65,1.61c-.85,2.12,15.18,6.44,24.84,6.56l46.13.58,45.94.77,23.38.11c7.2.03,15.76-1.42,20.07-7.39ZM986.88,844.36l13.99.56c5.19.21,10.82.85,14.14,5.28l2.35,5.87,11.48,2.15c-2.28-7.81-3.59-15.29-4.32-23.2-6.13,3.08-11.82,5.98-18.23,5.93l-44.75-.35-32.56-.69-44.46-.74c-7.67-.13-13.92-2.73-21.14-5.47l-1.89,5.58-4.13,16.86,10.71-1.84c.99-4.05,2.58-8.07,6.08-10.09,4.06-2.33,8.85-1.88,13.29-.86,2.05.47,4.09.28,6.21.23l28.44-.62,21.46.02,26.98.63,16.34.75ZM981.46,851.56c5.55.59,10.26.27,13.61-4.2l-34.95-1.4-41.03-.58-23.75.05-4.95-.16,6.34,5.34,23.01-.61,31.66-.02,21.45.65,8.62.92ZM892.08,851.4c-3.31-3.73-6.59-4.59-10.06-5.14-4.7-.46-8.72,1.76-9.64,6.63l19.69-1.49ZM1029.76,851.92l.66-.43-.21-4.32-.66.43.21,4.32ZM1013.62,855.34c-.71-5.02-4-5.47-7.1-6.09-4.3-1.18-8.74-.57-11.65,3.85l18.75,2.24Z"/><path d="M1023.32,417.93l-19.36-.62c-10.65-.34-20.42-1.3-31.13-1.29l-59,.11-26.64.59-18.5,1.19c-4.37.28-8.28,1.52-12.99.68,2.02-1.18,3.9-1.27,5.96-1.33l-.73-3.73,29.9-2.53,30.36-1.55,61.36-.04,16.41.75,17.79.88c20.92,1.03,41.5,3.85,61.23,10.77l11.3,4.85c-4.06.84-6.57-1.07-9.77-1.53l-27.67-4-14.46-1.74-14.06-1.46ZM1043.1,417.54c3.86,1.15,7.48,2.46,10.98.81l-20.62-3.22-20.94-1.53-22.54-.88-21.79-.64-46.68.04-1.45,1.49,50.45.4,20.29.77,10.81.35c7.99.26,15.35,1.79,23.42.74,5.88,1.53,11.64,2.17,18.08,1.67ZM893.59,413.67v.78h20.59v-.78h-20.59ZM874.94,415.22v1.03h6.61v-1.03h-6.61Z"/><path d="M1114.8,548.13l-22.88,7.85c2.43-2.43,5.64-4.35,9.15-5.72,15.07-5.89,30.61-8.91,46.7-10.7l9.97-1.11,14.12-1.44,21.35-1.77,21.68-1.51,27.21-1.56,25.72-.8,13.89-.81,19.54-.71,13.1-.82,27.39-.73,53.35-1.58,22.33-.65,9.41.64c-2.97.97-6,1.71-8.82,1.82l-35.32,1.29-57.4,1.51-26.21.99-12.2.74-21.77.9-11.72.59-16.78.67-27.17,1.54-21.66,1.58-20.59,1.74-16.36,1.62c-12.19,1.21-23.94,3.3-36.03,6.42Z"/><path d="M1451.99,525.4c-9.86.35-18.73.21-27.92-1.11-6.26-.9-13.1-5.88-11.82-12.52l1.37-7.1c2.03-10.5,19.02-32.41,26.84-35.41,6.24-2.39,13-3.9,19.83-4.08l20.73-.54c6.15-.16,12.59-.42,17.39,4,8.1,7.47,10.92,18.07,11.64,28.96.41,6.21,1.06,11.96-.84,18.01-1.19,3.77-4.61,7.09-8.84,7.39l-19.49,1.37-28.88,1.02ZM1470.98,521.94c10.45-.52,20.4-.45,30.65-2.24,9.07-1.58,5.72-27.52,1.83-38.33l-3.55-6.55c-1.91-3.52-5.87-7.46-10.29-7.43l-27.63.18c-7.18.05-13.93,1.64-20.44,4.37-4.27,1.79-6.84,4.93-9.8,8.16-6.67,7.25-12.15,14.73-15.52,24.22-.99,2.79-2.69,7.12-1.62,10.03,1.98,5.41,7.89,8.33,13.38,8.35l26.1.1,16.88-.84Z"/><path d="M1394.85,469.21c-7.3.93-14.09.28-21.36,0l-39.54-1.59-27.21-.82-17.93-.72-31.8-.79-19.48-.76-31.21-.77-37.62-1.32-17.16-1.84,32.24-.68,24.89.84,33.49.73,21.68.82,28.07.76,17.01.77,24.99.75,30.09,1.64c10.45.57,20.52.24,30.86,3Z"/><polygon points="1420.85 426.36 1409.57 425.03 1397.72 423.56 1392.67 422.57 1383.9 420.8 1394.79 421.38 1413.7 424.21 1421.28 425.59 1421.68 425.97 1426.07 426.57 1421.29 426.72 1420.85 426.36"/><path d="M1231.63,642.54l-50.34.33c-1.31,0-3.46-1.2-4.19-2.06s-1.25-3.71-1-4.92c3.57-16.97,9.2-23.64,26.74-24.93l7.15-.53,44.05-.23c1.48.72,3.14,1.53,3.95,2.22,3.39,2.92-4.88,19.29-12.79,26.23-3.11,2.73-8.91,3.86-13.57,3.89ZM1185.54,632.27l34.75-.65,17.51-.84c9.92-.48,18.37-6.7,17.02-17.38l-53.78,1.01c-10.77.2-18.25,6.85-21.01,17.65,1.75.4,3.48.25,5.5.21ZM1181.98,640.45l51.5-.89c5.86-.61,11.14-2.63,13.66-7.72l-16.83,2.08-20,.72-29.7.59c-.87.02-2.26,2.53-1.59,3.03l2.96,2.19Z"/><path d="M847.83,527.88c-8.37-.79-15.94-.95-24.24-.14-4.83.47-9.84-2.47-9.82-7.88l.1-29.05c.03-8.1,2.6-15.56,4.45-23.39.92-3.87,2.02-7.76,4.72-11.09,6.94-8.58,18.66-12.87,29.5-11.99,3.65.3,4.47,2.92,4.55,5.79l.42,15.57v34.23s-.68,15.55-.68,15.55l-.92,8.41c-.36,3.25-5.36,4.24-8.09,3.98ZM851.49,451.06c.37,0,2.06-1.17,1.83-1.3-3.49-2.16-12.79-2.12-14.72,1.02l12.89.29ZM853.41,455.93c-.61-1.87-1.63-2.63-2.48-2.63l-14.95-.1c-2.23-.02-4.21.44-5.71,2.66l23.14.08ZM851.03,459.61l-21.41.19-3.71.03c-.66,0-.82,2.04-.59,2.84l26.15.04c.6,0,2.22-1.54,1.79-1.95-.32-.3-1.77-1.16-2.23-1.15ZM850.89,469.63c.45-.11,2.2-1.53,1.76-1.94s-1.62-.89-2.34-.89h-26.4c-.67-.01-2.42,1.11-1.95,1.5l1.66,1.34h27.26ZM850.93,475.82c.6-.16,1.6-1.72,1.4-2.35l-30.24-.08c-.75.63-1.31,1.46-1.63,2.42l30.47.02ZM852.84,481.02l-31.42-.64c-.48,0-1.51.27-1.86.41s-.25,1.44.09,1.6l1.73.81c10.45-2.43,20.56.32,31.46-2.18ZM850.56,489.11c1.05-.34,1.84-1.38,1.89-2.46l-31.92.06c-.46.13-2.15,1.51-1.66,1.85l1.68,1.16,30.02-.61ZM850.84,497.72c.7-.4,1.96-1.62,1.4-1.8l-2.13-.69-29.99-.49c-.3.07-2.04.52-1.82.85l1.29,1.97,31.25.16ZM852.13,503.87c.64-1.71-.11-2.54-1.29-2.51l-30.5.18-1.92.52c-.3.08.29,1.67.59,1.84l33.12-.04ZM851.15,510.79c.57-.44,1.74-1.64,1.37-1.9l-1.69-1.21-30.82.08c-.66.24-2.38,1.35-1.91,1.73l1.67,1.33,31.38-.03ZM851.12,517.15c.77-.8,1.41-1.5,1.06-1.7l-1.39-.8-30.98.02c-.28.09-1.96.93-1.62,1.19l1.62,1.25,31.31.05ZM851.41,523.52c.28-1.05-.52-2.67-1.24-2.67l-30.63-.06c-.02,1.23,1.32,2.65,2.42,2.65l29.45.07Z"/><path d="M1031.83,557.68l-15.78.96-117.65.08-13.7-.97c-10.87-.77-20.2-2.29-20.49-13.49l-.48-19.13v-48.1s.38-18.36.38-18.36c.18-8.58,6.06-15.78,15.18-15.89l63.48-.79,25.81.09,41.99.73,20.16.81c3.09.12,7.02.43,9.71,2.05,3.94,2.37,7.7,7.45,7.67,12.25l-.3,44.64-.59,37.73-.91,8.43c-.67,6.25-8.56,8.62-14.48,8.98ZM951.1,444.74v.78h9.71v-.78h-9.71ZM1036.18,553.72c4.85-.56,7.36-4.53,7.39-8.75l.45-56.97.08-30.34c.02-7.36-6.31-10.47-12.91-10.71l-13.97-.49-22.92-.6-27.08-.45c-2.37,3.87-6.41,3.96-10.67,4.02-4.79.07-9.08-.39-12.34-3.99l-47.29.37-14.41.2c-5.02.07-13.13,2.02-13.45,8.26l-.85,16.53-.27,75.68c-.02,6.02,8.5,7.37,15.56,7.94l15.04,1.22,106.51-.1,21.26-.69,9.86-1.13Z"/><path d="M831.64,545.94c-1.4-.75-4.54-2.5-5.58-3.88l-5.81-7.69c1.62-.35,3.42.28,5.33,1.28,1.15.61,3.66-2.5,3.33-3.12l-2.81-2.94c11.25-.19,28.03-.3,28.52,7.27.16,2.57-1.57,6.4-4.6,6.42l-18.07.13-.29,2.54ZM844.34,539.72c2.38-1.94,3.3-1.79,6.04-2.11-.52-1.73-3.3-4.15-5.96-3.6l-14.41,3.01c-.45.09-1.15,1.85-.74,1.98l1.88.6,13.19.13Z"/><path d="M1077.52,545.86l-13.96-.03c-1.52,0-4.35-1.5-5.94-2.53l.08-11.33,6.26.31,16.12.45c1.26.04,3.64,1.26,4.39,2.21.94,1.19,1.12,3.88.52,5.47-1.17,3.14-3.83,5.47-7.47,5.46ZM1079.88,540.82c.79,0,2.56-2.79,1.91-3.18-.52-.32-2.1-1.29-2.77-1.29l-17.15.06c-.9,0-1.66,2.74-1.04,3.18.5.36,1.95,1.37,2.73,1.37l16.31-.14Z"/><path d="M1021.28,674.91c0,8.33-6.76,15.09-15.09,15.09s-15.09-6.75-15.09-15.09,6.76-15.09,15.09-15.09,15.09,6.75,15.09,15.09ZM1010.33,662.83l-1.77,6.9c-.12.46-2.1.46-2.36.06s-.67-1.65-.56-2.14l1.4-6.05-5.58,1.47c-5.76,1.51-9.81,11.24-6.14,18.16,1.64,3.1,5.24,5.28,9.41,5.93,6.41,1.01,11.52-2.86,12.86-8.96,1.39-6.34-.76-13.54-7.26-15.38Z"/><path d="M908.06,686.46c-5.11,4.1-11.2,5.04-17.26,2.54-4.85-2-9.44-7.1-9.31-13.57.15-7.59,6.35-13.11,13.37-14.69,7.1-1.6,14.77,2.29,18.07,9.42,2.62,5.66.13,12.28-4.87,16.29ZM903.55,685.86c5.67-2.68,9.04-8.8,6.7-14.76-2.34-5.95-9.16-9.05-15.05-7.64-5.84,1.4-11.3,6.14-10.96,12.76.24,4.69,3.76,7.91,6.82,9.47,4.15,2.12,8.19,2.21,12.49.18Z"/><path d="M908.42,608.53c-.72,6.73-5,12.49-10.55,16.24-8.49,5.74-19.52,3.87-27.78-1.83-5.69-3.93-9.56-9.65-9.84-16.28-.3-7,3.22-13.47,9.06-17.63,10.78-7.68,23.89-7.34,33.09,2.28,4.46,4.66,6.83,9.76,6.03,17.22ZM897.83,614.46c4-5.85,3.28-11.87.26-17.27-4.19-7.46-17.04-9.26-24.7-2.47-3.15,2.79-5.57,6.52-5.53,10.45.04,4.15,1.84,7.42,4.89,10.44,6.97,6.9,19.33,7.27,25.08-1.15ZM898.91,619.48c2.98-3.16,4.55-6.07,5.53-10.19.59-2.46,1.84-5.31-.56-6.94-.21,3.22.05,7.23-1.41,9.71-5.73,9.73-11.39,11.85-23.03,11.54,5.55,2.86,14.61,1.03,19.46-4.13Z"/><path d="M1039.75,617l-3.53,5.37c-11.82,10.3-31.31,8.02-39.09-5.75-3.5-6.2-3.08-14.32-.02-20.49,4.79-9.66,16.85-13.79,26.9-11.62,5.89,1.28,10.5,3.58,13.86,8.09,5.43,7.27,7.23,16.27,1.88,24.4ZM1034.6,605.75c0-8.65-7.02-15.67-15.67-15.67s-15.67,7.02-15.67,15.67,7.02,15.67,15.67,15.67,15.67-7.02,15.67-15.67ZM1021.45,623.67c-11.74.86-22.13-7.14-22.13-18.87l.43-5.67c-4.46,8.48-1.01,17.14,6.47,22.38,9.41,6.58,25.13,4.3,30.58-7.11-4.5,4.24-8.24,8.76-15.36,9.28ZM1038.92,602.47h-.78v6.99h.78v-6.99Z"/><path d="M989.58,616.01c1.27,3.28.32,7.02-1.8,9.39-4.62,5.15-13.09,5.23-17.8-.47-2.12-2.57-2.55-6.97-.97-9.89,2.31-4.25,6.18-5.83,10.46-5.77,4.06.06,8.37,2.25,10.11,6.74ZM979.86,625.21c3.83-.45,6.11-3.3,5.72-6.81-.34-3.02-2.97-5.27-6.52-5.28-3.94-.01-6.79,3.24-6.32,6.83.42,3.26,3.47,5.69,7.13,5.26Z"/><path d="M961.04,614.58c3.27,3.45,1.59,8.47-.74,11.37-2.63,3.29-6.67,4.12-10.94,3.15-4.43-1.01-7.9-4.32-8.43-8.45-.58-4.57,2.09-9,6.93-10.67,2.25-.77,5.78-.68,8.48-.34l4.69,4.95ZM956.06,614.04c-.95-.6-3.66-.93-4.82-.81-3.71.39-6.31,3.59-5.96,6.46.41,3.35,2.99,5.61,6.66,5.57,1.4-.02,3.84-.43,4.67-1.2,2.42-2.25,1.63-8.65-.55-10.02Z"/><path d="M947.88,604.68c-3.16-1.2-5.23-3.02-6.1-5.06-1.31-3.05-1.02-6.18.92-8.58,3.5-4.31,9.18-6.34,14.08-3.97,4.21,2.04,8.4,7.58,6.2,12.65-2.4,5.52-9.68,7.01-15.1,4.96ZM956.91,600.39c3.21-2.76,1.8-6.82-.13-8.84-2.14-2.24-5.94-2.04-8.33-.64s-4.07,5.09-2.12,7.94,7.82,3.92,10.58,1.54Z"/><path d="M984.48,604.82c-5.9,2.32-13.88-.57-15.75-5.74-.95-2.61-.19-5.57,1.51-7.75,2.46-3.16,6.14-5.02,9.79-4.86,3.75.16,7.57,2.09,9.33,5.58,2.56,5.07.41,10.69-4.87,12.77ZM985.86,597.22c.76-4.3-3.05-6.85-6.51-6.91-3.15-.06-6.82,2.79-6.38,6.63.38,3.28,3.76,4.7,6.55,4.88,2.49.16,5.77-1.32,6.34-4.6Z"/><path d="M932.69,611.05c3.92,2.79,5.04,7.37,3.6,11.15s-5.3,6.19-9.46,6.26c-4.59.08-8.54-1.68-10.36-5.15-2.14-4.08-1.68-9.09,2.12-12.39,3.59-3.12,10-2.79,14.1.13ZM932.38,617.4c-.96-3.13-3.97-4.77-6.57-4.96-3.04-.23-6,1.04-7.23,4.39-.64,1.75.41,4.92,1.77,5.92,3.35,2.47,8.86,2.18,11.03-.05.91-.93,1.41-3.92.99-5.29Z"/><path d="M935.83,599.99c-3.33,5.73-10.54,6.76-16.14,4.07-5.41-2.6-5.79-10.2-1.87-14.91,2.24-2.69,6.22-3.39,10.06-2.77,7.01,1.13,10.56,9.13,7.96,13.61ZM932.4,595.35c-.77-3.86-4.04-5.16-6.61-5.43-2.91-.3-6,1.06-7.3,4.16-.5,1.2-.06,4.48.89,5.34,2.66,2.41,7.19,2.89,10.66,1.2,1.3-.63,2.71-3.5,2.36-5.28Z"/><path d="M1005.16,824.08c-6.86-.33-12.62-.17-18.28-3.23-.28-8.4.67-16.01,1.52-24.15l3.25-31.1c.19-1.81.45-2.85,1.25-4.87l-6.93-1.92c-.53-.15-1.44-1.02-1.6-1.48-.21-.61,1.46-1,2.22-.87l17.72,2.82c3.34.53,7.91,2.32,10.67,3.52,5.43,2.37,4.43,6.39,4.09,10.74l-1.63,20.84-1.74,21.71c-.44,5.48-5.06,8.24-10.54,7.98ZM1011.19,820.85l3.35-19.15,1.19-16.66,1.12-18.1c-7.22-3.83-14.33-5.5-22.34-6.21l-1.49,24.28-1.29,10.96-1.3,11.5-.42,11.52c7.59,1.21,13.4,1.87,21.18,1.84Z"/><path d="M894.15,802.56l-14.5.28c-1.08.02-3.44-1.51-3.44-2.54v-4.51s1.45-29.64,1.45-29.64c.07-1.44,1.41-4.68,2.74-5.11,6.51-2.08,13.32-3.04,20.17-3.31,1.98-.08,3.89,2.23,3.65,4.1l-2.94,23.19-.57,9.41c-.23,3.83-1.3,8.03-6.58,8.13ZM888.14,769.44c4.22-.57,7.29-.55,12.11-.31l1.07-8.09-7.02.39c-4.42.24-8.24,1.08-12.49,2.41l-1.67,6.68,8-1.08ZM898.01,785.65l.26-13.76-18.3,1.86-1.43,12.78,19.47-.88ZM897.59,798.4l.63-9.68-19.28,1.12v9.95c6.82.17,11.99-.31,18.65-1.39Z"/><path d="M947.28,765.83l-4.32,34.53.36,2.2c.08.5-1.87.84-2.05.37l-.91-2.35,4.12-28.8c.46-4.8-.46-9.28,2.99-13.98l.59,7.37.35.47,1.04-6.99c2.62,4.65.43,8.81.4,13.31l-.09,17.02c-.02,3.79.9,8.12-.13,11.46l-.69,2.23c-.13.41-1.35.02-1.36-.41l-.06-1.92.07-17.78.09-15.67-.4-1.05Z"/><rect x="967.42" y="682.5" width="1.55" height="7.38"/><path d="M809.31,573.27c-1.34,4.28-5.84,6.46-10.11,7.18-6.61,1.11-14.04-1.46-18.13-6.65-3.35-4.26-3.64-9.46-1.19-13.72,2.53-4.39,7.15-6.33,12.81-5.93,8.84.62,19.65,9.46,16.62,19.13ZM798.84,575.33c2.34-.29,5.05-2.46,5.28-4.5.24-2.19-.83-4.67-2.28-6.3-3.65-4.12-8.61-6.41-13.93-3.85-1.4.67-3.32,3.02-3.64,4.42-1.05,4.53,5.66,11.33,14.57,10.23Z"/><path d="M1474.08,518.9l-45.76.3c-2.76.02-7.31-1.38-8.81-3.36-2-2.65-.3-6.59.6-9.23,2.91-8.47,7.4-15.28,12.78-22.28,6.12-7.97,15.92-14.14,25.76-14.29l15.52-.24c14.33-.22,21.82.5,26.24,14.62,2.41,7.69,2.47,15.27,2.58,23.29.07,5.06-2.61,9.02-7.97,9.46l-20.96,1.73ZM1497.64,493.42l.13,20.48c4.53-4.91,2.38-10.21,2.19-15.63-.29-8.25-1.45-18.12-8.62-23.45-12.51-2.97-25.7-2.46-38.57-1.04-1.64.18-3.51,1.5-4.53,2.56l4.16-.35,28.74.02,9.83,1.24c2.54.32,4.42,5.2,4.92,7.64l1.75,8.53ZM1492.43,483.59l.02-.91-37.8.22.43.69h37.35ZM1438.12,490l25.35-.6,20.65-.65,10.37-.75c-1.14-1.26-2.3-.8-4.21-.75l-23.66.59-16-.1-11.72-.13c-.56,0-1.88.85-2.26,1.1-.25.17,1.15,1.31,1.49,1.3ZM1433.67,493.27l-1.39-2.36-5.32,9.1,4.34-.85c-1.04-1.77-1.46-3-.84-3.46l2.65-1.97.55-.45ZM1478.08,493.64l17.03.24c.1-1.42-1.17-2.74-2.1-2.66l-13.75,1.13-1.18,1.29ZM1433.72,494.25c0,.11,1.9,1.12,2.49,1.11l15.79-.12c.42,0,2.1-1.29,1.95-1.27l-9.87-.8c-3.39-.27-6.81-.17-9.9.19l-.47.88ZM1473.61,497.68c1.67,0,3.79-1.76,3.32-2.72-7.26-2.9-20.8-2.5-21.5,1.38-.08.43,1.37,1.36,1.93,1.36l16.26-.02ZM1495.17,500.67l-.43-1.56-14.4.04c-.98,0-3.14.94-4.03,1.46l18.86.06ZM1457.02,502.12c-.86-.46-3.47-1.41-4.7-1.41h-17.89s1.76,1.62,1.76,1.62l20.82-.2ZM1485.16,506.18c3.5-.41,6.44-.75,9.9-1.67-6.14-1.47-11.23-.41-17.08.01l-7.84.56-14.71.4.41.62,29.31.07ZM1435.33,507.2c-3.33-4.38-7.55-2.46-9.52.43l9.52-.43ZM1445.15,507.41c-2.39-2.41-5.4-1.86-6.88.22l6.88-.22ZM1483.09,510.2l10.79.11.5-1.07-19.53.1-6.99,1.23,15.23-.37ZM1443.74,511.38l-13.22-1.4c-1.49-.16-3.01.26-3.96,1.55l17.18-.15ZM1486.89,513.19l-36.1,1.13-25.56.44-3.72-2.83c-1.2,2.44,1.32,4.08,3.19,4.11l19.92.29c17.29.26,33.99.2,51.33-1.95-2.58-.98-5.54-1.3-9.06-1.19Z"/><path d="M1020.25,534.02l-126.55.08c-4.36,0-6.24-3.01-6.36-7l-.44-15.5.02-47.77c0-4.3,2.25-11.13,7.5-11.13l124.16-.06c4.07,0,8.58,3.52,8.58,7.69l.09,65.2c0,4.36-2.04,7.3-7,8.49ZM1022.64,456.34l-131.39.02v73.94s131.41-.02,131.41-.02v-73.94Z"/><path d="M1017.01,542.11c1.88,2.62,2.14,5,1.02,7.2-.77,1.49-3.56,3.19-5.83,3.19h-28.34c-3.38,0-4.29-5.32-3.71-7.49.78-2.97,3.18-5.38,6.77-5.39l24.84-.06c1.48,0,4.42,1.4,5.25,2.55ZM1012.21,548.87c1.24-.06,4.02-1.75,3.35-2.48l-2.74-3.01-26.84-.2c-1.02.94-2.09,2.53-2.22,3.55-.11.87,1.5,2.94,2.39,2.93l13.79-.24,12.27-.55Z"/><path d="M932.16,547.8c-.17,2.86-3.96,4.98-6.64,4.97l-27.15-.15c-3.26-.02-4.87-3.97-4.89-6.5-.02-2.13,2.1-6.19,5.12-6.2l15.87-.06,9.51.45c4.05.19,8.49,2.24,8.17,7.49ZM921.55,543.37h-22.45c-1.22,0-2.68,2.41-2.4,3.41s2.03,2.91,3.12,2.9l25.2-.1c1.06,0,2.95-1.36,3.34-2.12.83-1.61-2.17-4.09-6.8-4.09Z"/><path d="M968.44,552.69l-24.45.1c-1.42,0-4.13-2.6-4.36-4.05-.69-4.44,3.02-8.43,7.56-8.43l16.39-.03c4.15,0,8,2.41,9.16,6.34.8,2.7-.72,6.06-4.29,6.08ZM967.46,549.64c.44-3.71-1.85-5.76-4.58-5.76h-15.03c-.83,0-2.39,1.29-2.81,1.96s-.13,2.44.29,3.8h22.13Z"/><path d="M882.03,618.07c-6.29-.79-12.16-7.39-11.25-13.45,1.44-9.61,10.89-13.88,19.02-11.01,5.99,2.12,8.96,6.32,8.5,12.95-.53,7.68-7.46,12.62-16.27,11.51ZM884.79,615.12c4.12-.16,7.82-2.28,9.51-5.71,1.56-3.15,1.15-6.68-.76-9.55-1.55-2.33-5.15-3.63-8.45-3.76-4.33-.17-7.67,1.51-9.53,5-1.84,3.44-1.17,6.91,1.26,10.37,1.75,2.5,4,3.81,7.97,3.65Z"/><path d="M1031.95,610.15c-2.11,5.1-8.01,8.28-13.37,8.34-6.67.08-12.84-5.63-13.51-12.3-.45-4.44,2.96-8.79,5.7-10.62,4.49-2.99,8.99-2.94,13.97-1.25,5.89,2,9.94,9.21,7.21,15.82ZM1028.58,610.06c2.22-3,1.51-8.7-1.57-11.21-4.36-3.55-11.37-3.71-15.5.34-2.63,2.59-2.99,7.89-1.37,10.97,1.89,3.61,5.54,5.04,8.96,5.04s6.74-1.45,9.48-5.14Z"/><path d="M995.17,787.26l.34,7.82,11.31.92.34-8.43-11.72-1.06.91-16.92,9.26,1.43c1.32.2,2.71.45,3.86.06-1.46-2.75-3.38-4.62-5.57-6.16,11.67-.34,7.36,14.62,6.41,29.43l-.81,12.52c-.13,1.97-.52,7.09-3.34,6.72l-12.96-1.67.07-9.71,1.89-14.96ZM1007.76,784.38l.78-9.68-11.43-1.76-.34,11,11,.44ZM1005.31,810.19l1.24-11.12-11.83-.04-.26,10.29,10.85.87Z"/><path d="M892.52,780.65c-.59,1.9-3.76,2.97-5.46,2.47-.89-.26-2.23-1.22-2.54-1.88-.37-.79.24-2.84.91-3.42,1.29-1.12,3.19-1.98,4.3-1.76,1.41.29,3.35,2.77,2.78,4.59Z"/><path d="M252.98,816.43l27.17-21.54,9.34-8.54,11.36-9.58,9.24-8.65,12.3-11.07,18.82-19.16,1.95-3.08,13.73-17.02,6.6-11.37c5.76-9.93,10.06-19.85,12.32-31.23,1.12-5.62,3.32-11.75,1.34-17.39l-2.35-6.72c-.19-.55-1.05-2.02-1.62-1.97-.71.07-1.52,1.1-2.28,1.91l-9.47,10.08-18.25,14.2-12.08,8.94-9.85,7.95-19.37,14.94-19.54,14.63-28.23,20.46c-.73-.69-.85-2.96-.19-3.62l3.17-3.15c2.25-1.01,3.98-2.56,6.13-4.12l19.36-14.04,17.71-12.99c-16.29,3.03-31.56,1.87-46.01-4.86l-1.85-5.15,5.78-7.15c1.75-.22,3.91,2.08,5.41,2.77,8.96,4.11,19.17,4.37,28.65,2.17l10.96-7.76c5.01-3.55,11.02-5.26,16.03-8.87l8.38-6.04-6.92-6.68,18.49-11.57c9.22-5.77,19.37-7.93,30.43-6.15-5.13-11.03-11.96-19.32-20.32-26.75l-8.24-7.32c-4.77-4.23-11.66-6-17.98-7.66-7.87-2.06-16.39-.94-24.18,1.27l-23.05,6.54-20.41,6.86c-.66.22-2.68-.51-2.33-1.01s1.18-1.41,1.69-1.86l32.57-11.07,19.72-4.27c9.54-2.07,25.45,2.02,33.18,7.45,7.8,5.49,14.93,11.9,20.96,19.28l10.69,15.35c.44.64-.22,3.31.33,3.61l2.81,1.5c6.26,7.46,6.75,16.89,4.17,26.43,10.18-5.88,19.57,4.7,24.23,14.32,1.43,2.95,3.32,6.3,3.5,9.63.7,12.97-1.59,25.25-3.9,37.92l-1.82,10-5.74,20.43c-3.06,10.88-11.69,30.86-18.84,37.15l-14.91,13.12-19.76,12.8-17.85,10.92-21.89,13.9-22.82,14.35-22.36,13.58c-.72.43-2.61.27-3.23-.26s.04-2.56.76-3.01l8.2-5.1,19.25-11.78,16.3-10.28,20.41-12.95,22.62-13.9,11.97-7.37c3.92-2.41,7.3-4.94,10.67-7.92,6.92-6.12,13.81-12.02,17.71-20.42,5.74-12.38,10.42-24.49,13.69-37.67l5.69-22.97,1.58-16.61c1.47-15.45.64-22.81-11.23-34.01-3.56-3.85-9.63-3.99-12.82.18-1.67,9.04-4.69,17.13-9.09,25.04l-7.59,13.63c-3.9,7.01-9.54,12.98-14.66,19.33l-5.58,6.93-11.13,11.26-9.44,9.14-19.19,17.47-21.09,18.6-24.79,19.41-1.83,1.19c-.53.34-1.18-1.83-1.26-2.95ZM304.24,687.48c-3.25,1.79-6.2,5.3-9.26,7.39-10.29,2.66-21.57,2.36-31.48-1.7l-4.64-2.43-4.64,6.57c10.75,3.79,23.48,7.19,34.01,5.68l8.85-1.27c4.79-.69,9-2.22,12.87-5.22l13.18-10.22c5.24-4.06,10.93-7.58,16.22-11.72l20.94-16.38c3.1-2.42,5.67-5.76,8.59-9.34-10.72-2.15-20.33.6-29.15,5.82l-13.26,7.85c3.69,5.77,11.87,8.99,6.93,13.23l-10.88,9.34c-6.18,5.31-13.86,8.49-21.28,11.92l-2.53,1.17c-.42.2-.6-2.59-.25-2.9,8-6.88,18.49-7.94,24.79-13.4l6.93-6.01c.5-.43,1.29-1.94,1.58-2.44s-1.37-2.08-1.92-1.95l-9.06,6.88-16.57,9.14Z"/><path d="M319.98,516.84c8.86-4.28,23.44-10.89,30.78-9.93.51.07.38,1.63.23,2.3-5.07.52-10.75,1.11-15.18,4.34l-.39,18.2c-.31,14.2-11.64,25.85-8.43,33.65,11.76-3.04,19.04-12.23,22.11-23.44,3.07-11.24,5.56-22.4,6.9-34.04-2.66-3.64-7.77-4.6-11.7-3.32-7.12,2.32-13.91,4.32-20.6,7.54l-40.86,19.63-17.31,9.22-10.79,5.97c-1.5-1.82-.02-3.25,1.64-4.24l7.73-4.64,19.88-10.6c14.18-7.56,28.87-13.38,43.66-19.9,9.94-4.38,22.67-9.35,28.68-3.28,2.57,2.59,2.73,6.01,2.07,9.67l-1.3,7.23c-1.92,10.63-4.04,20.88-8.14,30.9l-4.04,6.83c-2.17,3.66-5.35,6.18-9.62,7.5l-8.72,2.69c-9.45,2.91-18.77,4.55-28.1,7.76l-15.13,5.22c-6.82,2.35-16.49,6.12-19.87,2.78-4.82-4.75.89-24.8,6.24-34.27,6.71-11.86,17.36-17.88,29.32-23.65l20.97-10.12ZM282.8,579.25l26.89-8.8,15.2-3.56c-4.92-9.33,7.29-19.5,7.45-35.07l.18-17.47-12.87,6.07c-16.05,7.57-39.29,16.9-47.41,31.87-4.23,7.81-10.2,25.74-7.81,29.37.68,1.04,3.79,2.05,5.03,1.67l13.34-4.07Z"/><path d="M255.91,772.63c-.72,0-2.42-.23-2.36-.64l.29-1.89,23.6-18.32,5.06-4.34,19.59-16.82,12.16-10.48,26.53-23.19,6.91-7.01c4.66-4.72,9.59-9.14,13.74-14.1l7.47-8.93c3.41-4.07,5.32-7.49,4.92-13.39,2.22,6.15.39,11.32-3.59,16.24l-9.37,11.58-12.78,12.79-6.35,6.24-16.96,14.84-19.89,17.37-13.31,11.52-9.36,7.87-26.29,20.66Z"/><path d="M276.56,577.45c-1.65.5-4.42-.47-5.27-1.39s-1.14-3.69-.7-5.1c4.65-14.77,6.74-24.72,21-33.41l11.69-7.12c5.84-3.56,12.34-5.59,18.9-8.24,1.36-.55,4.25-.74,5.25.05,4.8,3.77-1.34,17.65-3.64,27-2.75,11.2-10.17,16.88-20.74,20.11l-26.49,8.1ZM273.88,571.49l12.83-3.92c9-2.75,18.13-4.19,26.79-8.3,8.05-3.81,11.39-22.75,13.11-33.78.12-.8-1.89-2.55-2.49-2.17-1.27,10.53-2.79,20.96-9.46,29.53-6.12,3.99-17.3,8.04-22.11,5.59-4.13-2.1-5.69-6.54-9.02-10.21-4.59,7.45-7.33,14.98-9.66,23.25ZM312.4,549.93c4.25-7.21,6.38-14.53,7.95-23.34-6.41,2.26-12.08,4.29-17.17,7.64l-17.83,11.76,6.95,8.34c2.93,3.51,14.65-.07,20.1-4.4Z"/><path d="M560.97,454.14l8.4-7.18c.66.29,2.05.26,2.79.31l-10.77,9.36-.42-2.49Z"/><path d="M468.22,525.76c-9.06,8.28-9.64,27.92-2.7,28.18l20.49.78c6.21.24,28.42,7.12,33.46,11.5,5.95,5.17,9.67,11.9,13.34,18.57l9.95,18.1c5.02,9.13,7.88,18.72,10.76,28.88,1.15,4.06,4.57,8.07,5.41,12.06l1.86,8.83c3.58,1.47,7.97,2.88,12.18,3.12,10.97.62,21.83.66,32.69,0,5.75-.35,10.23-3.39,13.89-7.1,2.51-2.55,3.7-5.1,4.98-8.43,4.29-11.13,10.03-21.11,15.68-31.69,4.39-8.21,10.92-14.7,16.74-22.02,3.65-4.59,7-8.95,12.22-11.88l12.36-6.94c7.79-3.21,16.31-5.29,24.66-6.17l13.09-1.39c1.9-.2,4.06-.06,5.4,1.06,2.75,2.3,2.38,10.39.27,14.82l-6.58,13.79c-3.39,7.11-8.99,13.09-14.28,18.94l-6.65,7.37-18.24,15.25c-5.53,4.62-11.84,8.01-18.36,11.11l-19.02,9.05c-2.85,1.35-6.15,2.29-9.25,2.33-5.01.06-7.26-2-9.36-6.93-1.22,1.69-2.12,3.39-2.78,4.94-5.8,5.98-14.07,7.57-22.14,7.57h-11.69c-11.37,0-23.65-1.11-31.22-8.37l2.07-1.34c.49-.32.38-1.91.1-2.52l-4.38-9.77c-2.9,6.91.81,9.93-2.46,13.18-1.47,1.47-4.51,3.49-6.81,3.07-7.08-1.28-13.87-2.62-20.43-5.44-7.2-3.09-14.14-6.74-20.78-10.95l-9.46-7.5c-4.66-3.69-8.92-7-12.81-11.46-6.55-7.51-14.1-14.37-17.9-23.83l-5.82-14.47c-2.54-6.32-2.71-12.87.75-19.06l5.14-4.26c-3.22-3.83-5.61-7.6-4.84-12.47,2.31-14.63,5.8-20.25,18.09-28.58-4.19-.71-8.77-.56-11.98-2.69-8.53-5.65-11.15-17.91-5.73-26.45l3.98-6.27c9.24-7.06,16.35-16.2,19.74-27.47,4.93-6.91,10.67-12.6,17.15-17.97,1.79-2.27,3.67-4.65,6.07-6.29l13.43-9.2,7.28-4.29,12.22-5.71c6.03-2.82,11.69-5.85,18.22-7.46l24.9-6.12c22.48-5.52,58-1.03,79.3,9.34,5.93,2.88,12.12,5.32,17.42,9.14l9.87,7.1c4.49,3.23,8.29,6.62,12,10.59l10.84,11.59c5.31,5.68,7.19,12.61,7.81,20.16.86,10.4,11.04,12.32,17.02,21.02,3.64,5.31,1.74,21.31-6.8,27.28-5.24,3.66-10.12,2.65-16.59,1.73,14.26,10.57,21.09,29.39,9.21,43.29-2.58-1.62-4.52-2-7.1-2.14-13.85-.75-26.5,3.24-38.09,10.24-5.62,3.39-11.38,5.93-15.68,10.91-6.52,7.54-13.74,14.26-19.36,22.44l-5.74,8.36c-6.5,9.46-10.19,20.13-14.55,31.18-1.56-3.93.32-7.75,1.63-11.42,3.77-10.57,8.96-19.79,15.75-28.53l8.87-11.41,9.62-10.52c4.45-4.87,8.62-8.91,14.38-12.2,15.35-8.74,31.21-14.53,49.27-11.99,9.18-11.86-1.41-35.3-15.11-38.14l-24.01-4.98-15.03-3.91c9.7,16.15,5.31,34.65-2.19,50.61l-5.45,11.6-20.03,25.02c-5.88,7.34-13.28,13.89-16.6,22.83l-7.24,19.46-4.58,16.87c-.13.47-1.07,1.51-1.46,1.75-.52.32-1.12-1.54-1.31-2.49,2.28-11.01,5.51-21.39,9.81-31.68l3.87-7.89,6.3-10.35-6.36,2.66c-11.5,4.82-24.37,7.19-36.78,5.67-9.65-1.19-18.85-3.14-27.16-7.89-4.57-2.61-7.97-6.45-12.79-9.57,7.04,11.08,14.02,20.97,16.98,33.42l4.65,19.62c.33,1.4-.63,4.29-1.29,5.57-1.89-2.17-1.68-3.9-2.17-6.41l-1.77-9.03c-3.02-15.43-11.1-28.69-19.1-41.99l-8.52-14.17c-5.39-7.19-10.14-14.56-12.48-23.23-4.01-14.84-7.2-35.7,2.79-46.54,1.01-1.09,1.79-2.04,2.23-3.14l-19.01,4.46-22.54,5.59c-5.59,1.39-11.57,6.37-15.66,10.1ZM515.17,501.89c-9.3-9.8-11.97-22.54-9.36-35.46,2.29-11.54,8.04-21.38,14.93-30.86,3.26-4.49,7.44-7.94,12.18-11.16l8.73-5.93c14.94-7.69,30.51-14.09,47.18-16.47l24.25-3.46c-13.2-1.97-25.6.09-38.33,3.12-11.95,2.85-23.45,5.86-34.16,11.79-7.27,4.02-14.48,8.11-20.02,14.16-6.75,7.37-13.46,14.36-17.83,23.38-5.51,11.37-6.85,27.74-1.73,40.02,2.74,6.58,13.84,17.18,14.15,10.88ZM551.58,450.6c7.97-8.82,17.24-14.08,28.52-16.38,10.86-2.22,15.2.54,18.58-.6,9-3.03,17.43-3.57,26.81-3.96,15.99-.67,31.73-1.49,47.54-.1l20.09,1.77-15.35-12.45c-5.33-4.32-12.14-6.55-18.46-9.5-15.56-7.24-24.19-7.94-40.54-7.05-12.79.7-25.2,1.65-37.49,5.12-11.03,3.12-21.24,6.63-31.77,10.96-8.45,3.48-23.44,14.52-27.62,21.4l-5.59,9.2c-10.85,17.85-12.58,39.6,4.29,53.56,7.44-1.22,14.02-3.37,21.09-5.59l7.21-2.26c-7.94-14.28-8.04-32.27,2.68-44.12ZM654.26,433.47c15.52.8,30.33,1.87,45.37,4.82-1.27-2.79-3.68-3.75-6.2-4.08l-15-1.96c-16.62-1.17-33.01-.53-49.81-.64l-14.32.97-13.22,2.29c2.98,2.13,5.87,1.79,9.57,1.22l11.72-1.78c10.72-1.63,20.98-1.41,31.89-.85ZM496.93,508.38l11.97-3.57c-5.13-3.45-7.43-6.68-10.06-11.2-8.9-15.33-3.15-31.19,1.56-46.51,1.65-5.35,5.18-9.28,8.54-14.28-2.42,1.38-4.95,3.28-6.69,5.17l-5.63,6.12c-6.27,6.81-16.32,15.89-15.67,24.59,9.14,12.43,15.08,23.88,15.97,39.68ZM631.67,490.31l.65,1.7c.17.44,1.53.38,2.13.51l25.51,5.5,11.32,3.04,19.72,5.76c2.93.86,5.82,1.31,8.61.58-5.55-3.25-9.27-6.12-12.5-10.74-13.03-18.66-8.16-42.9,12.01-55.44-3.77-2.08-8.04-2.26-12.27-2.72l-14.8-1.6-12.99-.97-26.62-.53c-7.72-.15-15.02.13-22.35,2.44l10.39,7.14c9.9,8.52,14.67,20.48,13.17,33.36l-1.34,11.5-.65.47ZM612.83,445.59l-2.31-3.17c-6.08-2.2-11.9-5.05-18.42-4.99l-7.91.07c-4.27.04-8.65,2.16-12.37,3.95l5-.76,8.24-1.1c10.01-1.33,18.93,2.21,27.77,6ZM569.66,442.55c-2.58.25-4.65,1.41-6.18,2.96,2.81-.67,4.5-1.55,6.18-2.96ZM569.36,446.96l-4.6,2.41c-1.3.68-4.07,2.79-3.79,4.77-7.18,5.46-9.74,15.99-7.97,24.6.49.26,1.38.44,1.46.79l.55,2.43c.8,3.56,2.82,7.32,5.05,10.5l12.71-1.53,9.27-.85,26.92.07,8.4.19c6.74-8.34,7.42-18.96,3.7-28.57-7.45-19.26-31.88-23.86-51.69-14.81ZM702.12,445.06l1.97-1.52c.25-.19-1.73-1.19-1.96-.98l-3.18,2.93c.99.05,2.78-.13,3.17-.43ZM700.62,500.5l-4.6-3.57c-12.81-9.96-13.13-29.13-4.17-42.54l7.73-8.33c-8.67,3.64-12.89,12.1-15.14,20.51-1.53,5.68-1.06,10.88.31,16.49,2.03,8.35,7.28,14.57,14.32,19.49,6.97,4.87,20.06,9.69,26.23,6.17-8.92-2.05-17.59-2.7-24.69-8.22ZM629.68,476.41c1.78-9.48-2.71-18.13-8.22-25.13-1.53-1.94-1.95-4.15-5.08-4.27l5.56,8.35c5.55,8.33,8.17,19.05,3.66,28.49l-4.65,6.37,1.65,1.24c.97.73,6.13-9.93,7.09-15.05ZM732.66,491.16c-.59-5.39-4.71-8.12-8.31-10.79-6.05-4.48-10.72-12.83-11.42-20.62-.38-4.27-2.22-9.45-5.29-12.49-2.08-2.06-18.6,11.07-16.25,30.11,1.35,10.94,7.67,18.98,17.74,22.93,6.64,2.6,12.83,5.68,20.51,4.13,1.75-3.64,3.52-8.66,3.01-13.26ZM554.13,494.21c1.3-.57,1.24-1.83.59-2.78-9.58-14.15-5.99-31.99,6.38-43.67-10.13,5.77-16.52,21.47-13.61,32.88,1.22,4.81,2.67,9.9,6.64,13.57ZM487.89,510.15l4.88-1.42c-.05-12.38-4.15-22.63-10.6-32.68-1.18-1.85-1.08-5.03-4.65-4.13l5.28,11.42c2.99,6.47,6.14,12.89,5.58,20.25l-.49,6.56ZM473.96,483.43l-5.84-1.38-1.32,1.57,7.16-.2ZM470.84,491.18c.88-.08,2.3-.97,2.52-1.71s-1.01-2.85-1.84-2.81l-7.5.33c-1.99.09-3.75,3.96-3.04,5.15l9.86-.96ZM480.95,488.25c-.21-.59-1.24-1.72-1.79-2.06-.41-.25-1.73,1.09-1.44,1.47l1.36,1.77c.25.33,1,1.04,1.32,1.29.21.17,1.37-.14,1.28-.4l-.73-2.08ZM631.55,489.28l-.22-2.25-3.14,4.71,3.22-1.63.14-.83ZM474.93,494.96c-1.95-2.38-10.24-1.25-13.91.77l13.91-.77ZM635.35,576.54c2.59-2.15,3.99-5.12,6.12-7.93,10.53-13.87,17.52-30.17,16.91-47.83l-1.29-12.14c-.27-2.5-.91-5.04-2.17-7.26-24.51-5.55-48.98-8.17-74.01-6.58-13.6.86-38.53,4.12-46.71,11.78-6.77,6.35-6.87,17.83-6.69,26.7.27,13.16,5.36,24.78,12.91,35.77,8.14,11.84,22.6,19.02,36.69,21.89,20.73,4.22,42.09-.98,58.23-14.41ZM477.04,498.36h-7.38v.78h7.38v-.78ZM465.56,505.38l14.81-.04c.52,0,1.93-.88,2.24-1.2s-.35-1.69-.79-1.66l-2.02.16-14.37,1.13-1.66.26c-.26.04,1.51,1.35,1.8,1.35ZM533.38,570.2l8.27,11.28c4.19,5.71,9.91,10.47,15.61,14.58,5.46,3.94,11.06,6.24,17.62,7.45,12,2.21,24.98,2.23,36.84-.72,10.29-2.57,18.95-8.25,25.67-16.38l12.31-14.91c5.18-6.28,8.72-12.9,11.37-20.57,3.02-8.74,6.31-17.42,5.6-27-.44-5.92-3.36-17.01-7.8-20.48l.89,8.87-.15,21.03c-1.15,14.16-9.04,26.2-16.63,37.54-4,5.97-8.48,10.05-14.49,13.7-12.62,7.67-26.2,10.83-41.12,10.3-13.13-.46-24.76-4.94-36.05-11.48-3.22-1.86-5.88-3.35-8.24-6.63l-3.89-5.4c-12.81-17.77-19.9-40.02-10.66-60.76-5.8,4.34-8,11.02-8.07,18.06-.16,16.18,3.28,28.36,12.93,41.52ZM485.12,508.07l-2.09.17-6.86,1.54c6.49,3.3,10.81-1.87,8.95-1.71ZM518.05,572c3.17,1.69,4.61,5.46,8.17,6.52-6.62-12.37-14.28-13.32-25.06-17.29-10.27-3.78-20.91-4.1-31.89-3.96-3.42.04-6.93.21-8.16,4.23l19.61.18,11.59,1.72,9.54,1.43c5.56.83,10.95,4.38,16.21,7.18ZM541.95,649.23c1.26.37,4.37-.25,5.02-1.1,6.28-8.09-2.32-28.3-6.94-41.1-3.18-8.82-8.48-16.94-15.21-23.66l-5.4-5.39c-9.67-9.65-35.49-12.45-50.54-13.47l.5,13.32c-1.3,1.24-4.19.9-4.94-1.28-1.05-3.06,3.58-4.85,1.3-11.46-1.73-1.42-4.88-.93-6.13.63l2.64,2.22c-1.97.86-3.09,2.49-2.68,4.32l3.15,13.91c.2.88,1.6,2.38,2.35,2.46s1.99-1.44,1.64-2.11l-2.05-3.95c11.1-.25,25.29-1.74,30.8,5.29,3.69,4.7,4.28,10.16,6.37,15.55l11.51,29.62,3.28,6.96c1.27.81,4.14,3,5.68,3.46l19.66,5.78ZM719.88,577.41c1.45-4.03,2.75-8.02,1.82-12.12-.27-1.2-4.3-1.25-4.43-.1l-1.27,10.73-1.34,11.3c3.65-2.48,3.8-5.87,5.22-9.81ZM663.75,636.52c5.55-3.03,10.91-5.97,15.37-9.82l9.67-8.33c5.11-4.41,9.34-9.28,13.7-14.17,5.23-5.86,8.23-11.3,8.95-19.49l1.75-19.88c-12,.85-22.68,3.39-32.61,7.82-8.32,4.53-15.32,9.41-20.89,16.81-6.87,9.13-14.78,17.13-19.56,27.7-4.38,9.69-14.72,26.97-10.49,31.24,1.2,1.21,4.73,2.09,6.4,1.38l15.43-6.54,12.29-6.7ZM489.67,613.28l12.62.71-7.84-22.78c-.46-1.33-2.64-2.86-4.05-3.81-7.08-1.48-13.75-2.15-20.92-2.08-2.53,1.41,2.55,3.76,1.36,4.33l-2.32,1.12-2.44,1.17c-1.86.89,10.84,17.78,16.49,22.8,2.07-.89,4.68-1.59,7.1-1.46ZM504.99,620.75c-1.08-2.36-3.17-4.09-5.62-4.09h-15.24s17.09,14.53,17.09,14.53c3.41,2.9,7.32,5.25,11.84,7.22l-8.06-17.67Z"/><path d="M712.58,541.45l-5.19,2.3-33,7.41c-5.61-.7,2.29-5.91-1.52-13.13,1.53-8.18,1.69-15.89.1-24.12,3.87-1.99,8.1-1.84,12.48-.96l11.9,2.38c4.61.92,8.82,4.43,12.62,7.4,2.4,1.88,4.39,5.24,6.05,7.82,2.47,3.85.91,8.99-3.42,10.91ZM679.78,526.85l-.09-8.28c0-.56-.25-1.63-.4-2.06s-1.76-.41-1.92.02-.42,1.47-.44,1.95l-.55,11.89c.78.05,3.42-2.21,3.41-3.51ZM700.63,524.02c-1.4-5.63-14.58-6.44-17.42-4.56-1.92,1.27-.87,5.78.66,6.49l10.05-.25c2.22-.06,4.82-.45,6.71-1.68ZM712.89,532.36c-2.9-3.6-5.61-7.84-10.95-7.45,3.05,2.31,6.06,4.38,7.57,7.36-.85,1.64-2.85,4.26-4.21,4.62l-9.23,2.43c-.68.18-.33,2.47.32,2.71,4,1.51,21.32-3.68,16.5-9.67ZM696.98,535.62c2.8-.19,6.6-1.27,9.05-2.71.16-1.57-1.19-3.99-2.39-4.53-2.5-1.13-8.39.73-8.92,2.97-.27,1.15,1.05,4.36,2.26,4.28ZM685.6,537.37c1.6.03,3.61-1.52,4.43-2.79.71-1.11.5-4.98-.87-4.83l-7.72.87c-1.95.22-3.8,4.24-4.1,6.59l8.27.17ZM693.56,537.23c.04-.55-.02-3.15-.09-3.22-1.7.27-1.73,3.13.09,3.22ZM676.5,547.08l17.31-3.9c-.02-1.29-2.13-3.5-3.28-3.36l-14.3,1.71c-1.51.65-1.32,5.62.28,5.55Z"/><path d="M478.31,546.77c-4.36-.96-8.62-3.95-8.97-8.83-.31-4.23,3.06-8.43,6.3-9.99,1.59,1.17,2.9.65.71-.99,1.09-1.98,3.36-5.03,5.44-6.91l32.12-7.25c-2.73,8.29-2.42,15.22-.59,23.05.84,3.59.2,7.54-1.16,10.8l-.48,7.5-33.37-7.38ZM508.56,530.29l1.54-13.85-3.48,8.42c-.39.94-.97,2.95-.51,3.72.39.65,2.21,1.72,2.45,1.71ZM501.46,527.62c.56.07,2.03.46,2.16.02l.64-2.08,3.27-8.29-9.84,2.35c-6.51,1.56-12.68,3.57-17.08,9.07l11.95-.91,8.9-.17ZM497.13,539.59l.15-8.87-13.31.8c-3.31.2-5.37,2.94-4.52,6.55l11.52.99,6.16.53ZM510.31,541.92c.28-4.53-.26-7.82-1.74-9.79-2.06-.2-2.57-.34-4.96-1.2l-2.31,4.86-2.23.58c-.47.12-.42,2.29.03,2.46l1.74.67c3.15,1.22,5.91,2.16,9.47,2.41ZM509.52,545.21c-9.2-1.88-18.24-2.92-27.54-3.73-2.09-.18-4.79-1.86-5.94-3.3l2.54-6.22c-3.16.21-5.71,2.6-5.95,5.38-.29,3.22,3.05,5.95,6.15,6.63l30.18,6.57c1.21-.94,1.65-4.22.56-5.34Z"/><rect x="619.26" y="638.21" width=".78" height="7.38"/><path d="M614.29,545.93c-7.85,13.49-24.59,16.17-37.57,9.05-11.19-6.14-15.09-19.76-7.17-30.24,10.33-13.69,30.86-14.84,42.22-1.87,5.59,6.38,7.03,15.32,2.52,23.07ZM579.32,520.78c-9.23,3.29-13.07,13.76-8.91,22.35-1.17-11.2,1.41-15.41,8.91-22.35ZM596.39,551.01c4.59-1.19,9.14-4.89,11.37-8.87,3.38-6.04.83-13.07-4.21-17.29-5.2-4.36-11.98-5.34-19.21-2.9-4.73,1.6-10.22,6.75-11.28,13.41-.51,3.18,1.52,8.45,3.61,10.68,5.32,5.66,11.91,7,19.72,4.98Z"/><path d="M557.23,463.49c-.08-2.79,1.46-4.95,4.03-6.25l-4.03,6.25Z"/><path d="M501.03,622.33c.54-.02,2.08.48,2.52.7.59.31-.94,2.06-1.58,1.86l-7.58-2.37,6.63-.2Z"/></svg>