<?xml version="1.0" encoding="UTF-8"?><svg id="Layer_1" xmlns="http://www.w3.org/2000/svg" width="1000" height="1000" viewBox="0 0 1000 1000"><path d="M580.71,639.29h-31.23c-37.95,0-68.82-30.87-68.82-68.82v-140.93c0-37.95,30.87-68.82,68.82-68.82h31.23c76.8,0,139.29,62.48,139.29,139.29s-62.48,139.29-139.29,139.29ZM549.48,384.8c-24.67,0-44.73,20.07-44.73,44.73v140.93c0,24.67,20.07,44.73,44.73,44.73h31.23c63.52,0,115.2-51.68,115.2-115.2s-51.68-115.2-115.2-115.2h-31.23Z"/><path d="M292.05,468.8c-4.93,0-9.56-3.05-11.33-7.95-2.26-6.26.98-13.16,7.23-15.42l170.33-61.58c6.26-2.27,13.16.98,15.42,7.23,2.26,6.26-.98,13.16-7.23,15.42l-170.33,61.58c-1.35.49-2.74.72-4.09.72Z"/><path d="M292.05,518.16c-4.93,0-9.56-3.05-11.33-7.95-2.26-6.26.98-13.16,7.23-15.42l170.33-61.58c6.26-2.27,13.16.98,15.42,7.23,2.26,6.26-.98,13.16-7.23,15.42l-170.33,61.58c-1.35.49-2.74.72-4.09.72Z"/><path d="M292.05,567.52c-4.93,0-9.56-3.05-11.33-7.95-2.26-6.26.98-13.16,7.23-15.42l170.33-61.58c6.26-2.27,13.16.98,15.42,7.23,2.26,6.26-.98,13.16-7.23,15.42l-170.33,61.58c-1.35.49-2.74.72-4.09.72Z"/><path d="M292.05,616.87c-4.93,0-9.56-3.05-11.33-7.95-2.26-6.26.98-13.16,7.23-15.42l170.33-61.58c6.26-2.26,13.16.98,15.42,7.23,2.26,6.26-.98,13.16-7.23,15.42l-170.33,61.58c-1.35.49-2.74.72-4.09.72Z"/></svg>