<?xml version="1.0" encoding="UTF-8"?><svg id="Layer_1" xmlns="http://www.w3.org/2000/svg" width="1000" height="1000" viewBox="0 0 1000 1000"><path d="M676.69,383.55h-353.38c-19.35,0-35.1,15.74-35.1,35.1v162.72c0,19.35,15.74,35.1,35.1,35.1h353.38c19.35,0,35.1-15.74,35.1-35.1v-162.72c0-19.35-15.74-35.1-35.1-35.1ZM695.79,581.36c0,10.53-8.57,19.1-19.1,19.1h-353.38c-10.53,0-19.1-8.57-19.1-19.1v-162.72c0-10.53,8.57-19.1,19.1-19.1h353.38c10.53,0,19.1,8.57,19.1,19.1v162.72Z"/><polygon points="372.65 457.38 398.39 457.38 398.39 559.67 418.51 559.67 418.51 440.33 372.65 440.33 372.65 457.38"/><path d="M501.19,508.35c6.59-6.82,11.99-13.55,16.2-20.2,4.2-6.65,6.31-12.93,6.31-18.84s-1.65-11.28-4.94-15.77c-3.3-4.49-7.87-7.95-13.72-10.4-5.86-2.44-12.7-3.67-20.54-3.67s-15.54,1.51-23.1,4.52c-7.56,3.01-14.69,7.13-21.4,12.36l8.18,14.49c5.11-4.54,10.66-8.12,16.62-10.74,5.97-2.61,11.62-3.92,16.96-3.92,6.59,0,11.73,1.39,15.43,4.18,3.69,2.79,5.54,6.68,5.54,11.68,0,3.52-1.39,7.62-4.18,12.27-2.79,4.66-6.45,9.32-11,13.98l-45.52,47.23v14.15h87.46v-17.05h-61.27l32.97-34.27Z"/><path d="M617.04,500.17c-6.88-5.57-15.88-8.75-27.02-9.55l-7.05-.53,38.42-37.83v-11.93h-78.42l.17,17.05h52.39l-34.15,33.59v11.93h17.39c9.09,0,16.2,1.7,21.31,5.11s7.67,8.47,7.67,15.17c0,4.21-1.14,7.93-3.41,11.17-2.27,3.24-5.54,5.74-9.8,7.5-4.26,1.76-9.41,2.64-15.43,2.64s-11.96-1.05-17.82-3.15c-5.85-2.1-11.11-5.09-15.77-8.95l-8.35,15.34c5.46,3.87,12.05,6.96,19.78,9.29,7.73,2.33,15.57,3.5,23.53,3.5,9.66,0,17.99-1.59,24.98-4.77,6.99-3.18,12.39-7.64,16.2-13.38,3.81-5.74,5.71-12.3,5.71-19.69,0-9.43-3.44-16.93-10.31-22.5Z"/></svg>