<?xml version="1.0" encoding="UTF-8"?><svg id="Layer_1" xmlns="http://www.w3.org/2000/svg" width="1000" height="1000" viewBox="0 0 1000 1000"><path d="M500,260.4c-132.33,0-239.6,107.27-239.6,239.6s107.27,239.6,239.6,239.6,239.6-107.27,239.6-239.6-107.27-239.6-239.6-239.6ZM500,670.39c-93.95,0-170.39-76.44-170.39-170.39s76.44-170.39,170.39-170.39,170.39,76.44,170.39,170.39-76.44,170.39-170.39,170.39Z"/><path d="M412.43,500.01c0-7.93,1.05-15.61,3.05-22.91l-51.83-31.84c-6.81,16.92-10.55,35.4-10.55,54.75s3.74,37.82,10.55,54.75l51.83-31.84c-1.99-7.3-3.05-14.98-3.05-22.91Z"/><path d="M389.56,596.84c21.75,24.82,51.75,42.24,85.73,47.99v-60.81c-12.74-3.76-24.29-10.33-33.9-19l-51.83,31.82Z"/><path d="M475.29,415.99v-60.81c-33.98,5.75-63.98,23.17-85.73,47.99l51.83,31.82c9.61-8.67,21.16-15.24,33.9-19Z"/><path d="M610.44,403.17c-21.74-24.82-51.73-42.24-85.71-47.99v60.81c12.74,3.76,24.29,10.33,33.9,19l51.81-31.82Z"/><path d="M636.36,445.26l-51.83,31.84c1.99,7.3,3.05,14.98,3.05,22.91s-1.05,15.61-3.05,22.91l51.83,31.84c6.81-16.92,10.55-35.4,10.55-54.75s-3.74-37.82-10.55-54.75Z"/><path d="M524.72,584.02v60.81c33.98-5.75,63.97-23.17,85.71-47.99l-51.81-31.82c-9.61,8.67-21.16,15.24-33.9,19Z"/><path d="M537.13,537.13c9.51-9.51,15.39-22.63,15.39-37.13s-5.88-27.62-15.39-37.13c-9.48-9.51-22.61-15.39-37.13-15.39s-27.65,5.88-37.13,15.39c-9.51,9.51-15.39,22.63-15.39,37.13s5.88,27.62,15.39,37.13v.02c9.49,9.49,22.63,15.38,37.13,15.38s27.64-5.88,37.13-15.38v-.02Z"/></svg>