<?xml version="1.0" encoding="UTF-8"?><svg id="Layer_1" xmlns="http://www.w3.org/2000/svg" width="1000" height="1000" viewBox="0 0 1000 1000"><path d="M500,492.43c41.15,0,74.62-33.47,74.62-74.62s-33.47-74.62-74.62-74.62-74.62,33.47-74.62,74.62,33.47,74.62,74.62,74.62ZM500,369.13c26.84,0,48.67,21.83,48.67,48.67s-21.83,48.67-48.67,48.67-48.67-21.83-48.67-48.67,21.83-48.67,48.67-48.67Z"/><path d="M567.4,509.96h-134.81c-56.58,0-102.61,46.03-102.61,102.61v44.24h340.03v-44.24c0-56.58-46.03-102.61-102.61-102.61ZM644.07,630.87h-288.14v-18.3c0-42.27,34.39-76.67,76.67-76.67h134.81c42.27,0,76.67,34.39,76.67,76.67v18.3Z"/></svg>