<?xml version="1.0" encoding="UTF-8"?><svg id="Layer_1" xmlns="http://www.w3.org/2000/svg" width="1000" height="1000" viewBox="0 0 1000 1000"><path d="M639.53,338.16h-12.01v-42.55c0-7.37-5.97-13.34-13.34-13.34s-13.34,5.97-13.34,13.34v42.55h-188.9v-42.55c0-7.37-5.97-13.34-13.34-13.34s-13.34,5.97-13.34,13.34v42.55h-24.79c-37.85,0-68.63,30.79-68.63,68.63v242.32c0,37.83,30.79,68.62,68.63,68.62h279.06c37.85,0,68.63-30.79,68.63-68.62v-242.32c0-37.85-30.79-68.63-68.63-68.63ZM681.49,649.12c0,23.13-18.83,41.94-41.96,41.94h-279.06c-23.13,0-41.96-18.81-41.96-41.94v-200.85h362.97v200.85ZM681.49,421.59h-362.97v-14.8c0-23.14,18.83-41.96,41.96-41.96h24.79v24.99c0,7.37,5.97,13.34,13.34,13.34s13.34-5.97,13.34-13.34v-24.99h188.9v24.99c0,7.37,5.97,13.34,13.34,13.34s13.34-5.97,13.34-13.34v-24.99h12.01c23.13,0,41.96,18.81,41.96,41.96v14.8Z"/><rect x="363.27" y="488.22" width="44.93" height="36.73"/><rect x="363.27" y="551.3" width="44.93" height="36.73"/><rect x="363.27" y="614.37" width="44.93" height="36.73"/><rect x="439.45" y="488.22" width="44.93" height="36.73"/><rect x="439.45" y="551.3" width="44.93" height="36.73"/><rect x="439.45" y="614.37" width="44.93" height="36.73"/><rect x="515.63" y="488.22" width="44.93" height="36.73"/><rect x="515.63" y="551.3" width="44.93" height="36.73"/><rect x="515.63" y="614.37" width="44.93" height="36.73"/><rect x="591.81" y="488.22" width="44.93" height="36.73"/><rect x="591.81" y="551.3" width="44.93" height="36.73"/><rect x="591.81" y="614.37" width="44.93" height="36.73"/></svg>