<?xml version="1.0" encoding="UTF-8"?><svg id="Layer_1" xmlns="http://www.w3.org/2000/svg" width="1000" height="1000" viewBox="0 0 1000 1000"><path d="M746.38,395.18c-5.95-9.76-16.66-16.66-29.39-18.93l-67.6-12.08c-97.73-17.46-201.05-17.46-298.78,0l-67.6,12.08c-12.73,2.27-23.44,9.17-29.39,18.93-4.96,8.14-6.18,17.53-3.43,26.46l52.76,171.28,13.08-3.03c42.05-9.74,84.93-16.07,128.07-19l42.93,70.73c2.86,4.7,7.86,7.3,12.99,7.3,2.68,0,5.4-.71,7.86-2.2,7.16-4.35,9.45-13.68,5.1-20.84l-34.36-56.61c69-1.79,138.25,5.08,205.37,20.62l13.08,3.03,52.76-171.28c2.75-8.92,1.53-18.32-3.43-26.46ZM322.63,558.88l-44.89-145.73c-.22-.71-.33-1.61.5-2.96,1.26-2.06,4.5-4.61,9.85-5.56l50.39-9c.36,1.39.92,2.75,1.71,4.04l87.16,143.6c-35.21,3.01-70.21,8.2-104.71,15.61ZM722.26,413.15l-44.89,145.73c-70.71-15.18-143.53-21.11-215.89-17.84l-91.58-150.88c42.71-6.83,86.4-10.26,130.1-10.26,48.56,0,97.11,4.22,144.32,12.65l67.6,12.08c5.34.95,8.59,3.5,9.85,5.56.82,1.35.71,2.26.5,2.96Z"/></svg>