<?xml version="1.0" encoding="UTF-8"?><svg id="Layer_1" xmlns="http://www.w3.org/2000/svg" width="1000" height="1000" viewBox="0 0 1000 1000"><defs><style>.cls-1{fill:none;stroke:#000;stroke-miterlimit:10;stroke-width:14px;}</style></defs><path class="cls-1" d="M433.06,294.83l50.89,87.24c4.85,8.32,2.72,18.96-4.96,24.77l-29.94,22.62c-8.09,6.12-9.97,17.51-4.25,25.89l79.2,116.26c5.46,8.01,16.07,10.64,24.64,6.1l34.58-18.34c7.84-4.16,17.52-2.34,23.32,4.38l58.87,68.21c6.79,7.86,6.01,19.71-1.74,26.63l-57.39,51.21c-7.03,6.27-17.59,6.46-24.84.43l-15.76-13.11c-102.19-85.04-182.5-193.34-234.19-315.82h0c-2.97-7.05-1.44-15.19,3.89-20.67l67.61-69.46c8.78-9.02,23.73-7.18,30.07,3.68Z"/></svg>