<?xml version="1.0" encoding="UTF-8"?><svg id="Layer_1" xmlns="http://www.w3.org/2000/svg" width="1000" height="1000" viewBox="0 0 1000 1000"><path d="M462.12,583.73c-.49,1.73,1.81,5.41,4.13,5.41l54.1.06,2.72-2.72c.19-1.9.38-4.58-.39-6.16-1-2.06-3.61-2.68-5.79-3.23l-.05-32.26c0-.66.84-1.82,1.39-1.77.55.05,1.59.73,1.94,1.21v24.33c1.84,4.89,6.25,8.68,11.42,8.94,5.35.49,9.18-2.29,11.21-6.89.49-1.11,1.25-2.74,1.25-3.95v-4.92s-1.46-10.8-1.46-10.8c-.81-5.99-.39-12.14-.47-18.24l-.19-14.37-2.36-3.7c-.84-1.32-2.74-2.69-4.18-3.75l-5.83-4.26c-1.24-.91-4.47-1.69-6.02-1.16-2.14.73-1.42,3.8-.22,4.87l2.57,2.3,4.01,4.37c1.74,1.9-.21,11.19,2.31,17.93.72.94,2.36,2.5,2.36,3.63l-.03,11c.76,5.82,1.67,11.56,1.46,17.26l-2.65,2.33c-3.16-.76-4.41-3.74-4.45-6.86l-.16-10.26-.51-10.91c-.09-1.9-5.21-7.81-11.12-6.78-.25-.98-.34-2.58-.38-3.86l-.19-5.8-.33-15.63c-.08-3.55-3.31-6.43-6.74-6.43h-34.89c-1.81.01-4.93,2.06-5.7,3.51-.65,1.23-1.59,3.56-1.59,4.91l-.03,63.24,1.25,2.22-5.22,3.16-1.15,4.03ZM478.27,510.96l29.14.02-.02,20.64-29.14-.02.02-20.64Z"/><path d="M478.14,677.42c-1.71.6-3.35,1.37-4.89,2.27-2.89,1.69-5.39,3.84-7.45,6.34-.01.01-.03.03-.04.04-.22.26-.43.54-.63.81-.08.1-.16.2-.23.3-.14.19-.27.38-.41.57-.14.19-.27.38-.4.58-.07.11-.14.21-.2.32-.19.29-.37.58-.55.87,0,.02-.02.03-.03.05-1.65,2.77-2.84,5.86-3.46,9.14-.5,2.63-.63,5.34-.35,8.07,0,.08.02.16.03.24.04.36.08.72.14,1.08.03.22.07.44.11.65.04.22.07.43.12.65.07.36.15.71.23,1.06.02.08.04.16.06.24.66,2.66,1.69,5.18,3.05,7.48,1.69,2.88,3.84,5.39,6.33,7.44.01.01.03.02.04.04.26.22.54.43.81.63.1.08.2.16.3.23.19.14.38.27.58.41.19.14.38.27.58.4.11.07.22.14.32.21.29.19.57.37.87.55.02.01.03.02.05.03,2.78,1.65,5.86,2.84,9.15,3.46,2.62.5,5.34.63,8.06.35.08,0,.16-.02.24-.03.36-.04.72-.08,1.08-.14.22-.03.44-.07.65-.11.22-.04.43-.07.65-.12.36-.07.71-.15,1.06-.23.08-.02.16-.04.24-.06,5.11-1.26,9.67-3.91,13.25-7.54,36.98-26.86,148.67-123.15,148.67-123.15,0,0-162.62,71.27-178,76.84Z"/><polygon points="751.37 666.34 767.97 666.34 767.97 643.2 796.47 643.2 796.47 630.22 767.97 630.22 767.97 615.79 798.83 615.79 798.92 602.72 751.37 602.72 751.37 666.34"/><polygon points="210.43 640.93 240.74 640.93 240.74 627.95 210.43 627.95 210.43 615.79 244.01 615.79 244.01 602.72 193.82 602.72 193.82 666.34 244.92 666.34 244.92 653.27 210.43 653.27 210.43 640.93"/><rect x="491.59" y="311.69" width="12.17" height="50.21"/><rect x="415.18" y="323.27" width="12.17" height="50.21" transform="translate(-93.94 165.65) rotate(-20.06)"/><rect x="347.37" y="360.36" width="12.17" height="50.21" transform="translate(-165.23 318.51) rotate(-40.13)"/><rect x="296.4" y="418.46" width="12.17" height="50.21" transform="translate(-232.76 485.5) rotate(-60.19)"/><rect x="268.45" y="490.52" width="12.17" height="50.21" transform="translate(-280.13 698.88) rotate(-80.25)"/><rect x="549.61" y="342.29" width="50.21" height="12.17" transform="translate(50.33 768.71) rotate(-69.94)"/><rect x="617.42" y="379.38" width="50.21" height="12.17" transform="translate(-66.3 628.34) rotate(-49.87)"/><rect x="668.39" y="437.48" width="50.21" height="12.17" transform="translate(-128.74 403.47) rotate(-29.81)"/><rect x="696.33" y="509.54" width="50.21" height="12.17" transform="translate(-76.89 129.6) rotate(-9.75)"/><path d="M849.7,512.78c-19.09-47.71-46.43-90.57-81.25-127.37-34.84-36.83-75.43-65.75-120.63-85.95-46.82-20.93-96.56-31.54-147.83-31.54s-101.01,10.61-147.83,31.54c-45.2,20.21-85.78,49.12-120.62,85.95-34.82,36.81-62.16,79.66-81.25,127.37-19.76,49.38-29.78,101.83-29.78,155.88h12.17c0-214.27,164.78-388.58,367.31-388.58s367.31,174.32,367.31,388.58h12.17c0-54.06-10.02-106.5-29.78-155.88Z"/></svg>