<?xml version="1.0" encoding="UTF-8"?><svg id="Layer_1" xmlns="http://www.w3.org/2000/svg" width="1920" height="1080" viewBox="0 0 1920 1080"><path d="M914.95,732.35l-16.59-1.48c-12.17-1.09-23.78-3-35.71-5.79-10.85-2.54-21.12-6.16-29.77-13.39l-5.96-6.09c-5.78-5.9-7.64-13.86-10.16-21.48-2.61-7.89-4.22-15.28-4.36-23.63l-.93-8.98.19-72.43.34-83.53-.03-76-10.14,3.76c-1.76.65-4.12-1.24-4.09-3.16.09-5.52,2.89-10.52,7.33-13.92l6.51-4.99-.08-13.59.1-75.23,1.66-19.22c1.05-12.16,5.32-23.92,13.06-33.35l6.79-8.28c4.29-5.23,10.63-8.02,16.31-11.56s12.3-5.86,19-8.31c14.62-5.36,29.94-7.13,45.6-7.99l32.31-.03,11.43.81c19.65,1.4,38.55,6.13,55.91,15.75l6.18,4.49c5.26,3.82,10.37,7.82,14,13.19,4.52,6.69,9.13,13.09,11.15,21.05,2.03,8.01,4.56,16.18,4.55,24.62l-.1,61.94-.46,34.86,5.91,5.52c5.32,4.96,8.61,12.09,5.94,15.75-.41.56-2.47,1.15-3.21.88l-9.15-3.32.11,172.71.93,18.57-.04,28c-.03,21.15-3.47,56.04-18.28,70.31-7.96,7.67-17.97,11.93-28.39,14.8-17.41,4.79-34.67,7.66-52.75,8.7l-35.11.03ZM957.79,229.38l11.58,1.45,13.53,3.14c1.83.43,4.01.34,6.06-.15-10.7-3.79-21.86-5.2-33.31-6.01l-14.71-1.04-20.78-.03-17.23,1.35-6.61.67c-6.25.63-12,1.87-17.82,3.49,4.54,1.66,8.38-.69,12.76-1.24l13.22-1.65,15.7-.81h21.44s16.16.83,16.16.83ZM909.36,236.52l12.3-1.03c.98-.08,2.38-.38,2.99-.69s.2-2.86-.52-2.96l-21.83,1.48-15.79,2.1c-2.69.36-5.24,1.93-7.12,3.56l-1.45,1.26c-.21.18.1,1.06.38,1.06l1.78.04c9.64-2.45,19.1-3.86,29.26-4.82ZM984.51,241c-2.44-2.18-4.67-3.97-7.07-4.72-10.78-3.35-21.72-3.41-32.9-3.97l-10.07-.51.14,3.59c14.76.63,29.14,1.56,43.62,4.34l6.28,1.26ZM819.9,288.89c1.58-9.27,5.62-16.7,10.46-24.24,2.94-4.58,5.92-8.58,10.4-11.85l9.55-6.97c5.6-4.09,12.23-6.21,18.34-9.56l-9.11,2.94c-8.1,2.61-22.21,12.92-27.58,19.82-4.61,5.91-8.71,11.93-11.19,18.97-2.78,7.88-4.58,15.71-5.39,24.55,3.01-3.87,3.67-8.64,4.52-13.66ZM1044.76,301.49c-.41-9.42-1.67-18.77-5.99-26.96l-6.21-11.77c-2.36-4.48-6.49-7.84-10.32-11.16-7.71-6.69-15.87-12.41-26.4-14.64,6.13,4.38,11.92,5.38,19.18,11.17,6.68,5.32,13.22,10.84,17.39,18.25,5.21,9.28,8.35,18.64,9.65,29.18.26,2.11,1.36,4.43,2.7,5.94ZM831.32,281l7.9-10.45,11.67-12.02,18.25-14.57,6.54-5.59c-4.47.07-6.94,1.77-10.3,3.23-5.54,2.4-10.91,5.04-15.8,8.58-7.32,5.29-14.4,10.86-18.47,18.85-3.47,6.81-7.64,12.94-7.71,21.38l7.91-9.4ZM853.93,360.77c-5.9,2.08-10.31,5.35-15.36,8.08-1.36.74-2.43,2.8-2.13,4.53,5.83-3.35,10.86-6.7,17.21-8.84,20.55-6.92,41.57-10.1,63.17-11.19h26.04c24.17,1.37,47.8,4.71,70.57,13.21,3.99,1.49,7.8,4.2,11.31,6.7,3.83,2.72,7.13,8.07,7.86,12.53l2.13,12.98c2.15-5.22-.21-9.92-.44-14.94l-.74-16.46-.54-7.31-1.7-19.27-5.55-42.54-1.19-8.26-1.53-10.35c-7.69-11.22-17.05-20.06-27.41-28.63-2.16-1.79-4.3-5.16-7.09-5.74l-18.31-3.81-10.96-1.3-19.99-1.55c-14.07-1.09-28.06-.02-42.04,2.56l-22.52,4.15c-2.75.51-5.43,3.54-7.45,5.32-6.1,5.35-12.16,10.22-17.36,16.32-3.51,4.12-7.11,7.47-11.49,11.06l-4.99,34.83-1.67,18.65-.86,9.79-3.95,34.38c2.61-2.39,4.12-4.95,6.03-7.35,19.45-14.85,50.13-20.19,74.57-22.81l14.75-.63,11.56-.09c22.83-.17,59.68,5.28,80.02,14.66,5.89,2.72,19.44,11.69,18.77,17.11-1.29.06-2.35-.78-3.24-1.71-4.4-4.56-9.37-8.34-15.05-11.52-5.49-3.07-11.74-4.65-18.01-6.36-18.82-5.14-37.55-7.71-57.21-8.7-28.89-1.46-57.61,2.76-85.22,12.5ZM1037.93,291.82c-1.67-13.48-7.82-26.37-17.33-34.9l-7.56-6.78c-7.84-5.7-16.61-9.98-26.63-12.09l9.85,8.78,10.5,8.84c3.92,3.3,6.93,6.73,10.23,10.59l10.85,12.71,10.1,12.86ZM821.59,397.55l3.61-36.28,1.69-15.44,3.86-34.4,1.78-17.61c.35-3.48,1.52-6.82.99-10.67l-6.74,8.75c-5,6.5-12,14.12-11.94,23.85l.26,42.65.44,40.56,6.04-1.41ZM1044.69,398.96l.57-20.6.32-68.03-5.45-10.09-6.31-8.49c-2.15-2.9-3.51-6.28-6.96-7.98l5.32,36.61,1.6,19.01,1.58,17.15,1.93,18.86,1.62,21.24,5.78,2.33ZM935.19,439.46l30.11,1.55,39.45,5.83c2.61.39,4.19-.45,5.23-2.72,3.77-8.2,4.23-16.87,6.12-25.62,3.06-14.14,6.26-28.02,7.6-42.37l-9.54-5.45c-5.46-3.12-12.01-4.67-18.23-6.04l-23.46-5.18c-13-2.02-25.53-3.34-38.48-3.29l-8.34.03c-22.88.09-45.25,3.39-67.12,10.27-6.82,2.14-13.01,5.29-18.9,9.08-.77.49-2.91,1.58-2.78,2.55l1.75,12.76,6.97,33.81,5.57,23.11c7.4-.24,13.51-2.61,20.36-3.5l24.3-3.17,31.53-1.65h7.86ZM826.25,391.81l5.41-13.43c.84-2.08,1.66-3.83,1.9-6.44l-6.23,7c-.72,4.34-1.27,8.4-1.08,12.88ZM820.79,606l-.58-24.82-.13-45.52.31-15.62c.02-1.17-2.87-2.84-4.17-2.98l-.37,39.82-.72,45.71-.14,42.62.52,7.97,1.66,15.55c.49,4.6,6.94,3.69,8.68,6.39,2.71,4.19,4.63,9.01,5.71,13.27l1.8-2.69,3.6,11.72c.84,2.74,5.19,4.96,8.17,6.63l-2.44-9.9c-1.57-6.4-.25-13.41.04-20.17.6-14.03,3.51-27.22,6.5-40.74,1.22-5.52,2.74-10.21,7.54-13.57l2.2-24,.72-16.61-.04-42.93-.74-22.33-1.35-18.71c-.95-13.1-2.04-25.82-4.91-38.71l-5.24-8.34c-3.56-9.14-4.68-18.47-6.59-27.99l-5.46-27.25-2.21-11.51c-1.43,4.44-2.91,8.49-2.35,12.39l2.06,14.36c3.86,15.1,6.9,30.23,12.78,44.59,3.36,8.21,4.57,15.37,5.62,24.08,2.33,19.43,4.06,38.4,4.05,57.9v32.27s-1.42,23.66-1.42,23.66c-.24,4.12-.64,8.84-4.45,11.51,1.02-4.88,1.89-9.21,2.22-13.96l.87-12.52-.05-45.97-.72-16.54-.73-12.16-1.47-17.12c-1.05-12.24-2.55-24.55-8.17-35.91,2.8,14.83,5.25,28.49,6,43.08l1.39,27.19.02,32.95-.74,15.72c-.58,12.2-1.21,24.39-5.9,35.68l-9.67,23.28c-.82,1.96-1.87,2.95-4.24,3.96l1.56,18.42,1.84,16.32.68,10.81c.1,1.64.11,3.07-.56,4.46l-2.95-18.26-3.36-31.4c-2.27-7.74-3.58-15.5-4.69-24.05ZM1033.86,639.87l-1.32,12.65c-1.36,13.04-4.37,25.69-8.24,38.74-1.78-5.87.92-11.26,1.83-16.75l5.33-32.06,1.23-12.62c-2.29-.47-4.04-1.32-5-3.26-4.85-9.83-10.04-19.55-12.32-30.42l-2.52-23.17-.68-13.64.12-42.64.71-17.97.72-12.09,3.43-30.52,2.72-10.32-.69-.43-3.09,9.22c-4.33,17.62-6.18,35.41-7.44,53.49l-.79,11.31-.64,28.24.15,23.84c.05,7.29.1,14.46,1.63,21.5.42,1.92.9,3.25-.39,4.43-3.17-4.24-3.17-8.79-3.44-13.65l-.82-14.61.03-31.08c.88-22.53,2.06-44.54,5.37-66.81.71-4.8,2.28-9.15,3.61-13.66l2.8-9.53,12.66-45.3c2.06-7.37,2.91-15.04-1.87-21.75l-2.84,17.23-8.56,38.6c-.94,4.24-1.16,8.57-3.69,12.17-1.09,1.55-4.02,3.52-4.44,5.49-2.4,11.26-3.03,22.2-3.86,33.53l-1.46,19.87-.66,13.84-.73,19.3-.14,52.62.7,11.55.78,13.47c2.84,1.99,5.39,4.33,6.43,7.84l5.54,18.74,2.88,22.91c1.54,12.24.65,23.58-1.48,36.06,2.6-1.02,4.57-2.84,6.04-5.03,3.99-5.96,7.83-11.81,10.89-18.31l3.84-8.15,5.7-.47,1.96-14.43.74-18.63-.03-40.18-.38-81.99c-2.43-.56-3.62,1.36-3.69,3.49l-.39,11.76-.64,44.57-.7,27.94c-.18,7.22-1.64,14.07-3.29,21.03l-1.61,14ZM1057.66,417.54c-3.67-9.06-10.5-14.1-18.57-17.51l.03,10.3,10.73,4.41c2.38.98,5.06,3.47,7.8,2.8ZM802.03,418.96l18.5-8.07.12-9.46c-3.35.87-5.41,2.05-7.81,3.93l-6.48,5.1c-2.44,1.92-4.26,5.01-4.32,8.49ZM827.95,404.53c.18-.33-.28-2.48-.59-2.38s-1.49.37-1.74.58c-1.34,1.12-2.29,5.08-.49,7l2.83-5.21ZM1036.07,410.38c.55-3.35.48-6.39-1.85-8.68l-.07,5.75c-.01.83,1.18,2.46,1.93,2.93ZM1016.35,486.67l-1.01,29.26,17.33-5.18-.18-105.39c-3.51,4.62-3.18,9.79-3.56,14.82l-4.12,18.85c-4.21,15.7-7.35,31.06-8.45,47.65ZM831.38,413.04l-2.59-6.6c-2.05,2.46-.64,6.13,2.59,6.6ZM1036.78,410.58h-1.98s.74,105.75.74,105.75h1.98s-.74-105.75-.74-105.75ZM823.36,412.36l-.28,104.13h2.7s.28-104.12.28-104.12h-2.7ZM845.11,517.07l-.65-13.63-.72-14.33c-.88-17.56-4.03-34.22-8.4-51.16l-3.18-16.22c-.55-2.79,0-5.59-3.68-7.53l.39,9.08-.1,43.31-.3,43.29c2.85,2.17,6.25,3.42,9.6,4.64l7.03,2.55ZM1044.23,515.11l.33-65.62.17-25.54-.15-5.95c-.04-1.42-2.97-3-4.79-2.78l.29,37.32v16.54s.04,30.42.04,30.42l.48,16.93,3.62-1.32ZM816.35,514.49c.03.99,4.13,1.42,4.13.33l.03-98.79c-1.41-.28-4.73.8-5.07,2.11l.36,79.16.55,17.19ZM995.75,450.67c3.56.66,7.03,2.72,10.54-.08-20.31-4.63-40.07-6.58-60.46-7.77l-29.71.03c-20.05,1.19-39.42,3.51-59.13,7.24l-4.39.62c1.18,1.45,3.09,1.74,5.25,1.35,47.78-8.62,90.09-10.21,137.91-1.4ZM911.44,627.8l39.32.02c16.45-.92,31.92-3.74,47.9-8.94l-.7-10.46-.75-15.08v-50.83s.67-23.32.67-23.32l.63-12.17.75-12.17.6-8.64,1.93-19.42,1.68-11.63-19.56-3.32-31.08-3.28h-40.94s-32.54,3.19-32.54,3.19l-23.58,3.65c2.25,11.09,3.69,21.63,4.53,32.7l1.46,19.26.69,17.3.72,17.84.02,35.96-1.49,24.96-1.56,15.05,10,3.13c13.28,4.15,26.94,6.21,41.31,6.22ZM843.96,522.28c.62.08,1.53-2.29,1.06-2.65s-1.39-.94-2.09-1.21l-14.04-5.51c-3.09,5.97,6.62,7,15.06,9.37ZM1015.72,521.96l16.53-4.45c.7-1.56.47-4.12-.56-4.58l-15.4,4.97c-.92.3-1.16,3.28-.57,4.06ZM827.38,600.94l-.66-26.29-.74-24.26-.35-31.09-2.43.04.43,80.53c.04,7.87,2.05,14.96,3.15,22.65.15,1.08,1.05,2.26,1.85,2.28.72.02,1.78-1.58,1.6-2.31-1.03-3.24-1.9-7.01-2.13-10.53l-.71-11.02ZM1032.31,625.68c2.57-11.37,3.34-22.26,3.66-33.8l.82-29.15.48-40.92.08-2.01c.02-.45-1.36-1.01-1.54-.6s-.55,1.67-.56,2.14l-.25,11.45-.56,26.88-1.96,57.4-2.63,4.7c.2.91,1.34,2.75,2.46,3.92ZM842.5,527.61c1.09.26,2.66-.05,2.66-.79,0-.66-.82-1.98-1.5-2.18l-15.2-4.64.52,4.41,13.52,3.2ZM1017.3,527.3l14.84-3.46c.23-1.04.39-2.9.38-3.86l-16.42,4.1c-.57.14-1.44,1.36-1.36,1.9.08.54,1.77,1.5,2.56,1.31ZM1030.09,604.4l.79-14.01.76-28.47.73-20.09.27-15.42-17.26,3.79.32,44.52c.09,12.65,3.32,23.92,8.42,35.28l4.15,9.25c1.67-5.37,1.53-9.75,1.82-14.86ZM834.06,613.19c6.04-12.94,9.14-25.87,9.9-39.8l.67-12.28.36-30.51-15.82-3.35.31,15.81.66,34.57.74,20.08.59,19.08c1.55-1.21,1.84-1.97,2.59-3.59ZM914.78,710.76l18.28.52,12.89-.53,15-1.34c7.35-.15,14.24-1.69,21.27-3.41,11.19-2.75,21.89-5.37,31.92-11.39,2.14-24.18-.88-48.26-10.37-70.54-1.52-3.57-6.43-1.53-8.87-.79-14.74,4.47-29.41,7.98-44.86,7.97l-40.42-.02c-14.05-.77-27.8-2.45-40.97-6.79l-9.37-3.09c-6.66,5.11-8.16,14.84-9.41,23.25l-1.03,6.92-1.34,8.07-1.46,16.54c-.54,6.05-.79,12.55.34,18.13l5.05,2.61c9.81,5.08,20.66,7.61,31.47,10.13l18.65,2.88,13.24.87ZM819.93,679.28c1.95-3.7.8-5.71-1.95-7.03.27,2.8,1.04,5.26,1.95,7.03ZM1030.04,697.54l-2.27,3.67c.88.12,3.15-.43,4.38-1.48,1.01-.86,1.25-2.72.15-4.1l5.07-15.57c1.48,4.61-2.54,7.44-1.6,12.36,2.81-5.06,4.4-10.37,5.77-16.61-.7-.4-2.95-.67-3.73-.25-.66.34-1.62,1.6-1.86,2.37-2.5,7.94-6.45,14.43-11.05,21.22-2.33,3.44-4.76,5.84-9.28,6.5l-3.98,3.01.82,1.1,5.36-3.23,9.16-3.79c-.31-1.48-.79-3.02-.31-3.62.48-.6,2.08-1.25,3.38-1.58ZM853.42,711.92c-2.03-2.45-4.63-4.56-7.16-5.58-5.34-2.15-13.47-7.03-14.54-9.78l-7.58-19.56-2.12-.7c-.54-.18-1.71,3.36.31,6.34l.05,4.52,1.42-3.72,3.08,7.76c2.24,7.5,7.19,11.51,14.06,14.78l12.47,5.94ZM832.88,694.76l.61-.39-.2-3.98-.61.39.2,3.98ZM1007.76,707.54c4.01-1.64,6.89-4.97,5.82-9.19-16.16,7.9-32.43,12.21-49.67,13.73l-18.39,1.63-30.83.02c-22.36-1.05-44.11-5-64.59-14.06-.37-.37-1.55-1.65-1.7-1.19-.96,2.89.81,6.74,3.06,8.26,7.5,5.07,15.35,8.77,24.28,10.11l19.41,2.91c19.88,2.98,39.36,3.85,59.38,1.47l13.68-1.63,26.18-4.62c4.67-1.22,8.69-5.54,13.39-7.46ZM831.98,703.88c-.41-.61-1.82-1.8-2.25-1.91l1.72,2.89.53-.99ZM832.49,704.63l-.59,1.17c8.44,7.51,24.42,14.15,35.8,15.37-3.47-2.81-7.34-3.42-11.23-4.41-8.44-3.49-16.48-7.53-23.98-12.14ZM993.88,721.32l8.03-2.13c8.67-3.12,17.49-5.95,24.75-12.38-4.79.78-8.33,3.55-12.42,5.31l-12.53,5.39c-2.7,1.16-6.57.25-7.83,3.8ZM974.21,725.21c4.7-.86,9.34-2.49,13.07-5.73-13.09,2.12-24.73,4.99-37.36,4.97l-38-.06-28.99-3.85c-2.82-.38-5.04-1.17-8.25-.48l8.83,4.13c5.52,1.67,11.36,2.07,17.08,2.45l20.99,1.39,21.03.11c10.64-.6,20.99-.99,31.59-2.92Z"/><path d="M936.94,622.84c-3.9,3.08-8.64,3.08-12.87,1.27-2.08-3.91-.47-8.78,3.27-11.01,2.71-1.31,5.61-.18,6.71,2.57l2.89,7.18ZM932.1,621.91c.71-2.39-1.13-6.22-3.19-5.95-1.96.54-3.43,4.22-2.68,6.01,1.34.52,4.54.5,5.86-.06Z"/><path d="M899.71,707.81l-11.84-1.75-11.97-2.51c-9.68-2.03-18.55-6.05-27.83-9.87l.26-21.55,2.43-25.26,3.17-12.1c.85-3.25,2.82-8.12,6.12-9.42,4.16-.07,8.37,2.18,12.35,3.09,12.54,2.87,24.57,4.58,37.32,5.87,26.82,2.71,60.95-.58,86.84-8.52.93-.29,2.54-1.38,3.29-1.14.87.28,2.38,1.75,2.79,2.74,8.09,19.57,11.72,44.77,10.26,66.11l-12.36,5.56c-6.23,2.8-12.71,4.5-19.46,5.67l-8.93,1.55-11.47,1.57-12.56,1.03-15.04.62-20.09-.63-13.27-1.05ZM1009.09,667.07l-2.85-19.06-6.24-19.69c-16.44,5.3-32.32,8.55-49,10l-22.92.14h-10.31c-17.67-.01-35.15-2.39-51.93-8.33-1.9-.67-3.85-1.32-5.75-1.48-3.06,4.76-3.93,9.46-5.09,14.67-3.22,14.48-4.89,28.62-4.54,43.5.06,2.57-.63,4.43,2.5,5.79,18.05,7.82,36.92,12.22,56.74,13.3,26.68,1.46,50.27.71,76.3-5.47,8.92-2.12,16.9-5.8,24.59-10.53l-.5-9.12-1-13.71Z"/><path d="M1038.71,680.16c-.66-.69-1.4-1.88-1.09-2.16l1.55-1.36-.45,3.52Z"/><path d="M1415.68,534.34l-11.18.47h-118.06c-5.97.02-11.13-.53-17.24-1.36l23.77-1.21,127.94-.08c1.46,0,3.04.46,4.9,1.12-3.11.95-6.23.9-10.13,1.06Z"/><path d="M1429.26,552.19c-4.82-.4-8.6-1.78-9.66-6.68l-175.37.05c-3.96,0-7.14.42-10.16,2.22l-.07,19.46c-.02,5.38-4.59,9.93-9.98,9.92l-33.76-.08c-3.56,0-9.44-4.23-9.54-7.83l-.7-24.04-.77-45.14.06-23.83c.06-21.87,6.85-38.47,20.07-55.85-6.08-.03-11.03-.56-16.26-2.23-5.84-1.86-9.09-8.54-6.13-13.98,1.49-2.74,3.86-5.14,6.92-6.05,6.56-1.96,13.67-2.74,20.34-1.78,3.86.56,6.03,4.06,6.07,7.41l.08,5.45c1.35-.66,3.83-1.93,4.46-3.14l9.96-19.35,8.33-13.75c2.32-3.83,4.39-7.28,7.41-10.61,4.11-4.55,8.08-9.27,13.85-11.89,4.14-1.88,8.82-1.36,13.34-1.74l31.48-2.67,12.95-.64,31.31-.24.65-3.51c.16-.84,2.47-.94,3.21-.51s1.23,1.87,1.51,3.9l40.44.43,25.61,1.53,18.72,1.54c7.59.62,13.2,7.28,17.73,12.74l3.2,4.85c6.13,9.3,12.67,18.29,17.06,28.62,2.47,5.81,4.15,13.23,11,13.84.15-3.54-.37-7.24,1.06-9.38,3.21-4.81,19.24-4.41,26.06-.28,3.62,2.19,6.09,5.56,5.95,9.58-.33,9.01-11.81,12.51-22.52,11.83,4.59,5.16,8.37,10.35,10.92,16.55,2.11,5.13,4.29,10.19,5.01,15.7l2.64,20.38-.04,40.16-.75,17.82-.73,18.03-.58,20.06c-.13,4.56-3.94,8.03-8.51,8.04l-34.9.02c-4.22,0-9.07-4.11-9.12-8.44l-.27-22.65-15.47.54c-2.93,3.8-6.67,6.1-12.11,5.65ZM1418.9,351.32l-12.56-.86-14.22-.76-17.18-.72-19.21-.34c-1.18-.02-2.42,1.47-3.41,2.45-3.28,3.27-13.35,1.69-13.29.54l.15-2.8-14.1.27-16.53.45-9.32.56-32.21,2.75c-5.71.49-8.8.48-13.21,8.26,20.51-3.07,39.71-5.83,59.91-6.35l29.29-.75,47.64.8c15.68.26,30.49,2.42,45.79,4.58-2.18-8.3-9.26-7.51-17.55-8.08ZM1495.83,430.55c-4.66-9.82-17.07-14.6-22.08-23.59l-18.12-32.52c-4.5-8.08-9.43-15.8-18.2-20.4,1.06,4.57,3.93,7.74,8.28,8.58,3.57,4.83,6.39,9.74,8.76,15.13l8.95,20.38,1.01,5.17c6.59,5.7,8.86,16.97,4.34,24.9h20.54c1.89,0,4.66,1.72,5.87,2.8l.65-.45ZM1198.14,428.05l7.98.17,18.04-.12-2.21-10.89c-.88-4.35,1.76-8.88,5.18-11.69,1.78-1.46,1.34-3.94,2.07-5.91l5.03-13.69c2.83-7.7,7.29-14.63,12.12-21.28,5.1-1.65,6.17-3.52,7.04-9.09l-9.72,9.24c-4.7,4.47-7.58,10.09-10.83,15.73l-5.45,9.45-4.72,9.68c-2.51,5.16-5.95,10.16-10.8,13.42l-4.14,2.78,5.12-.41c-.67,1.17-1.8,2.45-2.85,2.9-5.12,2.18-8.97,5.18-11.86,9.7ZM1385.25,359.64l22.06,1.62,14.03,1.48,20.15,2.94c4.92,7.84,10.35,15.38,12.85,24.3l2.67,9.53c.37,1.31.46,2.43.98,2.97s3.09-.56,2.78-1.36l-6.93-17.9c-2.59-6.7-6.7-12.58-10.82-18.4-8.92-2.83-17.44-3.96-26.53-4.7l-14.01-1.15-20.09-1.22-20.09-.63-12.15-.32-24.32.68-13.71.5-15.01,1.2-12.35,1.18-11.74,1.3c-7.09.78-13.9,1.56-20.66,3.71,3.3.83,6.06-.22,9.06-.57l10.14-1.21,12.31-1.47,11.06-1,22.24-1.46,40.83-.62,27.26.61ZM1392.28,400.67l35.66.73,26.79.7-.87-6.68c-3.33-9.7-8.26-17.85-13.52-26.87l-19.68-3.26c-51-5.47-102.34-4.93-153.23,1.36l-14.36,2.34c-6.32,10.9-11.85,20.85-16.85,33.17h14.78s20.05-.74,20.05-.74l32.9-.75h88.34ZM1234.13,401.8c1.81-6.45,4.68-12.8,7.83-18.6l8-14.68c-1.69.05-3.69,1.34-4.69,2.91-4.32,6.82-8.18,13.73-10.65,21.54l-2.77,8.77c-.2.62,2.09.73,2.28.06ZM1205.9,412.36l.85-7.25c.24-2.05-1.22-4.66-3.61-4.84-5.58-.41-10.97-.12-16.26,1.47-4.58,1.37-7.99,5.79-7.13,8.55,1.36,4.36,19.26,8.04,26.15,2.06ZM1511.36,408.83c-.96-4.83-5.01-7.92-9.78-8.25l-7.56-.52c-2.47-.17-6.51.59-8,2.73-.96,1.38-.97,5.57.13,6.83l4.87,5.55c8.5.34,17.81.94,20.35-6.35ZM1356.18,426.26c-1.05,4.42-7.74,5.1-10.56,6.69,6.45,2.16,7.1-2.63,11.06-2.62l43.32.1c6.75.02,7.89,4.04,16.41,2.53l8.17-1.44,10.81-.86,13.59-1.45c6-.64,11.59-1.46,17.85-1.03,3.06-7.32,1.96-15.98-2.77-22.13l-8.95-.52-39.34-.66-35.91-.72h-63.81s-39.46.7-39.46.7l-31.51.7-14.61.69c-4.06,1.27-6.64,7.89-6.29,11.71l.91,10.01,10.3,1.37,17.91.88,22.28,3.05c1.6.22,4.82.3,6.11-.27,2.71-1.36,5.48-2.52,8.48-2.55l37.66-.38,9.65-.63-2.18-3.84c-.44-.77,1.03-2.76,1.72-3.35,6.37-5.52,20.68-2.4,19.16,4ZM1489.08,416.96c-1.03-2.25-2.62-3.52-5.12-3.66,1.6,1.47,3.19,2.62,5.12,3.66ZM1353.21,424.55c-5.05-3.11-11.01-2.82-15.01.57,1.55,3.6,4.65,4.79,7.93,4.46,2.65-.27,6.08-1.72,7.08-5.03ZM1200.62,432.2l23.77-.04c-.2-2.01-1.53-2.69-3.21-2.59l-20.98,1.27c-4.23,4.5-4.54,14.94-2.19,20.49.84,1.99,3.65,3.11,5.11,2.48-7.04-2.37-7.02-14.69-2.51-21.61ZM1465.5,429.64h-5.37v1.43h5.37v-1.43ZM1245.63,431.71l-1.26-.61-16.8-.15.36.87,17.71-.12ZM1455.19,431.74l-.02-.72-14.65.2c2.8,2.95,5.87.72,8.45.66l6.21-.14ZM1490.65,451c-3.41,4.77-17.75.19-27.13,2.71,8.05,2.13,17.46,3.02,25.49.77,8.53-2.39,9.1-23.28,1.6-23.39l-19.37-.3c-.64,0-2.52.47-2.51,1.03l.04,1.62,13.29-.42c3.25-.1,7.73-.95,10.46,1,3.01,5.29,1.28,11.68-1.3,16.3l-.57.68ZM1496.27,430.91l-.61.53c1.91,4.43,3.39,9.27,2.44,14.23-1.3,6.81-6.07,12.72-13.5,12.35l-20.74-1.03-3.72,12.56c-1.36,4.61-4.08,9.66-7.41,13.16-3.63,3.81-9.46,3.99-14.22,4.45l-9.99.97-153.18-.12-23.12-.7c-6.46-.19-13.76-2.68-17.04-8.55-1.19-2.12-2.22-5.49-2.83-7.85l-3.58-13.76-8.56.56c-6.25.41-15.28,1.85-20.88-2.03-7.06-4.89-6.43-15.73-2.66-22.33.01-1.44-.36-1.53-1.23-1.06l-5.97,11.67c-3.78,7.38-5.33,15.49-5.33,23.99v34.55s1.47,14.27,1.47,14.27c.91,8.84,3.19,17.19,7.05,25.11,1.17,2.39,3.65,3.86,6.19,3.86l22.34-.05c3.06,0,6.24-.34,9.66-1.24l-33.49-.75c-2.12-2.49-2.27-11.71-1.54-13.96,1.72-5.29,3.51-10.83,7.41-14.75,3.44-3.44,8.71-5.71,13.96-5.71h258.01c5.28,0,11.93,2.85,13.87,6.95l4.89,10.35c3.14,6.64.97,16.59.04,16.3l-2.33-.74c.95-1.89.55-2.58.57-4.36.09-7.52-.9-14.8-6.04-20.65-1.74-1.98-4.41-2.23-7.21-1.2,5.82,3.85,12.06,8.85,10.02,16.08-1.68.6-4.55,1.55-6.19,1.53l-17.28-.19c-5.88-.06-10.44-5.11-12.88-9.78l-4.32-5.31,6.58-.91c-1.56-1.37-2.75-.38-4.65-.38l-194.58.05c-12.37,0-12.03,6.95-17.03,11.22l-6.19,5.28-23.63.15c-2.14.01-5.9-1.31-6.04-3.7-.34-5.95,4.06-11.01,9.03-13.38l14.42-.59-16.35-.93c11.68-2.65,22.52-1.12,34.16-1.11l56.42.03h9.61s58.45,0,58.45,0h9.02s87.54-.19,87.54-.19l16.48.04c-2.39-1.5-5.08-2.17-8.47-2.17l-235.33.07-16.63.06c-8.11-1.09-15.08,2.11-18.85,9.6-1.19,2.36-4.06,5.75-4.11,8.45l-.2,12.74,21.25-.13,19.56-.76,180.69-.22c1.42-1.16,3.69-3.44,5.12-3.51l14.23-.72c1.29-.07,2.95,2.53,3.52,4.03l20.75.56,24.16,1.39-19.3.77-.76,1.32,24.83.46c3.02.06,5.7-1.69,7.14-4.47,2.5-4.84,4.26-10.05,5.13-15.55l2.05-12.97,1.22-11.57-.03-34.14c-.01-13.06-4.86-25.38-11.29-36.15ZM1343.57,433.19c-2.25-1.48-3.71-2.14-5.45-.27l5.45.27ZM1289.93,432.51v.72h18.99v-.72h-18.99ZM1399.57,432.51h-8.24v.72h8.24v-.72ZM1440.42,432.51h-8.24v.72h8.24v-.72ZM1446.36,439.36l16.71-.9c.76-1.23,1.46-3.33,1.86-5.29l-15.68,1.1-23.47,2.56c-.31,1.11-.06,2.65.55,2.94.49.24,2.11.73,2.64.7l17.38-1.1ZM1204.67,438.38l19.96-.17c.46-1.06.66-2.71.1-3.31s-2.6-1.12-3.46-1.1l-17.02.46c-.91.02-2.22.1-2.8.43-1.4.78-3.58,11.48.18,16.42,7.64,2.07,15.31,1.42,23.07.91,1.41-.09,2.54.15,2.99-.53.37-.56-.45-3.19-1.34-3.2l-21.32-.16c-3.29-1.72-3.3-8.66-.35-9.74ZM1268.74,436.92l-9.69-.92-16.41-1.45-14.56-.86,1.25,4.79,13.07.82,18.83,1.18c1.08.07,3.88.94,4.52.15l2.99-3.71ZM1265.61,434.52l-.39-.62-4.7.18.39.62,4.7-.18ZM1422.91,435.56l6.12-1.42c-2.91-.64-5.87-.34-9.08.96,1.52,4,3.27,6.34,6.82,8.88l-3.87-8.42ZM1270.47,435.95c-.4-1.68-2.6-1.84-2.89-.21l2.89.21ZM1490.61,442.01l.18-7.16-19.67.57c-2.08.06-3.9,1.12-3.56,3.33l17.42-.56c.8-.03,2.8-.95,2.78-.39-.02.46.02,1.6-.34,1.82l-1.88,1.16,1.97,4.71c1.01.54,2.47-1.7,2.58-3.03l.52-.44ZM1426.98,447.88l-11.09-11.01-5.56.4-16.57.2.71,3.72-.05,18.36c0,3.15-2.52,5.85-5.82,5.85h-84.81c-1.97-.01-4.5-1.11-5.93-2.23l-.06-22.88c0-.85.91-2.54,1.53-3.58l-23.83.03c-1.66,1.13-3.47,3.63-4.44,5.51-6.25,12.2-24.9,14.37-38.51,15.1l2.43,12.21c1.46,7.31,6.39,13.76,14.53,14.19l17.23.91,163.51.18,8.21-.75c4.12-.38,10.72-1.22,13.41-4.95,4.63-6.42,6.05-14.63,8.21-22.02-11.4-1.04-25.53-1.69-33.11-9.21ZM1253.22,450.74l4.96-1.27c5.82-1.49,11.15-6.04,12.66-12.21l-8.41,8.97c-9.98,1.55-20.85,1.97-31.31,2.02-.87.18-.65,3.15.23,3.47,8.75,1.26,14.74-1.95,21.88-.98ZM1300.7,460.81l-.07-20.46-.63.4-.13,18.16.13,2.32.7-.42ZM1389.41,439.98l-87.35.08.02,19.47,87.35-.08-.02-19.47ZM1226.09,445.27c.21-.91-.12-3.12-.76-4.24l-19.64.04c-.81.67-1.23,2.89-.78,3.61.38.6,1.85,1.38,2.64,1.35l18.54-.75ZM1262.86,442.89l-15.13-.98-18.18-.94.87,4.55,24.45-.33c2.97-.04,6.21-.2,7.99-2.3ZM1433.58,445.09l26.29.32c.88.01,2.57-.36,2.96-.99s.49-2.17.47-3.49l-21.47,1.02-12.36.85c.44,1.25,2.27,2.27,4.11,2.29ZM1485.84,445.76l-2.27-4.75-15.93.07-1.58,4.27,15.12.31,4.67.1ZM1491.13,442.7l-.22.22-.65,4.59c-.16,1.11-3,1.69-4,.81l-20.15-.16c-.62.35-1.66,1.96-1.33,2.6s1.81,1.03,2.79,1.13l20.88.11,1.75-1.47c.14-.11.18-.25.34-.54l1.28-2.96c.49-1.14.02-3.39-.68-4.32ZM1443.79,450.73c9.2-1.74,19.18,3.54,18.09-2.6l-27.02-.83-4.92-.36,7.34,3.95c7.43,2.99,16.07,3.92,24.09,3.07-3.18-1.73-6.43-1.93-9.41-2.28l-8.16-.95ZM1243.29,453.67l8.03-1.67c-3.2-.52-6.07.69-9.59.92l-9.21.6c.86.84,1.67.9,3.03.78l7.74-.63ZM1212.78,454.15l-8.11-.08-.03,1.36,15.69-.23-7.55-1.06ZM1300.9,461.81c.82.54,3.01,1.51,4.16,1.51l82.87-.02c2.12,0,4.33-2.65,3.62-4.09-.7,1.05-2.45,2.68-4.21,2.68h-82.96s-3.32-.73-3.32-.73l-.15.66ZM1477.08,516.15l-1.22-.59-4.64.2.36.64,5.49-.24ZM1238.01,524.45c2.99-2.79,4.02-4.22,6.3-7.23-2.53-.69-4.28-.94-7.2-.73l2.89,2.19-1.99,5.77ZM1234.85,522.08c1.15,0,2.53-1.26,2.65-2.61l-25.08-.34c-1.35-.02-3.39,1.19-4.55,2.85l26.98.09ZM1458.86,524.67c-.49,0-2.12-.51-1.99-.91l.54-1.78,26.18-.1c-1.08-1.89-3.2-2.68-5.12-2.66l-25.5.32,3.54,5.83c2.51,4.12,7.34,5.6,12.04,5.63l17.71.13c.9-.86.84-3.89.05-5.07-.65-.96-2.88-1.79-4.3-1.77l-23.15.39ZM1229.08,531.11c2.42.02,5-3.41,5.6-6.3h-27.93c-1.67.77-2.51,5.88-.64,6.14l22.98.16ZM1230.25,566.52l.16-18.51-7.86.75-15.04.04-10.71-.38c-3.77-.13-6.72-2.61-8.11-6.08l-4.67-11.62.25,10.91.41,25.61c.06,3.47,3.78,6.34,7.21,6.33l20.65-.08,10.09-.39c3.72-.14,7.57-1.79,7.61-6.57ZM1461.21,568.17c.01,3.49,3.72,5.22,6.13,5.18l8.27-.14,25.01-.2c3.4-.03,5.75-2.45,5.78-5.81l.23-22.95.3-11.78-6.73,13.65c-.95,1.93-4.66,2.55-6.68,2.55l-19.46.05-9.97-.3c-.83-.03-1.9-1.52-2.96-2.96l.08,22.69ZM1437.02,541.76c1.43-.12,1.77-1.85.28-2.09l-13.47,1.25-1.35,2.51,14.55-1.66ZM1423.49,547.37c5.81,2.35,14.34,1.34,14.93-2.74l-13.36.99-1.57,1.74Z"/><path d="M1440.78,415.62l-21.56-.65-29.05-.97-105.58.31-17.18.7-26.34.13c2.56-.9,5.1-1.28,8.03-1.4l37.24-1.56,15.15-.49,92.25.05,11.59.41,32.92,1.46c5.43.24,10.6-.1,16.16,1.92-4.51,1.16-8.69.25-13.64.1Z"/><path d="M1559.46,831.99c-3.25,7.47-8.28,12.59-14.62,17.42-4.16,3.17-9.4,4.93-14.88,5.82-14.3,2.34-29.2-.99-39.51-11.17-4.68-4.62-7.54-9.89-10.49-15.67-1.69-1.26-5.01-.12-6.98,1.59l-112.44.45-148.43.29c-2.28,0-5.2-.98-6.83-.29l-6.19,9.81c-10.61,16.83-39.89,21.63-57.53,8.74-6.89-5.03-12.34-10.55-15.55-18.78l-7.29,2.8-16.5-1.33-21.88-1.9c-8.22-.71-16.43-2.1-23.95-5.38-3.77-1.64-3.4-5.89-1.73-8.64,2.66-4.39.27-8.58-2.47-12.43v-11.51c2.99-4.99,3.84-9.05,4.45-14.69l.69-6.44c1.3-12.1,45.44-25.04,60.31-27.6l31.08-5.35,11.94-1.63,29.59-3.58c3.22-.39,6.45-3.4,9.11-4.96l16.81-9.88,17.28-9.18,13.94-6.92,23.46-11.01c26.65-11.09,54.92-16.57,83.83-16.95l43.83-.58,32.96.57,15.8.75,22.07,1.54,30.11,2.88,42.73,4.6,41.55,5.07c2.51.31,6.25-.53,7.13,3.03.48,1.94-1.6,4.56-3.81,6.63l13.53,14.19c1.86,1.95,4.52,4.68,6.78,5.77,2.82,1.37,4.04,1.96,4.69,5.12l4.94,5.49c2.63,2.92,4.19,7.54,5.37,11.09l-.93,12.26c-.28,3.74-.59,6.76.35,10.55.51,2.04,1.37,5.06,2.87,6.39,6.18,5.5,7.21,12.69,5.83,20.48-1.09,6.18-1.33,12.44-5.43,17.54-2.39,2.97-5.32,6.5-8.29,8.87l-35.92,9.21c-5.58,1.43-10.81,2-16.78,1.01,4.32-9.93.55-26.2-5.48-33.91-16.16-20.66-46.73-25.24-67.57-9.02-8.82,6.87-17,19.77-17.28,31.1l-.28,11.41,5.13-.77c-2.91-13,2.68-27.14,12.29-37.14,12.2-12.68,35.1-15.86,50.64-6.35,6.69,4.1,12.33,9.92,16.3,16.4,6.58,10.73,6.66,22.65,1.66,34.17ZM1510.36,737.09l7.46-.16,10.02-.43,12.89-.92,15.79-1.32,16.67-1.3,28.9-.46c-1.37-1.85-2.56-3.39-3.85-4.24l-14.37-9.48-14.52-11.07-8.26-7.5-10.38-11.39-43.42-5.04-29.88-3.08-27.83-2.2-14.57-.67-13.59-.75h-60.29s-22.78,1.57-22.78,1.57c-16.69,1.14-32.74,4.3-48.72,9.17-.61,1.48-.71,3.25-.32,4.91,15.05-4.53,29.42-8.46,45.07-9.62l31.33-2.33,25.25.14,18.34.56,14.4.74,68.8,7.69c11.59,1.29,22.08,4.46,32.82,8.83l5.42,4.45c1.84,3.53-.38,7.18-2.2,10.02l-2.3,3.58-8.94,5.99c-5.7,2.76-11.71,3.93-18.28,5.29l2.93,8.93,8.42.09ZM1336.65,687.58l6.3-.6,18.41-1.25,20.97.06,21.53.53,26.22,1.61,33.33,3.2c.27-.01,1.3-1.58.84-1.78-.3-.13-1.36-.5-1.7-.54l-14.94-1.63-27.04-2.2-17.46-.5-7.8-.49-30.88.15-10.7.5c-5.32-.4-9.94.64-15.12,1.11l-9.96.9c-11.28,1.98-21.93,3.96-33,7.32-14.25,4.34-27.8,9.91-40.78,17.3l-18.27,10.4-20.21,11.33-4.63,3.02,1.38.91,19.88-10.28,20.22-12.05,17.18-8.71c20.6-10.45,42.91-16.13,66.24-18.34ZM1374.56,733.36l4.35-42.96c.1-.96-.57-2.56-1.24-2.87s-2.66.41-2.77,1.14l-2.43,15.33-5.5,30.81c2.96.17,5.76-.15,7.59-1.46ZM1275.25,740.43l10.41-.67,13.62-.79,11.46-.66,13.59-.78,8.62-.59,12.16-.83,8.94-.72,7.6-31.28,3.35-15.8-12.76.79-26.56,2.74c-19.33,3.04-37.8,8.06-55.01,17.19l-18.29,9.7-9.93,6.19,10.86-2.4,4.2,10.95c1.24,3.22-.36,5.68-3.07,8.17l11.65-.57,9.14-.64ZM1363.77,734.2l5.61-31.63,2.23-12.31c.14-.77-1.03-2.34-1.72-2.15-.55.15-1.43,1.21-1.6,1.88l-2.38,9.87-4.81,21.05-3.68,14.13c1.78.96,6.03.92,6.34-.84ZM1450.78,728.71l7.87-1.32,4.76-33.34-36.12-3.39-8.67-.66-13.6-.69-23.09-.72-1.19,11.17-.69,13.6-1.8,19.88,8.49-.29,6.37-.53,17.82-1.6,15.86-.78,24-1.33ZM1216.11,729.11l18.14-10.53,14.28-8.04,18.62-9.31,19.06-8.1-.19-3.83-7.65,2.52c-18.69,7.48-36.37,16.33-53.89,26.18l-10.6,5.95-16.97,9.74-3.37,2.69c10.28.34,15.14-2.98,22.55-7.28ZM1473.68,691.25c-1.66-2.17-5.13-2.01-6.46-1.38-.42.19.23,1.75.69,1.77l1.68.1c1.39.08,3.32.05,4.09-.49ZM1479.2,693.52l.5-.82c.14-.24,1.23-.3,1.55-.24l12.48,1.99c6.23,1,12.04,2.1,17.97,4.07,5.13,1.7,10.38,2.96,14.73,6.39-1.31,10.69-16.84,16.95-27.76,18.47l-.99,1.13c-.19.21,1.17.57,1.56.68,7.16-1.04,13.85-3.18,20.05-6.72,4.3-2.84,8.1-6.31,9.32-11.77.33-1.48-1.8-4.63-3.21-5.15l-9.51-3.55-22.62-5.42-7.66-1.28-10.39-.95,3.43,3.67.53-.51ZM1585.48,693.99c-7.06-2.03-13.69-1.19-20.34-1.89-2.97-.31-5.3-1.33-8.56-.54l8.56,8.64c6.99-1.16,14.12-1.54,20.34-6.21ZM1466.64,707.92l.73-11.5c.09-1.39-.05-2.28-.87-3.16l-3.27,22.25c-.7,4.77-2.08,9.2-.52,14.21l3.92-21.81ZM1479.72,693.91l-1.05.71,8.92,17.41,3.62,8.66c.29.69.82,1.57,1.23,1.98.31.31,1.95-.47,1.93-.65l-4.49-10.18-6.15-11.65-4.01-6.29ZM1489.65,723.07l-8.22-16.4-4.81-8.77c-.9-2.07-4.24-3.8-5.84-2.54l-2.16,18.76-2.28,12.66,23.31-3.71ZM1501.26,699.02c-1.04-1.96-3.01-1.77-4.28-.97l4.28.97ZM1522.78,705.26c-.08-.47-2.33-1.29-2.1-.94l.62.96c.11.18.24.53.65,1.7l-17.07-4.87-18.19-3.53,3.25,6.7c1.95,5.52,3.76,10.3,7.73,15.3,9.75-.25,26.36-8.17,25.12-15.32ZM1616.5,737.23c.22-1.03.34-2.97,0-3.33l-11.54-12.07-5.8-6.07-17.22-15.65-4.46,1.64,7.17,7.08,14.58,11.33,4.03,3.71c5.49,3.88,9.8,7.99,13.23,13.37ZM1519.96,703.64l-3.56-1.03c.77,1.59,2.3,1.77,3.56,1.03ZM1612.28,734.94c-3.7-4.65-7.94-7.39-12.12-10.72l-17.2-13.74-5.8-5.61c-1.12-1.08-2.55-2.43-3.61-2.21-1.39.29-3.19,1.09-3.9,1.8l13.82,10.62,16.07,11.06c4.42,3.04,8.04,6.54,12.74,8.81ZM1494.53,725.64c2.21-.66.56-2.09-.49-1.05-1.61.59-1.09,1.11.49,1.05ZM1118.44,755.38c3.13,1.01,5.81,1.79,8.38,1.48l13.67-1.64,42.65-4.67,19.33-1.63,16.4-.8,3.91-9.57c6.31-3.49,11.92-7.47,16.52-12.36l-11.99,6.9c-4.21,2.42-8.82,4.51-12.23,7.45-1.11-1.33-3.08-2.37-4.57-2.22l-13.72,1.4-7.32.55c-.67,2.58-2.36,4.43-4.85,4.72l-23.09,2.68-18.51,2.9-24.58,4.8ZM1238.17,740.78c-1.22.22-2.32.89-2.16,1.42.12.4,1.44,1.39,1.89,1.3l10.01-1.93c2.45-.47,6.22-2.91,6.7-5.41.62-3.22-1.63-7.36-3.78-9.71-7.83,1.13-14.91,3.83-13.81,11.53,4.26-.16,10.38-1.17,14.21-2.05.59-.14,1.81.91,1.48,1.32-.24.31-1.28,1.16-1.78,1.25l-12.75,2.29ZM1488.47,726.83l-.39-.62-4.7.18.39.62,4.7-.18ZM1430,815.58l15.66-1.68c3.86-.41,8.37-1.04,11.91-2.33,8.81-9.06,13.11-22.07,20.44-29.87l11.38-12.1c6.37-8.48,10.35-17.81,11.17-28.28.05-.61-.21-2.34-.78-2.46l-2.75-.57c-.52-.11-1.47-1.07-1.67-1.58-.15-.39.69-1.17,1.09-1.05l2.78.79-2.79-7.86-34.49,4.03-18.71,1.54-24.96,1.67-7.28.53-14.34.77-15.03.72-15.2.64-3.08,18.57-.18,42.24,1.45,17.27,13.11-.46,52.27-.54ZM1589.16,738.64l9.62-.72,9.88-1.18c-1.98-2.47-3.55-2.16-5.72-2.07l-17.05.75c-4.68.21-9.05.11-13.41,2.04,5.7,2.23,10.9,1.61,16.67,1.18ZM1230.19,744.41l-.1-3.34c2.44-.96,4.06-3.53,2.67-6.11l-8.9,8.91,6.32.53ZM1058.55,820.78c6.46,2.52,12.66,4.24,19.56,4.87l30.06,2.76,9.86.48-.45-10.67c-.35-8.38,2.77-15.61,6.2-23.08,3.6-7.84,10.2-13.11,17.5-17.61,15.87-9.79,42.89-8.09,55.76,4.26,9.2,8.83,15.18,18.83,17.1,31.69l.86,13.13,192.29-.12,10.95-.45,52.94-.09c-1.96-13.25.54-26.93,9.42-36.67,3.75-4.11,7.59-8.79,12.49-11.71,5.66-3.36,12.48-5.73,19-6.6,10.51-1.41,24.2-.07,32.91,5.37,8.86,5.53,14.91,10.26,19.34,19.42,4.23,8.74,6.52,17.35,4.16,27.67l28.68-5.66,9.69-2.55c10.23-2.2,14.2-7.21,9.57-6-5.62,1.47-11,2.17-16.87,2.52-1.66-6.57,4.42-6.44,7.76-13.25l14.43-5.61c1.24-.48,3.98-.67,4.07-2.21.67-11.62,1.34-15.24-9.21-23.64l-3.89-11.32-16.09-.38c-4.45-.1-9.45-1.78-13.5-3.41l-12.26-4.93c-3.63-1.46-6.25-4.87-7.26-8.34l1.33-3.12-19.19,1.86-15.81.39-7.19.43-8.74.64-11.23.83-.2,5.86c-4.57,25.24-19.64,31.43-28.96,46.09l-12.58,19.78c-4.16,6.54-35.21,6.13-47.15,6.62l-10.06.41-47.05.54-22.87.78-29.35.65-18.57.71-32.91.77-26.98.39c-1.68-.88-3.88-3.62-4.49-5.64-3.74-12.41-6.67-24.94-6.75-38.09l1.46-22.13,1.35-6.27-21.48,1.51-44.52,4.54-24.08,3.31c-1.33,2.09-2.66,5.53-4.5,6.94-9.64,7.38-20.98,10.84-32.91,12.29l-20.16,2.46c-3.29.4-3.85-4.09-4.4-6.07l-.59-2.13c-.11-.39-1.17.09-1.3.47-.88,2.51,1.08,7.79-3.5,13.98-3.9,5.27-4.08,10.93-2.53,17.86l4.68-4.19c6.3-3.11,13.19-4.38,20.15-3.63,5.23.57,10.5,9.58,11.03,14.63,1.1,10.44-16.01,11.78-28,8.03-2.66-.83-4.01-1.86-6.92-3.95l-.12,4.56ZM1104.7,755.7l20.01-4.15c19.62-4.07,39-6.81,59-8.94.84-.09,2.74-1.19,2.81-1.5-.26-1.32-.52-2.19-.19-2.62l1.2-1.59c-26.8,2.76-52.76,6.23-78.85,12.29-13.42,3.12-25.84,7.44-38.02,13.59l-5.57,3.9c-.99.69-1.66,2.51-1.3,3.63l7.08-4.35c10.58-5.54,21.94-7.8,33.84-10.26ZM1582.43,741.61l-11.25-1.73-2.15-2.3c-.47-.5-2.47.9-2.41,1.45,1.09,1.97,3.63,4.09,5.76,5.04l12.71,5.62c-1.32-3.12-1.96-5.17-2.67-8.07ZM1217.83,787.12l4.6,24.53c.6,3.19,2.19,6.35,4.45,8.44l39.13-1.01,50.75-1.45,44.4-.75c.94-.73.61-2.99.61-4.21l.02-61.21,2-12.95-13.66.84-14.32,1.02-13.63.81-15.62,1.15-45.97,3.27-20.1,1.26-9.4.6c-3.29.21-7.44.58-10.36,1.9-1.61,3.81-2.9,8.01-2.9,12.07v25.68ZM1608.77,743.77l1.74-2.8c.31-.5-1.05-2.32-1.58-2.04-.87.47-1.8,1.91-1.48,2.48l1.32,2.35ZM1591.27,743.91l-3.88,5.21c5.4,3.72,15.91,2.88,24.14,3.01l-1.53-5.61c-.16-.6-.32-2.49-.85-2.36l-3.17.76.28-5.06c-1.07-.09-3.48-.13-3.56.63l-.36,3.6-2.02,1.46c-.94.68.76,3.09-1.17,3.81-.28.11-1.07-.78-1.03-1.07l.99-6.45,1.58,1.49c.18.17.64-.41.67-.65l.27-2.01c-5.58,0-11.29-1.34-17.09,2.16l6.74,1.08ZM1614.13,752.91c1.26.11,3.4-.57,3.65-1.32.2-.61-.51-1.76-.89-2.54.95-2.78,1.48-6,1.15-8.65-1.23.13-2.19.2-2.19.54l-.04,2.15c-.02,1.08-.98,2.29-2.78,3.93l2.83,2.43-1.72,3.46ZM1106.28,760.51c2.43,3.77,2.26,4.67,3.46,8.53l6.64-5.02c1.26-.95,2.5-2.48,3.35-3.87l-10.01-.64c-2.94-.19-7.25.91-10.17,1.89-1.71,3.99-2.47,7.68-2.28,12.05,2.98.46,6.68-.87,8.09-2.77-.01-3.81-.31-6.56.92-10.16ZM1122.99,762.42c.42-.23.93-1.65.98-2.12.03-.32-.97-.54-1.26-.4l-1.26.6-3.58,4.76,5.12-2.84ZM1096.79,761.79c-2.68-1.58-5.5-.2-5.6,2.7l5.6-2.7ZM1091.42,774.87c-2.26-4.93.88-8.55-2.04-9.95-3.87,2.19-5.59,6.66-3.66,10.92l5.7-.96ZM1074.7,778.09c-.31-4.44.36-6.22,1.81-10.6-4.57,1.15-6.59,8.56-5.15,9.18l3.34,1.42ZM1081.56,773.61c1.85-1.44,2.78-3.84,1.26-6.21-1.62,1.66-1.79,3.86-1.26,6.21ZM1079.45,774.64l-.41-5.81c-1.21,1.86-2.17,5.56-2.14,7.42,0,.59,2.35,1.22,2.48.71s.15-1.2.07-2.32ZM1093.33,768.56l-.8,2.41,1.9.63.8-2.41-1.9-.63ZM1196.35,789c7.87,8.62,12.17,18.66,11.74,29.63l-1.5,8.75,5.24-.35-.4-9.28c-1.29-9.82-4.33-19.04-10.58-26.81l-4.17-5.19c-10.08-10.04-24.78-13.21-38.5-10.93-15.57,2.58-31.06,14.17-34.72,29.45-1.86,7.77-3.4,15.62-1.85,23.89.19,1.04,3.38.4,3.32-.63l-.51-8.18c-.9-14.3,5.61-27.25,17.64-35.52,16.45-11.3,40.52-9.92,54.29,5.16ZM1195.15,839.64c8.99-10.63,11.9-26.13,5.41-37.64l-4.18-7.41c-7.23-9.1-19.12-14.73-30.71-14.24-13.42.57-22.63,5.82-30.46,15.94-12.24,15.81-8.5,37.15,7.28,48.79,7.9,5.83,16.99,8.37,27.23,7.25,9.26-1.02,19.03-5.12,25.43-12.69ZM1508.67,850.51c12.01,4.04,26.33,2.06,35.91-5.39,16.36-12.74,19.31-35.22,6.03-50.66l-6.7-6.86c-4.37-4.47-11.11-6.03-17.33-7.11-13.37-2.33-27.52,2.43-35.86,13.03-11.62,14.77-11.31,31.59.48,46.25,4.14,5.15,10.46,8.38,17.48,10.74ZM1622.97,801.18l2.3-6.06c-5.03.56-8.78,1.21-12.68,3.93,3.52.05,5.73-.82,8.95-1.77l1.42,3.91ZM1086.89,817.9l1.08-7.38.94,4.87c2.23-2.47.7-4.61.06-6.96-1.38-5.05-5.52-9-10.89-7.24,4.58,2.28,7.91,5.04,7.87,9.54-.07,7.91-6.81,5.22-8.31,8.86l9.25-1.69ZM1600.94,809.58l13.52-2.54c1.99-.37,4.81-2.4,5.8-3.45l-2.63-2.6c.27-.27-.98.54-.85.9l.52,1.49c.25.72-1.81,1.71-2.53,1.54-.6-.14-1.21-1.03-2-2.04l-7.93,2.45c-1.86.58-3.53,2.03-3.91,4.24ZM1076.2,815.91c3.99.04,7.37-2.51,7.22-6.28-2.59-4.27-8.14-8.1-13.12-7.18-3.46.64-4.47,5.05-3.98,7.78,1.02,5.79,7.5,7.61,7.86,7.31l2.01-1.63ZM1069.38,817.98c-3.01-1.68-5.64-3.08-6.17-5.14-.89-3.43-.15-5.11,1.2-9.25l-3.89,2.1c-.86.46-.81,3.33-.71,4.39.44,4.97,4.28,8.88,9.57,7.9Z"/><path d="M1548.12,775.22c.08-1.43.73-2.33,1.74-3.39,10.31-5.81,20.65-10.54,31.73-14.65l1.22-.89c.34-.25,1.33.74,1.15,1.12s-.99,1.44-1.53,1.66l-15.78,6.58-18.53,9.57Z"/><path d="M1355.93,753.15c.55,3.07-5.84,2.1-12.25,5.42-1.54.8-5.21,1.74-6.95,1.18l-8.81-2.81c-.89-.28-2.14-1.04-2.35-1.73-1.05-3.42,9.72-8.59,16.44-7.06l6.31,2.23c2.27-.82,3.58-1.22,5.51.1.84.58,1.96,1.87,2.1,2.67ZM1343.6,755.79c2.59-.23,4.45-1.33,4.18-2.5-.76-3.23-11.27-5.5-14.04-1.48l8.83.7,2.22.18c.39.03.11,1.17-.11,1.49l-1.07,1.61ZM1352.33,753.55c.42.03.81-1.54.39-1.51-.29.02-1.39.08-1.61.25l-1.04.85c-.19.15,1.66.36,2.26.41ZM1333.54,755.26c-.37-1.3-1.04-2.87-1.53-2.64l-3.02,1.35,2.39,2.06c.48.41,2.08-.38,2.15-.76ZM1342.78,756.62c-2.03-3.3-6.49-2.8-8.42.26,2.21.95,5.2,1.19,8.42-.26Z"/><path d="M1484.62,751.07c-8.44.82-12.87,6.35-20.26,2.58,4.39-.44,7.62.53,10.81-2.54l-11.27-.2c-1.65,1.81-3.14,1.87-5.54,1.13-1.13-.44-2.92-1.58-3.07-2.54-.66-4.15,12.46-11.53,21.27-6.21l7.58.21c2.56.07,4.25,1,4.48,3.11.29,2.68-1.05,4.18-3.99,4.47ZM1481.82,748.28c1.78-.05,3.91,1.7,4.75-1.87-6.17-.38-12.35-.98-18.5-.08-2.18.32-3.75.5-5.94-.15-1.74-.51-4.26.93-4.12,3.33l8.3-.76,15.51-.46Z"/><path d="M1524.74,846.72c-13.51,1.84-29.96-6.38-33.84-18.81-2.25-7.21-2.39-14.15-.06-21.55,3.6-11.42,15.04-18.88,27.17-19.71,9.74-.66,20.27,2.8,26.31,10.18,5.6,6.84,7.46,14.77,7.19,23.36-.2,6.22-3.11,11.71-7.06,16.72-4.52,5.73-11.81,8.73-19.7,9.8ZM1517.9,836.54c-.09,1.76-.38,3.33-.99,3.65s-2.11.38-2.78.16l-2.27-.76c-.47-.16-1.28.94-2.09,1.9,10.34,5.64,27.8.18,33.84-8.54,1.88-2.72,3.16-6.77,4.05-10.17,1.51-5.79-.45-15.35-3.47-20.46-5.44-9.2-15.98-12.95-26.41-12.59-13.62.48-27.25,13.5-26.13,28.55.78,10.51,7.82,19.63,17.06,22.86,1.75-6.17,6.54-9.51,6.56-16.16l4,1.92-6.79,11.23,5.41-1.58Z"/><path d="M1196.41,824.06c-3.9,16.01-20.6,25.67-36.16,22.55-6.74-1.35-13.63-4.25-17.41-9.59-3.21-4.52-6.61-9.45-7.35-14.75-.93-6.66-.02-13.83,3-19.66,1.52-2.93,3.85-6.54,6.26-8.62,5.93-5.12,14.12-7.7,21.8-7.25l7.29.43c9.28,2.69,16.77,8.83,21.4,17.28l1.23,5c.22,4.62,1.15,9.63-.07,14.61ZM1159.65,836.59l-2.5,5.72c6.03,2.91,17.24,1.61,21.75-2.21l-1.93-1.8c-.37-.35.3-1.48.94-2.61.89,1.15,1.52,2.35,2.16,3.98,7.47-3.5,11.8-10.56,13.31-17.29,2.68-11.91-3.68-24.53-14.96-30.04-10.73-5.24-25.28-2.42-33.63,6.51-4.43,4.74-5.87,11.71-6.32,18.02-.41,5.69,2.36,11.29,5.07,16.41,2.33,4.39,7.71,7.21,11.98,8.58,1.05-6.41,5.32-13.45,9.25-17.81,3.59,3.13,4.69,5.93,5.29,9.89l-5.34-5.41c-1.08,1.26-2.45,3.23-3.28,4.91l-1.31,2.64.49.58c1.83,2.17,5.55,2.78,8.26,1.44l4.11-2.04c1.13-2.29-.75-7.05-2.31-8.88-.39-.46.11-2.25.62-2.11,2.85.77,3.69,4.93,4.74,9l-2.29,5.58c-3.76.74-7.23,1.25-11.49,1.19-1.32-.02-2.47-2.83-2.09-3.78l-.53-.48Z"/><path d="M1594.88,742.19c.36-.18,1.14.51,1.25.88.15.5-.58,2.15-1.04,1.91l-1.97-1.05c-.46-.24,1.26-1.49,1.76-1.74Z"/><path d="M1604.85,746.92c.26.28-.06,1.07-.38,1.34s-1.75.66-1.81.25l-.29-2.21c-.04-.29.8-.96,1.01-.77l1.48,1.39Z"/><circle cx="1594.95" cy="748.25" r="1.21"/><path d="M1081.06,810.37c-1.9,2.8-4.58,3.52-7.13,3.37-1.94-.11-5.46-2.09-6-4.27-.1-2.74,3.92-5.16,5.82-4.75l3.52,2.43,3.78,3.23ZM1075.13,808.25c0-.71-.57-1.28-1.28-1.28s-1.28.57-1.28,1.28.57,1.28,1.28,1.28,1.28-.57,1.28-1.28Z"/><path d="M1504.86,801.13l5.33,5.9,4.81,3.99c-2,1.55-3.11,2.38-3.47,4.33-.72,3.96,5.21,5.03,1.83,8.73l-5.67,6.21c-1.61,1.36-5.9,2.59-7.51,3.19.31-3.91-1.75-9.13-4.02-11.64l-1.26-1.39c-.24-.26,1.29-.98,1.46-.95l4.25,3.33,2.08,7.5c4.36-2.34,7.03-4.57,9.93-9.19l-9.27,2.87c-.02-4.05,6.29-2.11,6.55-6.58h-15.56c-.16-2.5,0-5.95,2.8-7.53l-1.72,5.5,15.27-.78-13.22-7.29c-.6-.33.35-2.75.78-2.43l2.28,1.69c3.39,2.5,6.93,4.5,11.12,5.63l-4.22-5.51c-1.51-1.97-3.72-3.16-6.4-3.59-.18-.43-.3-1.91.16-2.07l2.61-.93,5.77-5.69,1.67,1.33c.4.32.84-1.24,1.06-2.33l6.86-1.39.33,14.45c.01.64,1.16,2.36,1.65,2.18,4.76-1.8,3.31-6.67,3.97-11.93l1.13,3.7,4.8-6.3,5.87,5.48c.8.75,2.06,2.22,2.46,2.99l-12.11,8.75c-.33-.44.13-2.42.9-3.06l8.32-6.81-5.01-4.47c-5.04,4.64-3.52,9.54-8.12,13.02l2.81,3.33c.23,1.39,1.29,1.09,1.35-.56l11.76-5.91c.61-.31,1.87-2.3,2.38-1.94.5.35.97,1.33,1.07,2.28.08.73-1.73.87-2.47,1.11l-8.23,4.47-4.85,2.33c-.66,2.03-1.95,4.81-3.43,5.65-2.23,1.26-5.52,1.11-7.46-.64-1.23-1.12-1.6-3.54-1.04-4.97.46-1.16,2.98-2.73,3.98-1.91,1.05.87,2.09,2.27,2.26,3.07.23,1.07-1.2,2.19-2.98,2.82l2.46,1c.65.26,2.18-1.11,2.41-1.78.6-1.72.27-4.58-.76-6.16-.78-1.21-3.55-1.63-5.04-2.65-4-2.74-5.15-7.44-7.99-12.15l-4.74,3.68ZM1517.77,804.83l-.04-9.38c-.02-.63-2.38-1.33-2.81-.87l-2.12,2.32,2.52,7.52c.15.45,2.2.68,2.46.41Z"/><path d="M1527.13,823.73c2.07,2.43,6.3,5.19,9,6.42,4.06-1.07,5.14-4.93,6.44-8.11l.95-2.33c.96-2.36-12.38.77-15.7-3.76l14.97-.14.14-6.76c1.15,1.04,2.39,2.56,2.45,3.57s-1.08,2.91-1.74,3.93l1.78,2.07c.4.47-2.34,9.59-5.58,14.38-6.52.1-12.43-4.57-15.6-9.61-.19-.3.89-2.03,1.11-1.76l1.79,2.11Z"/><path d="M1525.06,837.25c.46.15,1.99.17,2.03-.32l.23-3.22c2.61,1.42,1.06,5.94-.84,6.96-.51.27-2.48.03-2.75-.47-.34-.63-.46-1.63-.79-3.02l-2.3-9.68c-.11-.48,0-2.54.38-2.36l1.73.8,2.32,1.08c.65.3.7,2.14.58,3.07l-2.35-2.44,1.76,9.61Z"/><path d="M1535.94,826.07l-7.32-4.64-1.45-.92c-.33-.21.24-1.66.63-1.64.52.03,1.48.27,2.08.6l5.86,3.2c.31.17,1.07,1.41,1.2,1.74s-.2.66-1,1.65Z"/><path d="M1526.17,796.71l-2.76-3.8c1.25-.58,2.94-.7,3.47-.01.6.79.22,2.5-.71,3.81Z"/><path d="M1534.75,833.94c.94-.06,2.27.39,2.46.88.24.61-.69,2.34-1.32,2.19l-2.01-.47c-.62-.14.18-2.56.87-2.6Z"/><path d="M1506.65,837.82c-1.32-.41-2.15-2.76-1.17-3.74.55-.17,1.94.39,2.3.94.44.66-.39,3.03-1.14,2.8Z"/><path d="M1147.99,814.03l11.03,1.29.91,2.82,2.53-4.95c.49-.96,8.09-3.13,10.33-1.26.35-.81,1.51-2.8,2.34-3.39l6.81-4.84c-3.44-1.83-2.1-5.42-8.02-8.05-1.31,5.71-3.47,14.21-7.17,13.7l5.52-16.78c5,1.4,8.64,5.46,10.79,9.61l2.26.4c.55.1.92,1.5.76,2.04s-1.92.51-2.41.89l-9.84,7.72c-.47,2.56.66,7.14-2.68,8.65-2.08.94-6.75.09-9.09.03-.72.31-2.84,1.24-3.03.53-.27-.97-.37-1.89-.5-3.69l-6.79-1.36-9.86-1.31c1.24-3.34,3.71-2.33,6.11-2.05ZM1165.46,818.04l.6-2.53c.1-.42-1.1-1-1.6-1.12-.94,1.39-.57,4.33.49,5.31,2.37.03,1.79-1.08.51-1.65Z"/><path d="M1172.77,822.96c1.96-1.5,3.79-.54,5.08.93l5.21,5.95,4.61-9.04c.46-.89.99-2.3,1.02-3.35l-14.54.67c4.28-4.53,9.99-3.89,15.64-2.98.9,3.18,1.03,7.05-.97,9.87l-6.09,8.6-5.95-7.26-3.99-3.39Z"/><path d="M1146.43,803l6.83,3.55c2.14,1.11,5.01,1.87,7.54,1.32.72-4.15-.69-7.91-3.69-10.84-3.14,2.29-5.29,4.79-9.51,6.05,2.94-4.47,6.13-7.03,10.56-10.07l2.71,5.91c.4-2.33.55-4.81,1.27-5.95.88-1.4,4.29-2.11,5.66-1.49.28.13.63,1.83.33,1.88l-1.6.26c-.69.11-2.73.15-2.89.83-.19.82-.3,2.58-.19,3.5l1.35,11.55-3.44-1.71-1.11,4.75-13.99-6.44c-.72-.33-1.66-.94-1.87-1.47-.35-.88,1.3-2.03,2.06-1.63Z"/><path d="M1156.24,821.76c-2.53,3.44-5.45,5.66-9.35,8.52-4.18-4.95-7.87-11.78-3.88-12.02,1.11,3.28,2.29,6.09,3.97,8.75,3.5-2.47,4.33-5.27,9.27-5.26Z"/><path d="M1151.01,834.7c-.48.48-1.65,1.07-2.04,1.05-.52-.03-1.55-.84-1.81-1.25l5.88-5.21,5.35-4.93,1.47-.81c.26-.14.45,1.8.24,2.01l-9.09,9.13Z"/><path d="M1145.09,806.61c1.05-.21,1.14,6.02-.92,6.11-2.56-1.34-.83-5.75.92-6.11Z"/><path d="M1182.08,822.38c-2.16.69-4.51-.1-6.45-1.61,1.94-1.58,5.23-1.76,6.45,1.61Z"/><path d="M1189.13,813.07c-.52.48-2.34-.4-2.66-1.03s.36-2.32,1.03-2.62c1.31-.59,2.8,2.58,1.63,3.65Z"/><path d="M751.41,855.92c-10.25.39-19.96-1.08-28.11-6.73-4.12-2.86-7.59-6.65-11.1-10.35-2.24-2.35-3.55-5.47-5.16-8.65l-4.98.51-104.7-.24-146.48-.39c-7.69-.02-8.6-4.62-11.25-3.36-2.7,6.4-6.06,12.26-10.86,17.52-11.61,12.71-32.17,14.69-48.88,8.05-2.89-1.15-5.39-3.15-7.86-5.05-11.53-8.85-12.91-17.44-15.31-19.54-.6-.53-2.7.48-3.55.36-17.67-2.46-34.54-6.66-51.52-12.01-3.63-3.5-7.38-7.74-9.15-12.27-3.67-9.41-4.56-19.19-2.34-28.9,2.55-2.99,6.93-6.54,6.98-10.77l.28-27.8c2.7-6.55,7.5-9.81,10.18-15.67,4.87-3.53,8.73-7.71,13.21-11.73l9.12-8.18c4.34-3.89-5.23-5.04-3.6-9.14.95-2.4,3.33-2.16,5.61-2.5,40.28-5.97,80.22-10.88,120.83-13.66l18.04-1.23,11.84-.57,25.77-.67h31.58s25.16.68,25.16.68c22.19.58,43.92,3.87,64.67,11.87l18.15,7,18.53,8.64,18.34,9.62,17.92,10.03,17.26,10.03c2.93,1.7,6.03,1.53,9.54,1.99l35.35,4.57,14.11,2.36,20.3,4.01,16.88,4.66,15.42,5.46c6.29,2.23,12.32,5.69,17.64,9.55,1.12,1.55,3.46,4.91,3.81,6.69l.91,8.53,1.14,8.02c3.92,4.25,4.17,14.65,2.64,17.66-1.74,3.41-4.4,7.39-2.35,11.17l2.46,4.53c-2.46,4.15-6.47,6.49-11.18,7.05l-34.38,4.07-17.64,1.4-8.91-1.84c-3.09,7.02-9.08,15.73-14.64,18.82-6.1,3.39-12.24,6.11-19.75,6.4ZM417.22,728.62c-9.94-2.58-20.57-4.46-26.27-12.02l-4.72-6.25c-.86-1.14-1.61-3.67-1.48-5.08.28-3.09,7.53-7.5,9.62-8.05l22.78-6c19.55-3.59,38.7-5.8,58.37-7.5l17.15-1.48,12.9-.76,22.42-.67,17.37.05c25.77.07,52.72,3.52,77.25,11.27.35-1.73.24-3.64-.32-4.74l-14.67-3.97c-17.29-3.22-34.09-6.22-51.71-6.27l-53.53-.16-11.51.67-15.77.78-24.84,1.54-6.72.45-47.52,4.73-29.23,3.55-6,7.9-5.96,6.75-18.14,14.89c-5.13,4.21-11.54,6.36-16.75,10.51l-4.87,3.88,26.75.36,17.21,1.25,17.21,1.26,32.97,1.62,3.68.27,4.31-8.78ZM649.3,708.32l19.05,10.33,16.12,9.63,13.72,8.13c-1.03-3.08-3.6-4.12-6.06-5.76l-8.11-5.38-17.41-9.93-17.99-9.35c-13.12-6.81-27.07-11.38-41.51-15.05-12.67-3.21-25.06-4.55-37.87-5.92l-11.04-.47-6.44-.43-32.91.03-16.49.55-21.48,1.53-28.99,3.03c-3.62.38-7.09.25-10.52,2.79,3.71.73,6.73-.46,10.1-.81l26.49-2.73,22.25-1.61,15.04-.94,8.6-.38,28.42.14,24.21,2.23c18.91,1.74,37.31,5.14,54.75,12.62l18.04,7.74ZM539.86,733.48l6.85.03-3.4-19.46-4.1-25.26c-.47-.51-1.64-1.51-1.85-1.04-.16.35-.72,1.81-.67,2.28l1.33,13.14.86,18.08.99,12.23ZM556.74,733.29l-10.93-44.55c-.71-.69-2.85-1.58-3.27-.91-.35.55-.3,1.83-.14,2.69l5.56,30.27,2.04,13.03c2.24.48,4.77.67,6.74-.54ZM493.81,730.75l14.35.75,15.02.75,13.94.45-1.47-12.36-.61-7.16-1.77-24.86-13.71.33-17.13.88-20.12,1.55-29.29,2.73,4.49,35.32,14.76.5,11.41.52,10.15.59ZM655.58,727.07c2.9-5.54,13.73-4.54,11.63-5.45l-1.74-.75-18.44-10.24-20.91-9.32c-16.44-6.02-33.24-9.29-50.68-10.87l-26.13-2.37,6.46,25.52,4.51,20.97,43.28,2.88,11.88.63,39.84,2.78c-2.89-4.81-2.14-9.09.31-13.76ZM357.23,696.1l4.4-7.02-29.24,4.27c5.41,5.19,11.7,4.59,17.59,6.2,3.27.89,5.52-.7,7.25-3.45ZM701.33,731.15c5.13,3,10.79,5.42,16.84,3.75l-30.42-17.74-21.45-11.56-24.42-11.37-11.75-4.16c-.73-.26-2.42-.31-3.16-.21s-.8,2.83,0,3.16l15.46,6.43,17.89,8.57,9.81,5.17,15.63,8.85,15.57,9.11ZM392.61,700.68l1.29.63,17.54-4.93,25.31-4.55c-3.29-1.75-6.42-.32-9.67.15l-8.92,1.28-9.28,2.41-6.23,1.64-10.04,3.37ZM422.97,724.51l4.8-9.75,7.3-14.25c1.63-3.18,3.4-5.75,4.5-9.46l-2.44,2.97c-4.15,5.07-6.44,10.67-9.32,16.6l-6.71,13.86c-.18.37-.12,1.24.03,1.6.1.24,1,.14,1.12-.1l.72-1.47ZM448.08,726.16l-.79-10.65c-.5-6.71-.04-13.5-1.5-20.15-3.53-1.39-5.74,1.66-7.3,4.32-4.5,7.69-8.79,14.92-11.45,23.56,3.94,3.15,12.24.22,21.04,2.93ZM450.78,695.44h-.72v6.81h.72v-6.81ZM415.35,698.74l8.46-1.45c.24-.04,1.45-.88,1.2-.88l-1.65-.03-9.02,1.52-1.29.34c-.24.06-.06.9.18.86l2.11-.36ZM419.55,719.43l5.35-10.44c1.89-3.69,4.36-6.55,5.36-10.65-12.94,1.96-24.37,5.24-36.75,9.09,4,6.08,9.72,8.68,16.01,10.74,2.95.96,7.08,2.24,10.03,1.26ZM412.12,699.59l-.39-.61-3.98.2.39.61,3.98-.2ZM319.67,720.21l14.39-11.82,6.6-6.39c-1.95-.87-3.88-1.44-5.67-1.5l-16.64,16.64-7.91,7.13c4.06,1.8,6.45-1.79,9.22-4.06ZM407.1,701.02l-.39-.61-3.98.2.39.61,3.98-.2ZM391.57,701.51l-2.63,1.58.7,1.16,2.63-1.58-.7-1.16ZM397.91,702.93c-2.38-.55-4.16.35-5.89,1.76,2.3-.18,4.24-.68,5.89-1.76ZM319.88,725.55l12.5-8.02,6.05-4.66,10.18-8.55c-1.76-1.29-4.43-1.52-5.53-.47l-3.14,2.99-2.59,1.98-17.34,14.23c-3.25,2.67-6.3,4.84-10.77,4.97l-4.82,3.65c-.45.34-.83,2.59-.29,2.43l1.96-.58,13.8-7.96ZM451.63,709.09l.62-.39-.18-4.7-.62.39.18,4.7ZM448.81,714.18l.6-1.22-.2-4.64-.64.36.24,5.49ZM396.54,714.66l-2.13-2.72c-.12.01-.44,1.86.04,2.03l2.09.7ZM450.25,728.43l.59-.38-.22-13.87c-2.73,2.59-.89,5.45-.75,7.87l.37,6.38ZM787.49,753.46c-19.34-3.8-38.37-7.1-58-9.08-3.53-.36-5.37-2.62-7.1-5.3-3.22.46-6.99.8-10.07.33l-8.6-1.31c-.47-1.68-2.33-3.14-2.6-2.29l-.61,3.23c-.09.46-2.1.19-2.77-.03-9.85-3.27-17.74-12.59-29.66-16.4l14.81,10.24c4.79,3.31,7.86,8.69,10.41,14.37l26.56,1.59,15.11,1.4,22.09,2.33,20.06,2.83c6.2.87,12,1.69,18.79.11l-8.43-2.03ZM665.37,737.87l-7.54-2.36.46-2.68c6.19,1.85,11.75,4.65,18.25,2.92-3.23-4.2-7.5-8.25-12.22-9.39-5.79-1.4-9.23,8.94-7.34,11.65.65.94,2.88,2.3,4.04,2.33l11.98.36c.76.02,2.56-.86,2.85-1.23-3.72-.35-6.93-.49-10.48-1.6ZM549.78,816.57l1.06-12.47-.07-43.95-1.73-18.93c-.08-.84-.62-2.38-1.06-2.95-.35-.45-1.78-.47-2.55-.5l-12.22-.58-16.47-.81-11.47-.65-13.63-.77-8.6-.66-15.04-.78-15.07-.77-32.88-3.7-4.5,7.41,6.9,1.36c-1.85,2.87-8.43-.04-8.08,3.57.41,4.18.98,7.89,2.53,11.55,4.25,10.04,10.6,18.5,18.82,25.58,4.34,3.75,8.62,7.93,11.21,13.03,2.88,5.68,6.05,10.9,10.24,15.77,4.59,5.33,11.65,6.4,18.46,6.65l21.28.78,13.67.66,24.77.61,14.42.53ZM686.8,743.54c-.96-4.63-3.74-7.32-7.35-9.52.15,3.47.03,5.39-.54,8.86l7.89.66ZM343.47,735.68l-34.12-.15c2.75,2.04,4.68,2.2,7.24,2.54,9.1,1.21,18.68,1.92,26.87-2.39ZM851.06,818.17c-2.07,1.14-5.62,2.83-7.89,3.02-8.3.7-20.53,1.28-23.71-3.29-1.42-2.05-2.31-5.17-1.51-7.57,1.54-4.58,4.08-9.25,7.86-11.96,4.66-3.33,18.66-.82,24.09,3.05l3.43,2.44c1.53-4.03,1.08-7.62-.57-11.12-3.26-6.92-4.95-12.39-3.73-20.65-.49-.12-2.16.2-2.26.78l-.4,2.19c-.39,2.12-1,4.58-2.25,6.43l-16.7-1.81c-8.75-.95-16.88-2.76-25.28-5.78s-15.48-8.42-21.19-15.4l-14.2-2.33-26.75-3.16-31.44-2.82-14.5-.65,3.15,17.62-.12,19.31c-.8,12.03-3.9,23.32-7,35.12l-47.57-.41-27.97-.78-32.35-.66-19.15-.73-36.02-.72-37.82-1.45-14.15-.51c-14.64-.52-21.37-6.57-27.91-19.96-2.85-5.83-7.08-10.9-11.74-15.34l-7.74-7.39c-7.54-7.19-12.9-16.43-15.43-26.8l-.38-7.43-18.85-.57-17.51-1.22-10.61-.77-11.83-1.26c.8,2.21,1.16,4.98-.25,6.54-10.99,12.13-30.99,13.46-47.2,13.57-1.48,5.93-3.17,11.3-6.62,15.8l-5.35,6.97.22,13.29,11.02,2.86c5.96,1.55,13.78,9.74,15.56,16.08-2.25.76-4.62.76-6.69.49l-12.98-1.69c.22.95,1.63,2.7,2.8,3.07,15.19,4.72,30.16,8.4,45.72,11.06-3.54-14.95,3.73-32.76,14.89-41.38,4.57-3.53,9.39-7.24,15.06-9.26,16.16-5.75,34.4-3.43,48.57,6.23,3.13,2.13,5.72,5.53,8.2,8.27,5.96,6.59,9.47,14.48,11.1,23.28l1.05,5.65c-.8,3.01-1.52,6.11-1.09,9.47l91.34.36,67.74.19h5.94s86.23.09,86.23.09l-.21-3.66c1.14-9.54,3.35-18.71,6.22-27.86,3.7-7.56,9.55-12.77,16.56-17.25,15.13-9.66,40.18-9.43,54.58,1.97,11.02,8.71,19.54,22.98,19.54,36.64v12.32s7.72-.39,7.72-.39l15.95-1.32c9.8-.81,31.35-2.69,34.33-7.25.31-.47-1.45-1.86-2-1.56ZM847.84,769.65c-.18-1.61-1.44-3.58-2.71-4.21l-16.61-8.38-18.72-6.45c-28.47-7.24-57-11.4-86.79-14.14,1.49,1.94,3.27,3.53,5.13,5.08,22.2,3.12,44.05,6.28,66.09,11.06l18.85,4.09c8.34,1.14,16.19,3.33,23.54,7.14l11.23,5.81ZM302.42,752.03v-15.15s-1.43,1.34-1.43,1.34v12.61s1.43,1.19,1.43,1.19ZM308.59,739.04c.17-.46.4-2.16-.02-2.05l-1.18.31c-.28.07-.93,1.08-.96,1.37l-.84,8.56,2.99-8.18ZM312.62,750.39c-.51.4-1.63,1.13-1.74.75s-.5-1.83-.42-2.2l1.96-9.61c-.76-.52-2.6.37-2.7,1.18l-1.15,8.87c-.08.59-.94,1.78-1.41,1.71l-1.78-.27c-.25.02.12,1.73.57,1.76l2.25.15,7.17-.48,17.67-2.75c8.57-1.34,22.89-12.15,15.45-10.9l-11.02,1.86-2.91,4.39c-.54.82-1.16,2.09-1.87,2.09h-2.91s4.8-6.25,4.8-6.25l-10.84,1.52-2.34,6.03c-.2.51-.78,1.19-1.16,1.48-.28.21-1.21-.92-1.06-1.24l3.47-7.47-8.26-.6-1.78,9.99ZM693.46,760.31l-2.45-11.92-14.49-1.2-15.4-1.24-45.18-3.53-9.66-.7-7.89-.62-11.45-.81-9.37-.61-13.61-.8-12.99-.63,2.63,28.56-.03,29.2-1.08,20.52,7.28.34,41.92.77,58.55,1.45,27.92.47,4.82-20.97,1.8-13.39c.68-5.06.5-10.17-.13-15.24l-1.2-9.65ZM804.44,761.46c2.58.51,2.65-.5,1.81-1.65l-12.65.23-6.28.12c1.78,2.62,2.86,3.36,4.53,4.01-.42-1.52-.84-2.66-.3-2.64l2.41.1c2.71,3.77,6.51,6.92,10.8,9.56-.53-4.05-.82-6.89-.31-9.73ZM815.49,774.01l-1.88-8.69c-.82-2.81-2.82-4.79-6.1-3.89l.15,9.99,7.83,2.58ZM817.06,769.44c2.04-3.36,1.02-5.53-1.91-5.86l1.91,5.86ZM826.23,775.8l1.78-8.23-7.52-2.93.72,5.5c.22,1.71.58,2.63.42,4.69l4.61.97ZM838.09,776.78c1.18-.09,1.11-3.61.32-4.47l-4.42-4.77-.3,9.57,4.4-.33ZM842.39,772.54c.62-3.25-1.55-3.81-3.4-3.06l3.4,3.06ZM411.87,778.2c7.21,2.66,13.29,5.95,17.62,11.51,7.79,10.01,12.82,21.34,10.49,33.83,1.16.1,2.86.17,3.52-.19,2.69-1.45.89-20.27-8.85-31.59l-6.6-7.68c-13.72-12.15-38-14.61-53.53-4.46-7.07,4.62-13.59,9.49-17.37,17.09-4.36,8.78-6.23,17.75-3.4,27.4l2.74.17c-.92-10.07-.75-19.17,4.43-27.35,3.76-5.94,8.1-10.76,14.1-14.78,10.53-7.06,24.68-8.44,36.85-3.95ZM777.79,790.82c9.05,11.55,12.57,22.87,8.93,37.06,1.31.97,4.03,1.08,5.15,0,.37-8.24-.04-16.92-3.18-24.69-3.22-7.95-8.19-15.41-15.02-20.74-14.14-11.04-37.76-11.72-52.44-1.01-11.03,8.04-17.59,18.69-18.45,32.22-.38,5.93-1.17,15.01,1.48,13.62l1.6-.84c-3.83-16.58,2.26-32.67,16.14-42.74,7.93-5.55,18.17-8.46,28.25-7.66,7.23.57,14.02,4.03,20.12,7.43,3.2,1.79,5.15,4.44,7.43,7.34ZM841.38,777.82c1.58-.64,2.43-2.53.26-3.96l-.26,3.96ZM385.44,850.16c16.17,5.55,34.28.55,44.05-13.26,9.77-13.8,8.33-28.19-.86-42.17-4.04-6.15-10.93-9.98-18.08-12.63-11.18-4.14-24.39-2.58-34.35,4.29-2.96,2.04-5.57,5.07-8.01,7.82-6.66,7.53-9.93,18.41-7.9,28.16,1.84,8.85,6.91,15.4,13.18,21.26,3.35,3.13,7.12,4.86,11.96,6.52ZM775.13,841.28l4.78-7.8c9.76-15.92,2.08-38.27-14.48-47.95-10.15-5.93-21.25-6.84-32.42-2.84-5.33,1.91-9.64,4.55-13.52,8.77-3.52,3.82-6.62,7.38-8.49,12.43-4.53,12.26-2.24,26.03,7.11,35.52l4.23,4.29c16.03,12.5,39.79,11.92,52.79-2.42ZM298.09,801.97c1.35-3.17.12-6.32-2.93-6.41.39,2.43,1.35,4.75,2.93,6.41ZM310.75,801.79c-3.29-3.93-5.91-4.43-10.06-5.63-.32.46-.81,2.86-.12,3.14l2.4.97c2.59,1.05,5.2,1.69,7.77,1.52ZM849.3,809.08c-3.23,5.92-9.13,8.24-15.81,8.51-3.25.2-8.88-2.94-9.01-6.67-.18-5,5-7.46,8.58-10.28-4.7-2.72-12.06,6.73-11.65,10.54.69,6.36,7.01,7.8,12,7.63,6.2-.21,12.51-.06,16.94-4.6l1.63-8.25c-.46-.26-2.71-.48-2.71.17l.02,2.94ZM844.36,802.37c-2.47-1.26-5.12-1.26-7.76-.06l-6.66,3.03c-1.86.84-2.98,5.41-1.89,7l5.77,3.17c4.55.28,10.33-3.13,10.02-7.99-.08-1.29-1.62-3.71-.6-4.28l1.11-.87ZM844.77,802.58l-.49.77c1.03.92,2.26,1.79,3.86,1.26l-3.37-2.03ZM318.54,809.36l-3.89-5.69-9.5.66c-1.71.12-3.02.59-4.38,2.22l17.76,2.82Z"/><path d="M369.2,774.96l-20.68-10.25-12.68-5.82-1.13-.77c-.34-.23-.06-1.94.32-1.76l1.77.83,18.88,8.36,14.08,7.4c.26.13,1.07,1.22,1.21,1.43.13.2.14.52-.1.53l-1.68.05Z"/><path d="M581.6,755.98c.93,4.3-8.76,3.79-12.09,1.44-1.93-1.36-2.94-2.58-5.51-2.21-2.91.42-6.84-1.07-6.21-4.33.45-2.32,4.03-1.29,5.4-1.54l13.1-2.31c2.01-.35,4.28.58,5.88,1.88,3.6,2.91,8.2,1.94,7.78,4.22-.13.69-.98,1.88-1.57,2.38-2.43,2.1-5.06-.19-7.2-.29l-12.68-.6c4.14,2.74,8.22,1.53,13.1,1.36ZM583.06,752.44c-1.71-1.73-4.18-3.01-6.04-2.66l-9.83,1.82c5.19,1.19,9.72,1.53,15.87.85ZM566.16,751.27l-5.88.09c.88,1.56,2.68,2.23,4.26,2.08l2.39-.23c.32-.03-.46-1.94-.77-1.94Z"/><path d="M458.09,750.89c-6.97,3.78-16.71,3.14-16.96,2.65l-1.27-2.54c-3.23.21-6.95.52-10.37-.64-1.09-.37-1.91-3.15-1.46-4.15.58-1.29,2.48-2.94,3.85-3l7.28-.32c3.55-.15,7.61-2.65,11.04-1.04l6.43,3.02c.99.47,2.24,1.33,2.71,2.03.54.81-.29,3.46-1.25,3.99ZM450.96,744.15c-3.07-1.68-6.56-2.04-9.46,1.07,3.05.26,6.19.05,9.46-1.07ZM436.1,747.98l1.31-2.05,1.09-.75c.05-.04-.78-.61-.84-.65l-6.18,1.32c-.56.12-1.75,1.01-1.51,1.49.67,1.36,5.65,1.39,6.13.64ZM449.93,749.42c2.47.21,5.09,1.29,7.05-2.16-2.3-.54-4.88-.86-7.12-.66l-11.22.99c4.15,1.57,7.35,1.49,11.3,1.82Z"/><path d="M429.2,816.77c0,17.13-13.89,31.01-31.02,31.01s-31.02-13.88-31.02-31.01,13.89-31.01,31.02-31.01,31.02,13.88,31.02,31.01ZM402.91,820.38l.15-4.41c.15-.04,1.02-.04,1.08.23l.4,1.76c4.8,1.89,8.56-1.51,12.91-.57,2,2.48,4.36,3.91,7.39,3.4l.25-10.71c-1.74-8.54-8.57-15.76-16.33-18.7-3.77-1.43-7.22-1.38-11.1-1.58-9.15-.48-18.91,3.57-22.97,12.14-2.27,4.8-4.55,10.05-4.56,15.28-.01,5.37,1.83,11.2,4.97,15.84,6.9,10.18,20.65,12.72,32.38,9.57l-3.6-3.01-6.18,2.1c-1,.34-3.11-1.23-3.59-2.13l8.31-1.64-3.3-9.15c-.22-.6-1.11-1.39-1.61-1.58-1.44-.54.1,6.08-3.98,6.72.21-4.07.97-7.34,4.44-9.97,4.22,3.31,3.08,6.33,5.79,7.73.22.11.29-.81.24-1.05l-.32-1.74c.89-.44,2.45.4,3.78,2.11l-3.45,1.05c.55,6.77,4.54,7.34,4,9.92,8.55-2.41,14.98-9.07,16.76-18.77l-3.35.07c-1.17.02-.7,4.91-4.44,8.17l-1.61,4.05-5.82-5.79c-4.25-4.22-7.87-4.18-9.64-7.69l-.53-.31c-.94.33-3.29.63-4.25.11-2.54-1.36-4.42-6.57-1.86-9.21l-.17-.62c-3.97-.82-6.42-5.31-4.89-9.24,2.56-.2,2.81,2.84,3.38,4.17l2.06,4.84.24.46,4.1-.41c1.87-.19,4.54,3.13,3.75,4.97l-1.87,4.3.45.41,1.99-.63.61-.47ZM395,816.78l2.91-2.96c-2.55-1.05-4.36,1.41-3.74,3.47.36,1.21,1.29,4.02,4.03,1.71l-3.2-2.22ZM402.65,821.39c.35.47,1.28,1.28,1.93,1.79l9.05,7.08c2.88-1,5.74-5.2,4.34-8.68-.91-2.27-5.37-2.43-7.34-1.16l3.06,2.6c-.29.52-1.31,1.6-1.66,1.23l-1.88-1.95c-1.28-1.32-4.9-1.64-6.87-1.48l-.63.57Z"/><path d="M737.58,845.28c-6.6-1.77-12.8-4.86-16.09-10.58-3.15-5.46-6.32-10.96-6.15-17.5.11-4.26.58-9.37,2.64-13.03l4.89-8.66c11.66-10.87,29.79-12.15,42.53-2.76,4.98,3.67,9.23,8.5,10.43,14.64,1.28,6.56,1.7,13.81-.24,20.22-4.48,14.86-23.03,23.56-38,17.67ZM763.73,803.07c-3.94,3.5-6.98,4.45-9.59,8.88l14.3-5.94,1.3,4.71c-1.09-.73-3.19-1.77-4.14-1.33l-10.69,4.88-3.64-3.9c2.39-2.83,5.98-5.31,9.02-6.97l-4.15-6.82-2.59,5.53-3.41,5.62c-.43.71-.72,3.07-1.51,3.13l-3.09.23c-1.3.1-3.39,1.47-4.11,2.82-1.46,2.73,2.52,6.05,2.14,6.96-.14.33-1.16.8-1.42.56l-1.63-1.47-12.73,10.7c.82,1.31,2.48,2.45,3.39,2.24.78-.18,2.57-1,3.1-1.6l7.8-8.98,5.23,2.7,3.48,9.78c.35.99-.17,3.61-1.06,4.1-1.6.88-4.37,1.42-6.9,1.1l5.22-3.36-.67-6.17-4.23.83c-3.22.63-4,5.7-2.62,7.69.38.56-.14,2.16-.64,2.01-.37-.11-1.53-.77-1.76-1.12-.7-1.07-.3-3.61.32-4.93l5.05-10.75c-4.56-.37-4.33,8.14-9.58,10.06-9.96,3.63-7.54-9.1-13.73-18.91,1.15-5.75,8.98-8.02,6.89-10.85l-1.88-2.56c-.44-.6,2.4-.48,3.05-.8l7.89-3.86,5.32-7.4c-7.26,1.54-17.41,7.05-18.94,11.56-3.69,10.88-5.86,19.12.75,30.05,3.16,5.22,9.04,9.4,14.77,10.4,1.92.34,2.52.47,4.37,1.27,3.18,1.38,7.67.47,11.61-.43,0-.87-1.24-2.26-2.13-2.9l2.48-1.83c.58-.43.46-2.84.1-3.44l-5.45-8.99,1.08-1.82c.22-.38,1.62-.1,1.64.34.19,3.7,3.53,8.22,5.94,9.73,1.79,1.13,2.69,1.68,3.49,2.9l-3.68-1.29c-.52,2.47-1.12,4.41-2.25,7.14,12.71-4.19,20.13-15.91,19.39-28.56l-4.06-.68c-.54-.09.19-1.91.71-1.82l2.62.47c-.77-10.16-14.4-21.6-22.07-21.78l-9.23-.21-.28,3.95c-3.46,1.81-4.27,5.7-2.6,8.69l-2.21,3.74-.49-7.41-6.75,3.31,7.54,4.75c1.84,1.16,3.13,3.74,6.1,2.55l-4.1-4.74c.05-.22.49-1,.8-.94l1.92.36c-.09-3.81-.32-7.08,2.22-10.45l1.03,13.06c.05.57.33,1.45.58,1.92.18.35,1.67-.77,1.85-1.24l3.55-9.06c.54-1.37.12-2.67-.49-4.24.22-.04,1.39.46,1.55.85l.59,1.4,3.9-3.35c-.08,2.83.05,4.08,1.57,5.46l4.89,4.48ZM739.29,818.07c-3.08-3.76-6.24-2.78-9.81-3.04l-2.08-.15c-.38-.03-.5-1.1-.41-1.3l5.74-2.39,4.73,1.61,1.72.84c.33.16,1.15-.67,1.04-1.03s-.69-1.38-1.08-1.69l-9.68-7.52c-.86,2.33,1.08,4.3,2.52,6.57l-3.95-1.51c-2.07,1.91-4.76,4.59-5.9,6.72.09,2.97,3.5,4.03,5.92,4.21l7.11.52,4.14-1.85ZM734.25,821.99l-8.25-1.25c-.32,2.91.03,4.32,1.61,6.76l6.64-5.51Z"/><path d="M323.16,748.6l2.14-5.47c1.23,1.7,2.31,4.99-2.14,5.47Z"/><rect x="314.77" y="747.94" width="2.52" height="2.45" transform="translate(-482.42 902.77) rotate(-78.02)"/><path d="M840.23,809.5l-7.03,3.79c-1.29-.9-2.21-3.34-2.01-4.85.17-1.28,1.73-3.45,2.63-3.9l3.7.87,3.01.67c.72.16.5,2.99-.3,3.42Z"/><path d="M379.3,831.71c-.52.87,1.46,2.81,2.38,2.61,5.29-1.18,7.89-6.47,11.38-11.3.41,2.59-.39,4.86-.73,7.2l.38,10.02c-1.11.43-3.46.54-4.33.38l2.33-9.66-6.88,5.23c-2.03,1.54-8.06-4.31-8.47-5.82-.3-1.11.74-3.63,1.29-4.75l-2.61-6.08-2.6-2.01,5.36-1.29-.42,4.01c-.08.8,1.54,1.94,2.36,2.6l-.85,6.88c4.71-2.85,8.03-4.86,11.8-9.4l-8.66,1.14-2.04-4.26,10.12,1.66c6.62,1.08-2.08,7.85-9.81,12.88Z"/><path d="M422.51,811.17l.85,3.08c-6.07-.9-12.27,1.87-18.62.73-.93-2.55-1.48-3.7-4.41-4.84l6.56-10.96c-.01-2.02-.32-4.51.83-6.93l3.32,6.02c2.31,1.55,4.2,3.49,5.47,5.79,1.24-.37,2.93-.19,3.67.83-5.01,1.25-7.6,3.59-10.96,8.15l13.27-1.87ZM411.31,806.57l3.06-1.78-5.89-6-3.03,6.81c-.79,1.77-2.12,3.88-2,5.17l7.86-4.2ZM405.84,812.35c1.87.67,3.19-.56,3.24-2.93l-3.24,2.93Z"/><path d="M392.07,794.02l-7.72,6.96c-2.86,2.58-.2,6.58,2.28,9.36-3.96,1.21-5-5.02-10.6-5.89-.68-.13.2-2.84.87-2.59l3.29,1.22c1.96-3.85,5.17-7.14,8.91-9.51l4.44-2.81,2.08,13.98c.06.4.79,2.05,1.03,1.77s1.1-1.24,1.23-1.64l3.92-12.34,2.08.43c.51.1.21,2.13-.04,2.59-2.17,3.99-3.96,8.73-5.32,13.43-.26.9-2.67.82-3.4.23-.9-.72-1.45-2.69-1.63-4.11l-1.44-11.11Z"/><path d="M387.62,813.36c.98.06,1.87,0,1.92.3l.3,1.8c.33,1.98-6.98-2.36-14.37-1.85-.87.06-2.22-.61-2.53-1.19s.55-2.51,1.29-2.33l13.38,3.27Z"/><path d="M768.94,826.89c-1.51,2.59-2.15,6.22-5.49,6.81-2.14-1.28-4.28-3.93-5.89-5.74l-5.41-6.08c1.62-.77,2.88-1.05,3.11-1.76s.1-2.43,0-4.26l13.76.06,2.49,6.19c0,1.14-1.65,3.18-2.58,4.78ZM767.49,824.34c.77-1.7,1.82-4.1.79-5.7l-10.07.2c-.68,1.57-1.2,2.28-2.05,3.02l7.75,10.4,3.57-7.93Z"/><path d="M750.99,820.22c-2.54,2.15-4.95,1.7-6.69-.72-.71-.98-1.25-3.29-.75-4.28.53-1.04,2.59-2.16,3.99-2.32,2.12-.24,3.93.7,5.01,2.47.74,1.23-.07,3.59-1.56,4.85ZM749.42,818.06c.73-1.18,1.23-2.91.64-2.88l-1.8.08,1.15,2.8Z"/><path d="M749.82,794.36l-.93-2.82c.97.2,1.57,1.03.93,2.82Z"/><path d="M764.7,824.03c-2.75.58-5.58.3-6.62-3.12l6.62,3.12Z"/><path d="M449.85,551.6l-16.65.1-9.37.65-.2,11.98c-.11,6.75-3.11,12.34-10.05,13.84-3.38.73-7.29.02-10.87-.01l-23.65-.25c-4.08-.04-9.26-5.23-9.24-10.77l.28-102.1c.02-8.09,2.34-16.33,6.45-22.91,3.1-4.97,7.51-8.82,10.83-13.54l5.4-7.67-2.51-6.02c-9.87-1.52-22.67-3.28-24.43-12.75-.94-5.09,2.35-9.77,7.13-11.64,10.17-3.99,26.72-5.96,30.52,1.73,2.36,4.79-.4,9.38-.35,14.98l7.27-15,3.66-7.19,14.89-23.06,4.79-7.35c4.36-5.88,9.52-10.5,16.61-12.89l3.37.48c17.44-2.02,34.24-3.86,51.87-4.54,20.44-.79,40.54-1.31,60.89-.02l23.58,1.49,17.21,1.4,21.24,1.9c6.47,2.85,11.03,8.29,15.1,14.09l6.69,10.56c5.48,8.65,11.28,16.95,15.97,26.07,2.05,3.99,2.74,8.15,5.85,11.73.1-2.3-.05-4.19-.39-6.05-1-5.49,2.06-9.93,7.56-10.92,12.38-2.21,31.15,1.47,30.65,13.07-.17,3.89-4.01,7.69-7.29,9.65-5.19,3.1-11.37,2.93-17.1,4.52-3.43.95-1.53,8.9,3.86,15.32,4.66,5.55,10.96,10.68,13.29,17.92,1.49,4.64,3.04,10.53,3.04,15.7l-.08,104.08c0,6.05-5.45,10.18-10.79,10.2l-31.14.1c-8.46.03-13.28-7.54-12.27-15.59.51-4.06.1-8.72-3.08-11.47l-176-.02c-3.65,4.42-8.63,5.85-14.07,4.68-3.18-.53-5.86-1.58-8.46-4.48ZM576.16,353.41l20.11,1.26,8.57.61,26.68,2.16c-2.22-5.11-6.66-11.41-10.78-11.8l-8.73-.83-17.59-1.56-23.44-1.49-21.62-.66c-9.41-.29-18.65-.39-28.04-.03l-18.72.73c-16.37.64-32.27,1.98-48.53,4.22-4.05,2.82-6.79,6.99-9.39,11.29l16.9-1.47,14.1-.97,26.99-1.5,20.1-.72c11.54-.42,22.89-.45,34.43,0l18.95.75ZM668.8,408l-2.61-6.77c-4.55-9.31-10.16-17.66-15.83-26.38l-2.26-4.89c-5.17-8.3-12.54-19.32-20.31-24.02l3.37,5.14c6.03,9.19,12.41,17.8,17.48,27.56l8.82,16.97,6.86,14.06,4.48-1.67ZM412.4,408.56c4.85-11.1,10.4-20.83,15.93-31.41,2.05-3.92,3.73-7.96,6.34-11.61l12.85-17.97c-6.99,2.73-11.16,8.79-14.75,14.67l-4.09,6.71-15.61,25.11c-2.77,4.46-3.85,9.07-6.22,14.55l5.55-.06ZM580.38,408.58l54.08.72,25.68.45-11.57-23.86c-4.06-8.38-8.81-16.07-13.99-24.12l-22.55-2.4-18.62-1.36-10.74-.6-12.23-.66-19.03-.58c-6.96-.21-13.74-.2-20.72-.01l-22.59.61-10.07.61-12.16.65-15.28.99-21.87,1.51c-5.35.37-7.61,1.36-10.45,6.01-3.59,5.88-7.06,12.05-10.21,18.32l-12.25,24.3c2.29.58,4.25,0,6.46-.03l42.64-.58,115.46.02ZM389.42,410.42c6.81.3,10.26-4.08,10.76-10.16.15-1.81.81-5.23-.8-6.52-3.37-2.71-7.83-2.91-11.85-2.46-8.12.92-17.41,2.31-17.35,9.35.06,7.56,10.18,9.39,19.23,9.79ZM702.53,407.32l3.71-6.26c-.38-4.21-3.81-7.25-7.61-7.89l-11.24-1.9-6.63.32c-2.73.13-6.29,2.59-5.53,5.85l1.83,7.9c2.17,9.36,14.66,5.56,25.46,1.98ZM578.8,543.88l-66.63-.07-36.99-.09-6.87.26c-.89.46.6,3.24,2.07,3.24l167.96.07,6.71.17,27.16-1.66c7.2-.44,14.34-1.64,21.02-4.23,9.58-3.71,9.4-33.04,9.38-46.75l-.03-28.61c0-7.91-3.27-21.46-9.55-21.57,5.41,12.48,4.33,26.11-8.15,32.27-13.63,6.73-23.38-2.31-36.27,3.68-9.55,4.44-14.77-3.12-19.89-8.86l-5.12-5.74,12.73-6.28,27.51-9.12,21.07-7.71c.05-1.89-.2-4-.58-5.91l-2.31-11.47c-.68-3.4-5.2-5.98-6.38-8.8-.93-2.23-1.04-2.93-2.94-4.16-2.33-1.51-5.75-2.78-8.03-.5-1.38,1.37-2.12,1.26-4.06,1.23l-34.56-.55-56.65-.68-93.91-.02-61.88.34-8.41-1.48-2.15,3.11c-7.78,5.02-11.06,13.02-10.5,22.17.1,1.68-.68,4.71.25,6.23,9.07,4.65,18.1,7.59,27.82,10.29,11.22,3.12,21.41,7.12,32.07,12.67l-3.87,3.89c-3.13,4.51-6.9,9.86-12.51,11.66-7.21,2.31-14.16-5.72-25.8-2.17-9.27,2.83-18.84.46-25.8-5.89-4.25-3.87-6.55-8.91-5.7-14.6l1.39-9.33c.71-4.79,4.01-8.6,9.16-8.81l1.6-10.35c-6.02,6.66-11.34,13.19-15.04,21.18-2.47,5.33-1.7,11.61-2.19,17.37-.61,7.17-.33,13.87-.19,21.01l.55,28.42.95,10.28c.55,5.95,3.31,12.21,9.44,14.26,8.3,2.77,17,3.14,25.63,3.8l10.01.77,16.66.65c5.5.22,10.54.92,15.42-2.67.2.23.3-1.05-.07-1.02l-1.48.11c-3.14.23-6.14-3.04-6.53-4.37-.23-.77,1-2.31,1.56-3l2.56-3.16c5.33-4.2,11.3-5.6,18.23-5.6l134.42.17,17.8.91c6.98.36,15.45,7.16,12.59,12.21-1.24,2.18-3.25,2.42-5.79,2.49l-12.22.36-21.29-.1-13.37.02ZM395.72,415.12c.23-.62-1.33-1.78-1.81-1.34-.36.33-.76,1.7-.61,2.17l.52,1.66c.09.3,1.04-.19,1.15-.48l.76-2ZM680.65,417.72l1.74-2.14c.38-.47-.59-1.9-1.18-1.84l-2.58.28,2.01,3.71ZM694.26,441.33l-7.21-8.69c-.25-.3-1.34-1.08-1.38-.71s-.13,1.45-.04,1.89l1.41,7.01c2.26.54,4.59.93,7.23.48ZM395.83,474.49c-4.86-1-9.97-5.66-11.82-10.06-3.06-7.26-.15-15,4.31-20.53-4.55.37-5.2,4.77-6.34,7.93-3.02,8.4-.34,16.79,7.32,21.45,5.08,3.09,11.17,5.79,16.76,3.32l-10.22-2.11ZM677.38,475.87c3.71.93,6.1-.75,8.52-2.43,3.47-2.4,6.06-5.31,6.9-9.75,1.09-5.74.28-13.22-1.78-17.97-.4-.93-3.45-1.6-3.82-.85-.32.62-.24,1.47-.18,2.72-1.91-.53-4.04-.68-6.06.76,4.82.75,6.71,3.25,8.56,7.16,4.04,8.59-2.94,19.09-12.13,20.36ZM389.71,450.81c2.18-3.21,4.82-2.56,8.18-2.07-2.36-1.55-4.98-2.64-7.88-3.38-5.38,5.04-6.19,12.08-4.82,18.76.82-4.83,1.89-9.44,4.52-13.32ZM414.21,469.87c-.16,2.76-2.02,4.01-3.7,5.45l8.93-.6c-.86-.76-2.12-2.07-2.74-3.04l-1.54-2.4c-.34-.53.72-2.17.85-2.81.95-4.63,3.67-7.31,9.09-8.93l-10.44-3.2,3.95,4.4c-.54.39-1.51,1.1-1.81.88l-1.33-1.03-2.23-2.21c-3.34-3.32-7.15-7.47-13.14-5.68l6.36,2.64c3.69,1.53,6.32,5.24,6.73,9.53.18,1.94-1.38,5.78-2.86,7.25-2.93,2.9-7.54,2.36-11.19,1.3-5.1-1.49-7.33-4.96-7.08-10.27.22-4.61,2.62-7.93,7.37-8.95-1.93-1.23-5.26-1.7-6.95-.54-3.87,2.65-7.9,12.38-1.99,17.45,6.72,5.77,17.62,6.97,23.73.79ZM658.09,474.15c-.27.22-.18,1.45.13,1.48l1.72.14,6.76.54-5.96-3.27c3.2-.96,3.76-.51,5.82.19,5.34,1.81,12.05.84,16.75-2.36,6.52-4.43,5.86-16.42,1.14-18.71-2.63-1.28-5.82-1.13-8.14.13,4.54,1.86,7.69,5.11,7.93,9.36.24,4.31-2.58,8.08-6.79,9.85-3.19,1.34-7.31,1.69-10.38-.31-2.2-1.43-4.93-4.5-4.79-7.81.24-5.86,4.8-9.97,10.29-10.99,1.1-.2,2.5-1.04,3.38-1.81-2.35-.43-4.28-.13-6.14.81l-6.73,3.42-4.89,5.47.98-4.55-11.41,3.21c5.84,1.84,9.28,4.55,8.8,9.83-.41,4.45-4.88,8.69-9.49,7-3.69-1.34-6.79-5-6-8.57.18-.81,1.66-2.75,1.1-3.26l-2.61-2.38c-1.58,2.44-2.18,3.58-2.89,6.23l3.06-2.2c-.94,4.03-.6,7.26,1.79,9.46,2.5,2.32,5.48,3.46,8.69,2.21,6.88-2.68,7.98-7.68,8.94-5.79l.76,1.5c.17.33-1.25.74-1.82,1.19ZM409.73,467.25c1.86-2.16,1.2-6.85-.5-9.15s-4.73-3.6-7.86-3.61c-4.09,0-6.85,2.84-7.33,6.31-.48,3.46,1.42,6.31,4.98,7.78,3.34,1.38,7.95,1.89,10.71-1.33ZM681.35,460.85c-.77-5.05-6.3-7.15-10.3-5.7-4.06,1.47-6.87,5.75-5.36,10.17,1.13,3.31,3.17,4.66,6.58,4.67,4.86.02,9.97-3.33,9.08-9.14ZM420.79,471.74c-1.17-2.57-.39-5.47,1.28-7.56s4.42-2.4,7.32-2.21c4.19.27,5.59,4.11,8.11,7.64,1.24-6.27-6.29-10.67-11.7-9.45-3.45.78-5.39,2.46-6.68,5.04-1.19,2.37-.24,5.8,1.02,7.29l.66-.75ZM441.04,466.04c1.96.6,2.47,1.13,2.4,1.64l-.46,3.26c2.38-1.44,3.57-2.7,4.66-5.5l-10.02-3.35,2.18,4.34c0,5.39-4.18,8.71-8.85,11.41,3.65,1.52,6.85-.66,8.7-3.13,1.68-2.24,1.59-5.63,1.39-8.67ZM633.95,467.43l-1.94-.73,4.15-3.13c-2.93-.04-5.28,1.22-7.3,3.08l5.23,6.99-.14-6.21ZM647.68,473.4c2.53,1.16,5.17-1.07,5.92-2.81.97-2.23.13-4.91-1.09-6.07-1.83-1.74-4.83-1.85-6.72-.4-1.52,1.17-2.62,3.45-2.32,5.23.23,1.37,2.14,3.11,4.21,4.05ZM433.36,468.11c-.43-2.74-3.68-4.12-5.83-4.07-2.14.05-4.5,1.85-4.71,4.24-.3,3.44,2.4,5.29,5.36,5.19,2.18-.08,5.71-2.04,5.18-5.36ZM420.97,472.79l-.47.9c.54,1.96,3.85,3.24,5.32,2.44l-4.86-3.34ZM640.73,477.92l-3.31-4.09c-.33-.41-2.28-.48-2.2.04l.27,1.67c2.04,1.26,3.02,1.79,5.24,2.38ZM460.81,530.66v1.43h135.44v-1.43h-135.44ZM624.69,535.6c-2.09-3.75-4.52-1.87-7.03-1.87l-110.9-.12-46.68-.06c-3.37,0-7.31-.39-9.67,2.54l152.86-.07,21.43-.42ZM629.2,537.79l-180.58.88v2.91s180.6-.88,180.6-.88v-2.91ZM655.71,567.01c.05,3.3,3.04,7.38,6.44,7.38l32.99.03c2.96,0,7.09-2.71,7.08-5.87l-.08-29.27c-2.16,5.42-3.69,8.92-7.98,12.06-5.3,2.83-11.44,4.17-17.65,4.58l-20.93,1.36.13,9.73ZM411.71,574.39c5.08,0,7.52-4.29,7.66-8.58l.32-9.31c-10.37,1.15-24.76.29-34.32-2.69-6.18-1.93-8.89-6.54-11.78-12.8l.21,10.53v10.6c-.01,3.36-.65,7.5,1.59,10.18,1,1.2,4.22,2.1,5.8,2.1l30.51-.03ZM453.14,549.61c5.44,6.42,16.62,2.37,15.14.09l-1.44-2.22c-1.27-1.94-2.81-2.74-5.26-2.69-2.76.05-5.42.04-6.96,2.05,4.67.54,8.12-.19,11.76,2.18l-13.23.58ZM420.56,550.84l-16.47-1.32-20.48-2.92c4.04,3.26,8.67,4.03,13.25,4.44l14.49,1.3c2.98.27,7,2.42,9.21-1.51ZM668.95,552.43l7.45-1.03c4.93-.69,9.39-1.99,13.6-4.22l-16.4,1.99-19.25,1.74.12,2.02c.03.45,1.59.97,2.06.92l12.42-1.41Z"/><path d="M551.41,508.63l-21.77.02-14.48-.65-22.07-1.61-22.53-2.73c-11.18-1.36-17.82-12.45-21.35-22.85-1.68-4.96.08-8.8,3.37-12.07,3.97-3.94,8.18-5.89,14.06-5.4,3.38.28,7.08-.61,10.75-.6l120.83.03,8.76.5c5.54.32,10.96.73,15.16,4.12,6.57,5.3,7.4,13.57,2.93,20.49-5.43,8.4-9.52,16.33-20.23,17.14l-40.48,3.07-12.95.53ZM596.95,503.05c4.38-.35,9.98-.42,13.51-2.63,6.08-3.79,9.73-10.28,12.9-16.46,1.97-3.84,1.6-8.89-1.2-12.2-7.11-8.4-21.13-5.32-33.76-5.8l-14.44-.55-89.84.22-20.72.96c-6.01.28-11.73,5.61-11.29,11.74.33,4.69,3.11,8.95,5.26,12.61,4.32,7.36,11.21,9.83,19.24,10.66l29.8,3.06c23.9,1.53,47.5,1.8,71.36-.08l19.19-1.51Z"/><path d="M428.57,525.39c-3.12,6.17-10.28,9.08-16.75,9.99-7.25,1.02-14.16-.51-21.23-1.64-2.86-.46-4.76-.69-6.53-3.07-7.41-9.93-4.12-24.06,7.19-29.5,9.73-.09,18.4,2.9,27.09,6.7,5.42,2.37,10.33,4.93,14.57,8.91l-4.35,8.59ZM384.25,518.13c.65-6.44,5.43-10.64,10.97-12.86-4.55-1.61-7.79,1.85-9.77,5.26-4.35,7.51-2.39,20.33,5.54,20.27-3.84-3.13-7.31-7.11-6.74-12.68ZM426.88,517.93l.99-1.99c-.81,1.63-23.57-16.38-35.85-6.84-3.2,2.48-5.31,6.53-4.97,10.4.9,10.48,11.97,12.47,22.95,11.86,7.95-.44,13.42-6.44,16.88-13.42ZM423.51,526.82c3.07-1.62,5.2-4.52,5.04-7.63l-5.04,7.63Z"/><path d="M666.88,535.28c-13.55-1.58-18.89-5.84-23.83-19.2,10.12-6.92,22.79-12.37,34.79-14.33,9.29-1.52,19.3,7.73,18.09,19.73-1.27,12.61-16.22,15.31-29.05,13.81ZM689.46,510.76c-1.05-3.74-4.03-4.15-6.73-6.09l-7.85,1.38c5.98-.15,9.71,1.47,14.58,4.71ZM648.09,521.44c.71-2.52,1.74-2.39,2.01-1.2,5.88,11.89,19.05,14.36,30.5,9.5,5.11-2.17,9.54-5.55,9.15-11.59-.32-4.96-4.15-9.54-9.73-10.41-3.18-.5-7.3-1.07-10.63-.54-4.6.73-9.76,2.82-12.95,5.44-2.19,1.8-3.94,2.07-6.56,2.91l-3.98,1.29,2.19,4.6ZM691.57,526l-.14-1.66-4.66,5.44,1.19-.14,3.61-3.64Z"/><path d="M660.56,418.99l-10.19,12.13c-.11-2.45,1.36-4.37,2.8-6.08l5.79-6.9c.94.21,1.79.62,1.6.85Z"/><path d="M423.66,426.76c-3.42-2.29-5.68-5.18-8.14-8.29l1.33-1.08c2.58,3.24,4.89,5.27,6.8,9.37Z"/><path d="M700.53,404.9c-10.08,2.41-12.74,3.75-21.7.37-.27-.1.02-1.74.23-1.55l1.5,1.35c8.12.37,16.01-1.23,24.01-4.15-.41,1.92-2.25,3.55-4.04,3.97Z"/><path d="M396.38,401.36c2.66,5.88-12.59,7.06-21.11,2.92l-3.09-2.12c-.35-.24-.81-1.12-.92-1.54s.64-1.43.99-1.19l1.72,1.16c5.06,3.42,12.23,4.75,18.25,3.49l4.16-2.72Z"/><path d="M659.32,462.85l2.68,7.4c-2.08-1.75-3.34-4.11-4.4-6.63l-.6-1.43c-.18-.42.87-1.16,1.33-1.12s.66.88.99,1.79Z"/><polygon points="691.25 456.16 690.2 450.43 691.56 450.42 691.25 456.16"/><path d="M589.7,501.59l-24.54,1.44c-16.08.94-32.02,1.2-48.09,0l-25.49-1.92-23.03-3.43c-6.38-.95-14.01-13.7-14.27-19.35-.27-6.02,6.08-9.25,11.1-9.57l14.79-.94,48.72-.47c6.09-.52,11.78-.48,17.85-.03l47.27.56,10.83.44c4.6.19,9.15.32,12.97,2.77,7.74,4.95,3.75,14.68-3.06,22.28-1.11,1.24-2.94,4.11-4.46,4.68-6.61,2.49-13.39,3.13-20.62,3.55ZM579.12,470.12l-16.56-.34v1.42s38.68-.07,38.68-.07l-1.14-.65-20.98-.36ZM551.35,483.06c.71-2.72-.05-6.23-2.26-8.46-4.8-4.85-12.52-5.74-18.34-2.38-5.42,3.13-7.88,10.75-2.94,15.14,5.94,5.28,21.12,4.91,23.53-4.3ZM524.05,474.9l1.28-1.28c.2-.2-.46-.99-.68-1.16l-47.27.07c-6.13-.3-12.36-1.99-18.53,1.57l20.61-.02,10.07.59,34.52.24ZM616.76,474.76c-1.86-3.78-4.62-2.15-6.88-2.11l-33.68-.2-24.48.26c.91,1.06,2.12,1.4,3.63,1.46l19.43.73,41.98-.15ZM457.25,476.36l-.02,3.07,65.55.49.02-3.07-65.55-.49ZM618.61,476.34l-64.68.22v2.73s64.69-.22,64.69-.22v-2.73ZM520.41,484.92c.94.3,2.15.65,2.14.19l-.03-3.17-61.53-.2-2.17.06c-.5.01.37,2.01.68,2.29l23.86.49,37.05.35ZM583.14,484.26l31.82-.09c1.51,0,2.97-.85,3.56-2.31l-63.06-.02c-.57.32-1.46,1.69-1.39,2.17l12.62.44c5.44.19,10.71.54,16.47-.18ZM460.76,486.71v2.98s64.53.22,64.53.22v-2.98s-64.53-.22-64.53-.22ZM610.8,489.23c2.62-.02,4.54.51,5.53-2.39l-62.94.07-2.05,1.41c-.29.2.2.92.59,1.38l58.87-.47ZM479.92,494.67l110.51-.15,18.74-.33c1.74-.03,3.34-1.13,2.96-2.93l-14.09.37-49.64.71-10.2,1.31c-3.6.46-7.45-1.37-10.89-1.38l-63.02-.23c4.65,4.08,9.83,2.65,15.63,2.65ZM574.98,499.71l9.08-.59c5.45-.35,10.61-.18,16.02-2.05l-109.09.16c-1.47,0-2.27.23-3.1.91l8.86.83,9.96.74h68.26Z"/><path d="M416.81,521.03c-3.3,8.1-16.43,7.76-23.87,3.14-3-4.07-3.21-8.74.34-12.42,6.3-2.12,13.29-2.65,19.29.38,3.44,1.74,5.68,5.33,4.23,8.89ZM411.13,523.63c2.34-.71,3.6-3.64,3.26-5.45-1.11-5.91-14.11-5.98-19.92-3.07-2.75,1.38-.59,6.1,1.69,7.2,4.51,2.18,9.81,2.89,14.98,1.31Z"/><path d="M684.71,523.17c-5.03,7.11-26.79,4.99-25.93-4.12.82-8.75,16.06-11.31,24.6-6.62,3.48,1.91,3.49,7.69,1.33,10.74ZM683.17,520.82c1.5-1.4.24-4.5-1.38-5.54-8.98-5.72-21.3-.79-20.21,4.09,1.46,6.57,15.49,7.16,21.6,1.45Z"/></svg>