<?xml version="1.0" encoding="UTF-8"?><svg id="Layer_1" xmlns="http://www.w3.org/2000/svg" width="1000" height="1000" viewBox="0 0 1000 1000"><path d="M889.48,534.23l-14.5.41-13.51.42-7.19.5-25.46.45-11.52.08-6.73-.26c-4.11-.16-9.54-.34-11.15-2.8l-1.01-1.54c-.28-.42.94-1.52,1.51-1.53l11.36-.32,72.15.07,31.95.34,7.32.43,6.71.45,6.73.69c-1.99.59-3.64.91-5.36.98l-8.52.34-14.17.29-9.8.53-8.81.48Z"/><path d="M921.96,557.55l-5.6.41-9.84.94-8.25.39-15.26.41-26.92.05-14.1-1.53-7.17-1.18c1.81-1.37,3.3-1.72,5.19-1.83l8.49-.49,40.1-.07,6.75.35,7.15.34,7.32.43,8.91.31,7.9.34,1.09.72-5.74.43Z"/><path d="M728.72,481.06l-5.56-1.86-10.25-3.62-4.49-1.35-5.1-1.62-5.11-1.69-5.01-1.7-4.43-1.38-6.91-2.02-5.19-1.52-10.94-3.08-8.35-1.94-6.81-1.66-4.6-1.09-6.04-1.09-9.57-1.73-5.74-1.09-8.59-1.31-12.24-1.61-9.38-1.23-5.01-.32-10.29-.97-4.88-.46-8.81-.35h-50.16s-8.34.36-8.34.36l-6.26.49-10.21.96-11.33,1.42-9.55,1.32-5.15.9-9.88,1.79-10.1,1.89-7.81,1.94-9.03,2.21-5.58,1.51-4.56,1.37-14.94,4.81-13.34,5.41-4.48,1.81-12.63,5.45-5.15,2.78-14.81,6.31-6.84,3.48-3.95,1.76-4.24,1.68-4.9,1.73-4.71,1.25c-3.89,1.03-8.03.6-12.09.92l-4.08.33-22.15.33-11.23.49-7.43.32-7.12.47-9.26.97-13.21,1.49-4.06.37-8.15,1.21-9.19,1.35-5.92.9-8.05,1.73-9.34,1.97-6.22,1.29-9.93,2.5-8.3,1.97-4.52.98-6.27,1.5-6.92,1.59-8.85,1.85c-2.71.57-5.52,2.15-8.3.07l5.28-1.77,5.22-1.9,5.08-1.67,4.81-1.59,3.57-1.59,4.82-1.63,5.74-1.82,5.6-1.49,7.26-1.77,4.88-1.09,6.37-1.34,7.6-1.73,6.85-1.66,6.28-1.34,4.59-1.03,8.63-1.73,6.12-1.21,7.91-1.13,12.23-1.69,14.02-1.47,9.37-.87,9.76-.58,11.68-.19,4.03-.38,9.76-1.57,7.29-2.02,7.33-3.06,3.39-1.49,8.88-4.06,6.6-3.26,21.48-9.83,3.28-1.78,20.48-8.16,11.03-3.73,4.8-1.47,11.22-3.57,5.26-1.45,7.11-1.79,8.04-1.89,7.71-1.68,6.48-1.23,7.13-1.09,7.12-1.28,5.74-.88,11.37-1.38,5.14-.74,6.3-.41,4.88-.48c4.14-.4,7.97-.64,12.15-.81l7.19-.3,41.44.09,11.8.4,8.76,1.05,5.66.26,4.96.44,11.94,1.46,5.77.82,14.14,2.09,13.88,2.33,8.37,1.62,7.26,1.63,7.7,1.68,7.67,1.75,5.16,1.52,6.83,1.77,5.18,1.45,5.92,1.76,5.38,1.74,5.93,1.75,5.18,1.51,5.53,1.65,4.31,1.51,5.07,1.65,6.26,1.81,5.95,1.72,5.38,1.74,3.83,1.51,4.51,1.37,7.24,2.15,4.87,1.45,4.36,1.43,7.46,2.03,6.82,1.64,6.93,1.63,6.82,1.64,7.26,1.36,11.35,2,9.8,1.56,10.61,1.33,13.17,1.53,7.46.72,7.31.84,5.91.37,5.34.48,9.46.91,7.63.4,4.9.46,5.39.47,5.43.36,17.42,1.6c3.72.34,6.76.59,10.45,1.32l7.02.47c2.88.19,5.41-.09,8.2.82l-5.91.56-6.27.41-10.14.34-11.21.57-55.26.13-4.53-.43-5.02-.29-11.87-.38-11.64-.39-5.85-.48-13.67-1.16-10.3-1.19-8.13-.95-10.24-1.15-10.78.09-6.71.17-14.81,1.68-6.96,1.04-12.01,1.85-9.5,1.72-6.73,1.37-11.06,1.93-6.27,1.02-9.32,1.18-16.7,1.77-16.71,1.39-10.18.96-7.56.48-8.77.33-14.85.43-15.17.5-15.4.11-5.09-.2-19.04-.38-16.52-.49-13.98-.38-10.5-.4-4.53-.41-9.87-.51-8.93-.26c-3.27-.09-6.27.06-9.66-1.03,1.46-.42,3.34-1.14,4.8-1.15l29.33-.33,33.61-.47,22.64-.33,7.15-.44,5.85-.47,6.28-.35,6.29-.23,12.57-.95,5.34-.48,5.86-.4,6-.8,12.26-1.33,7.11-.9,8.8-1.31,13.02-1.83,8.16-1.37,7.82-1.21,8.4-1.58,6.41-1.55,6.86-1.66,7.63-1.84,4.87-1.35,6.48-1.67,9.03-1.87c-1.16-2.5-3.98-2.42-6.34-3.21Z"/><path d="M267.3,540.95l-5.98-1.35-9.6-1.46-8.5-.47-12.33.06-11.5,1.38-9.5,1.83-3.45,1.08-14.42,5.27c-3.34,1.22-6.28,2.83-9.37,4.62-7.68,4.45-15.85,8.13-22.57,14.06l-2.87,2.53-.33-1.6c-.08-.38.83-.86,1.09-1.16l2.41-3.93c6.66-6.47,13.79-12.15,21.45-17.58,2.79-1.98,5.29-3.86,8.5-5.33,4.32-1.98,8.56-4.06,13.05-5.68l4.32-1.56,6.22-1.77,9.62-1.67,4.42-.42,15.94.06c2.95.01,5.91.49,8.7,1.13l5.19,1.18,5.86,1.38,6.25,1.76,4.98,1.73,8.09,3.58c5.28,2.34,10.67,4.53,15.34,8.09l8.81,6.71,8.21,6.57c2.59,2.07,4.71,4.15,6.41,7.26-2.91-1.12-5.03-2.77-7.56-4.28l-7.33-4.37-8.56-5.18-10.76-5.46-3.42-1.53-3.81-1.55-4.23-1.63-5.81-1.84-2.96-.46Z"/><path d="M130.36,538.8l-6.96-.48-8.99-.45-9.39-.45-12.87-1-5.52-.34-5.43-.34-7.98-.86-5.9-.33c-3.99-.23-8.11-.12-11.98-1.06l-4.08-.99-.9-.11c-.16-.02-.62-.41-.47-.46l1.39-.43,61.31.17,4.6.34,16.74.41,19.49.36,6.09.29c.77.78-.21,2.36-.72,3.34-.94,1.78-1.74,3.02-3.97,3l-17.49-.18-6.96-.44Z"/><path d="M107.94,558.29l-8.04-.42-9.15-.31-10.35-1.19-11.95-1.09-13.11-1.53c.99-.65,2.26-1.01,3.55-1.01l67.08.02,1.59,2.37c-3.59,1.32-2.54,4.31-6.83,4.05l-8.05-.5-4.75-.39Z"/></svg>