<?xml version="1.0" encoding="UTF-8"?><svg id="Layer_1" xmlns="http://www.w3.org/2000/svg" width="1000" height="1000" viewBox="0 0 1000 1000"><path d="M703.53,633.54l-173.93-301.26c-6.18-10.7-17.24-17.09-29.6-17.09h0c-12.35,0-23.42,6.39-29.6,17.09l-173.93,301.26c-6.18,10.7-6.18,23.48,0,34.18,6.18,10.7,17.24,17.09,29.6,17.09h347.86c12.36,0,23.42-6.39,29.6-17.09s6.18-23.48,0-34.18ZM682.32,655.47c-.84,1.46-3.34,4.84-8.39,4.84h-347.86c-5.05,0-7.55-3.39-8.39-4.84-.84-1.46-2.52-5.31,0-9.68l173.93-301.26c2.52-4.37,6.71-4.84,8.39-4.84h0c1.68,0,5.86.47,8.39,4.84l173.93,301.26c2.52,4.37.84,8.23,0,9.69Z"/><path d="M525.85,403.24c-5.4-9.35-15.06-14.93-25.85-14.93h0c-10.79,0-20.46,5.58-25.85,14.93l-113.53,196.64c-5.4,9.35-5.4,20.51,0,29.85,5.4,9.35,15.06,14.93,25.85,14.93h227.06c10.79,0,20.46-5.58,25.85-14.93,5.4-9.35,5.4-20.51,0-29.85l-113.53-196.64ZM625.66,621.81c-2.53,4.39-7.07,7-12.13,7h-227.06c-5.06,0-9.6-2.62-12.13-7-2.53-4.39-2.53-9.62,0-14.01l113.53-196.64c2.53-4.38,7.07-7,12.13-7s9.6,2.62,12.13,7l113.53,196.64c2.53,4.39,2.53,9.62,0,14.01Z"/><path d="M500,453.25c-6.36,0-11.53,5.16-11.53,11.53v102.77c0,6.37,5.16,11.53,11.53,11.53s11.53-5.16,11.53-11.53v-102.77c0-6.37-5.16-11.53-11.53-11.53Z"/><path d="M500,582.84c-6.28,0-11.38,5.09-11.38,11.38s5.1,11.38,11.38,11.38,11.38-5.09,11.38-11.38-5.09-11.38-11.38-11.38Z"/></svg>