<?xml version="1.0" encoding="UTF-8"?><svg id="Layer_1" xmlns="http://www.w3.org/2000/svg" width="1000" height="1000" viewBox="0 0 1000 1000"><path d="M733.58,401.08v-41c0-8.84-7.17-16.01-16.01-16.01s-16.01,7.17-16.01,16.01v41h-23.18v-41c0-8.84-7.17-16.01-16.01-16.01s-16.01,7.17-16.01,16.01v41h-26.64v82.29c0,32.15,21.72,59.3,51.24,67.61v27.72c0,40.85-33.24,74.09-74.09,74.09s-74.09-33.24-74.09-74.09v-157.41c0-58.5-47.6-106.1-106.1-106.1h-16.58c-58.5,0-106.1,47.6-106.1,106.1v23.78c-31.04,7.27-54.24,35.16-54.24,68.38v82.29h38.15v38.55h64.18v-38.55h38.15v-82.29c0-33.23-23.2-61.12-54.24-68.38v-23.78c0-40.85,33.24-74.09,74.09-74.09h16.58c40.86,0,74.09,33.24,74.09,74.09v157.41c0,58.5,47.6,106.1,106.1,106.1s106.1-47.6,106.1-106.1v-26.32c32.54-6.12,57.24-34.73,57.24-69.02v-82.29h-26.64ZM321.74,613.94h-23.44v-18.18h23.44v18.18ZM348.26,513.46v50.28h-76.47v-50.28c0-21.08,17.15-38.23,38.23-38.23s38.23,17.15,38.23,38.23ZM728.21,483.37c0,21.08-17.15,38.23-38.23,38.23s-38.23-17.15-38.23-38.23v-50.28h76.47v50.28Z"/></svg>