<?xml version="1.0" encoding="UTF-8"?><svg id="Layer_1" xmlns="http://www.w3.org/2000/svg" width="1000" height="1000" viewBox="0 0 1000 1000"><path d="M641.45,473.99h-282.9c-6.43,0-11.63,5.21-11.63,11.63s5.21,11.63,11.63,11.63h282.9c6.43,0,11.63-5.21,11.63-11.63s-5.21-11.63-11.63-11.63Z"/><path d="M725.11,523.38c20.83,0,37.76-16.94,37.76-37.75s-16.94-37.76-37.76-37.76c-7.73,0-14.93,2.34-20.91,6.35l-112.31-68.03c-.88-.54-1.8-1.01-2.74-1.43.11-.87.19-1.74.19-2.64v-46.37c0-11.33-9.22-20.55-20.55-20.55h-137.41c-11.33,0-20.55,9.22-20.55,20.55v46.37c0,.88.07,1.74.18,2.58-.99.43-1.94.92-2.87,1.47l-112.28,68.01c-6-4.04-13.21-6.4-20.98-6.4-20.81,0-37.75,16.94-37.75,37.75s16.94,37.75,37.75,37.75c7.76,0,14.99-2.36,20.99-6.4l102.27,61.93-118.39,84.92c-4.12,2.94-5.85,8.19-4.31,13.01,1.55,4.8,6.03,8.06,11.09,8.06h426.95c5.05,0,9.54-3.26,11.09-8.06,1.55-4.82-.2-10.07-4.3-13.01l-118.38-84.92,102.17-61.88c6.02,4.07,13.26,6.45,21.06,6.45ZM739.6,485.63c0,5.37-2.94,10.07-7.33,12.57-2.11,1.21-4.55,1.91-7.16,1.91-7.94,0-14.43-6.45-14.48-14.38v-.4c.17-7.86,6.6-14.19,14.48-14.19,2.73,0,5.27.76,7.45,2.08,4.22,2.53,7.05,7.15,7.05,12.42ZM430.76,335.75c0-.34.27-.61.61-.61h137.41c.34,0,.61.27.61.61v46.37c0,.23-.13.43-.32.53h-137.98c-.19-.1-.32-.3-.32-.53v-46.37ZM260.4,485.53c0-5.34,2.89-10.01,7.2-12.52,2.14-1.25,4.62-1.96,7.28-1.96,7.93,0,14.38,6.38,14.49,14.28v.4c-.12,7.88-6.57,14.28-14.49,14.28-2.64,0-5.14-.71-7.26-1.98-4.3-2.49-7.21-7.16-7.21-12.5ZM677.29,661.54h-354.58l101.96-73.12h150.67l101.95,73.12ZM579.74,565.02s-.3.13-.66.13h-158.15c-.37,0-.62-.1-.75-.18l-109.82-66.52c1.48-4.02,2.28-8.38,2.28-12.91s-.8-8.89-2.28-12.91l109.8-66.52c.12-.08.4-.18.77-.18h158.13c.4,0,.68.12.77.17l109.85,66.55c-1.5,4.06-2.31,8.43-2.31,13s.8,8.83,2.24,12.83l-109.87,66.55Z"/></svg>