<?xml version="1.0" encoding="UTF-8"?><svg id="Layer_1" xmlns="http://www.w3.org/2000/svg" width="1000" height="1000" viewBox="0 0 1000 1000"><rect x="350.33" y="444.21" width="34.27" height="34.27"/><rect x="350.33" y="503.07" width="34.27" height="34.27"/><rect x="350.33" y="561.93" width="34.27" height="34.27"/><rect x="408.44" y="444.21" width="34.27" height="34.27"/><rect x="408.44" y="503.07" width="34.27" height="34.27"/><rect x="408.44" y="561.93" width="34.27" height="34.27"/><rect x="466.56" y="444.21" width="34.27" height="34.27"/><rect x="466.56" y="503.07" width="34.27" height="34.27"/><rect x="466.56" y="561.93" width="34.27" height="34.27"/><rect x="524.67" y="444.21" width="34.27" height="34.27"/><rect x="524.67" y="503.07" width="34.27" height="34.27"/><path d="M648.88,520.02v-152.35c0-35.32-28.73-64.04-64.04-64.04h-11.22v-39.71c0-6.87-5.56-12.45-12.45-12.45s-12.45,5.58-12.45,12.45v39.71h-176.26v-39.71c0-6.87-5.58-12.45-12.45-12.45s-12.45,5.58-12.45,12.45v39.71h-23.13c-35.32,0-64.04,28.73-64.04,64.04v226.12c0,35.3,28.73,64.03,64.04,64.03h186.64c11.41,51.83,57.7,90.72,112.91,90.72,63.75,0,115.61-51.86,115.61-115.61,0-55.2-38.89-101.5-90.72-112.91ZM285.29,367.66c0-21.6,17.57-39.15,39.15-39.15h23.13v23.31c0,6.88,5.56,12.45,12.45,12.45s12.45-5.56,12.45-12.45v-23.31h176.26v23.31c0,6.88,5.58,12.45,12.45,12.45s12.45-5.56,12.45-12.45v-23.31h11.22c21.58,0,39.15,17.56,39.15,39.15v13.81h-338.7v-13.81ZM524.67,573.81c-10.35,17.31-16.3,37.53-16.3,59.11h-183.93c-21.58,0-39.15-17.56-39.15-39.14v-187.42h338.7v110.94c-37.02,0-70,17.48-91.19,44.61h-8.13v11.89ZM623.99,725.11c-42.21,0-77.9-28.51-88.78-67.3-2.23-7.92-3.41-16.27-3.41-24.89,0-13.05,2.72-25.46,7.64-36.72,4.66-10.73,11.32-20.4,19.49-28.54,16.68-16.63,39.69-26.93,65.06-26.93,8.62,0,16.97,1.19,24.89,3.41,38.77,10.88,67.3,46.56,67.3,88.77,0,50.84-41.36,92.19-92.19,92.19Z"/><path d="M672.46,626.07h-39.09v-65.59c0-6.47-5.24-11.71-11.71-11.71s-11.71,5.24-11.71,11.71v77.31c0,6.47,5.24,11.71,11.71,11.71h50.81c6.47,0,11.71-5.24,11.71-11.71s-5.24-11.71-11.71-11.71Z"/></svg>