<?xml version="1.0" encoding="UTF-8"?><svg id="Layer_1" xmlns="http://www.w3.org/2000/svg" width="1000" height="1000" viewBox="0 0 1000 1000"><path d="M619.29,359.04l-32.3-23.04c4.32-25.2-5.64-51.86-27.82-67.68-22.18-15.82-50.63-16.56-73.06-4.27-6.94,3.8-13.29,8.83-18.7,15.06-1.32,1.51-2.59,3.11-3.79,4.77-.12.16-.24.33-.36.5l-13.07,18.32-192.95,270.51-9.8,13.74-.93,7.02-18.42,138.53,124.98-62.52,6.33-3.16,9.8-13.74,206.02-288.83c1.31-1.84,2.52-3.72,3.62-5.64l8.09,5.77-101.99,142.99,18.82,13.43,101.99-142.99.11.08,13.43-18.82ZM256.75,692.29l11.05-83.15,63.96,45.62-75.01,37.53ZM276.05,586.63l192.95-270.51,74.32,53.01-192.95,270.51-74.32-53.01ZM556.74,350.3l-74.3-53c1.22-1.67,2.54-3.23,3.93-4.67,6.14-6.38,13.84-10.66,22.08-12.65,12.44-3.03,26.08-.84,37.3,7.16,11.22,8,17.72,20.18,18.92,32.93.79,8.43-.74,17.11-4.78,24.99-.91,1.79-1.96,3.54-3.14,5.24Z"/><path d="M759.96,744.44h-483.9c-6.61,0-11.96-5.35-11.96-11.96s5.35-11.96,11.96-11.96h483.9c6.61,0,11.96,5.35,11.96,11.96s-5.35,11.96-11.96,11.96Z"/><path d="M759.96,704.25h-295.35c-6.61,0-11.96-5.35-11.96-11.96s5.35-11.96,11.96-11.96h295.35c6.61,0,11.96,5.35,11.96,11.96s-5.35,11.96-11.96,11.96Z"/></svg>