<?xml version="1.0" encoding="UTF-8"?>
<svg id="Layer_2" data-name="Layer 2" xmlns="http://www.w3.org/2000/svg" xmlns:xlink="http://www.w3.org/1999/xlink" viewBox="0 0 98.24 27.31">
  <defs>
    <style>
      .cls-1 {
        fill: url(#linear-gradient-2);
      }

      .cls-2 {
        fill: url(#linear-gradient-10);
      }

      .cls-3 {
        fill: url(#linear-gradient-4);
      }

      .cls-4 {
        fill: url(#linear-gradient-3);
      }

      .cls-5 {
        fill: url(#linear-gradient-5);
      }

      .cls-6 {
        fill: url(#linear-gradient-8);
      }

      .cls-7 {
        fill: url(#linear-gradient-7);
      }

      .cls-8 {
        fill: url(#linear-gradient-9);
      }

      .cls-9 {
        fill: url(#linear-gradient-6);
      }

      .cls-10 {
        fill: url(#linear-gradient);
      }
    </style>
    <linearGradient id="linear-gradient" x1="5.58" y1="26.98" x2="92.77" y2="26.98" gradientUnits="userSpaceOnUse">
      <stop offset="0" stop-color="#0f9146"/>
      <stop offset="0" stop-color="#0f9145"/>
      <stop offset=".69" stop-color="#6abd27"/>
      <stop offset="1" stop-color="#8fcf1b"/>
    </linearGradient>
    <linearGradient id="linear-gradient-2" y1="14.8" y2="14.8" xlink:href="#linear-gradient"/>
    <linearGradient id="linear-gradient-3" y1="16.81" y2="16.81" xlink:href="#linear-gradient"/>
    <linearGradient id="linear-gradient-4" y1="16.77" y2="16.77" xlink:href="#linear-gradient"/>
    <linearGradient id="linear-gradient-5" y1="16.73" y2="16.73" xlink:href="#linear-gradient"/>
    <linearGradient id="linear-gradient-6" y1="16.74" y2="16.74" xlink:href="#linear-gradient"/>
    <linearGradient id="linear-gradient-7" y1="15.12" y2="15.12" xlink:href="#linear-gradient"/>
    <linearGradient id="linear-gradient-8" x1="5.58" y1="8.22" x2="92.77" y2="8.22" gradientUnits="userSpaceOnUse">
      <stop offset="0" stop-color="#0f9146"/>
      <stop offset=".15" stop-color="#199642"/>
      <stop offset=".4" stop-color="#35a338"/>
      <stop offset=".73" stop-color="#63ba29"/>
      <stop offset="1" stop-color="#8fcf1b"/>
    </linearGradient>
    <linearGradient id="linear-gradient-9" y1="19.66" y2="19.66" xlink:href="#linear-gradient"/>
    <linearGradient id="linear-gradient-10" y1="13.16" y2="13.16" xlink:href="#linear-gradient"/>
  </defs>
  <g id="Layer_1-2" data-name="Layer 1">
    <g>
      <polygon class="cls-10" points="89.43 27.08 86.11 26.99 76.6 26.83 57.5 26.66 35.27 26.65 27.23 26.75 20.42 26.83 4.11 27.19 2.55 27.31 20.7 27.28 46.43 27.23 73.55 27.3 93.87 27.31 92.31 27.16 89.43 27.08"/>
      <path class="cls-1" d="M68.27,21.97c3.98,1.01,9.12.15,10.79-3.93h-1.52c-.8,1.4-2.03,2.38-3.65,2.77-1.93.47-3.9.45-5.71-.23-2.79-1.04-4.35-3.79-3.89-6.7.61-3.86,4.31-5.66,8.06-5.37,2.08.16,4.12.99,5.13,2.84l1.53-.04c-.7-1.71-2.01-2.82-3.67-3.42-2.19-.77-4.53-.85-6.79-.24-3.21.88-5.91,3.44-6.08,6.82-.09,1.71.34,3.31,1.39,4.65,1.12,1.43,2.63,2.38,4.41,2.83Z"/>
      <path class="cls-4" d="M85.61,16.02l-2.07.18c-1.9.16-3.67,1.16-3.65,3.12,0,.84.38,1.56,1.07,2.1.96.75,2.13.88,3.32.88,1.66.01,3.2-.38,4.39-1.66l.07,1.44h1.42s-.06-7.81-.06-7.81c0-1.18-.86-2.07-1.88-2.47-1.62-.64-4.34-.64-5.87.16-1,.52-1.78,1.4-2,2.5l1.63.03c.25-.79.79-1.4,1.57-1.67,1.56-.55,4-.49,4.91.92.25.39.25.84.07,1.29-.34.83-1.86.92-2.92,1.01ZM88.63,18.42c-.01.86-.65,1.56-1.38,2.01-1.79,1.11-5.17,1.11-5.68-.68-.18-.64-.05-1.35.44-1.78.42-.37.98-.59,1.54-.65l3.48-.36,1.62-.36-.02,1.81Z"/>
      <path class="cls-3" d="M98.24,11.45l-1.57.08c-1.38.07-2.53.89-3.29,2.05l-.03-1.96h-1.3s0,10.47,0,10.47h1.31s.02-5.84.02-5.84c0-1.46.96-2.68,2.27-3.21.84-.34,1.68-.4,2.6-.37v-1.22Z"/>
      <path class="cls-5" d="M49.98,21.59c1.48.73,3.08.84,4.73.77,1.63-.07,3.15-.49,4.34-1.61.66-.57,1.09-1.29,1.33-2.16h-4.08c-.37,1.03-1.32,1.43-2.29,1.4-.9.04-1.72-.26-2.24-.99-.27-.5-.38-1.04-.38-1.63h8.91c.07-.99.02-1.95-.37-2.87-1.43-3.37-5.68-3.95-8.97-3.07-3.25.87-4.66,4.23-3.58,7.35.44,1.28,1.4,2.21,2.6,2.8ZM53.85,13.41c.64.04,1.25.14,1.76.53.4.41.63.91.59,1.6h-4.78c.05-1.33,1.11-2.2,2.43-2.13Z"/>
      <path class="cls-9" d="M30.42,15.68c-2.21.28-4.29.96-4.34,3.36-.03,1.42.73,2.59,2.14,3.09.93.33,1.91.31,2.87.25,1.18-.07,2.17-.5,3.08-1.4l.25,1.12h3.66c-.28-.54-.51-.94-.52-1.45l-.11-4.66c-.02-.73,0-1.42-.16-2.12-.27-1.21-1.17-2.09-2.38-2.42-1.84-.5-3.82-.51-5.64.02-1.57.45-2.61,1.63-2.97,3.22h3.77c.18-.5.49-.83.92-1.06,1.3-.34,3.01-.26,2.89.93-.07.77-2.24.98-3.46,1.13ZM34.04,16.82l-.02,1.51c-.02,1.46-2.09,2.18-3.47,1.57-.52-.23-.6-.88-.49-1.37.09-.45.48-.87,1.02-.98l1.87-.39,1.09-.33Z"/>
      <path class="cls-7" d="M39.75,18.51c0,1.91.78,3.48,2.71,3.7,1.19.14,2.36.06,3.56-.09v-2.26s-1.4,0-1.4,0c-.37,0-.76-.43-.76-.86v-5.64s2.17-.02,2.17-.02v-1.93s-2.19,0-2.19,0v-3.48s-4.09,0-4.09,0v3.48s-1.52,0-1.52,0v1.96s1.52-.03,1.52-.03v5.14Z"/>
      <path class="cls-6" d="M5.23,14.41H1.13s.18-.62.18-.62h3.73s.3-.51.3-.51l-2.42-.02c.28-.34.6-.37.93-.37h3.99c.11-.19.2-.39.25-.55l-4.09-.02c.25-.22.56-.35.91-.35l8.79.03c.56,0,1.11.43,1.55.7l2.06,1.27c2.13.32,4.2.56,6.34.76l1.56,1.72v-5.45s-18.39-.07-18.39-.07c.24-2.65,1.27-4.75,3.76-5.82,3.16-1.14,6.94-.69,8.67,2.34h6.3c-.33-1.75-1.26-3.21-2.59-4.4-1.43-1.21-3.09-2.09-4.96-2.53-2.69-.64-5.46-.66-8.18-.17-2.87.52-5.45,1.89-7.34,4.07C-.02,7.31-.49,11.38.44,15.02l5.64.02-.86-.64Z"/>
      <path class="cls-8" d="M15.67,23.09c1.93-.32,3.67-1.04,5.17-2.27l.89,1.89,3.5.03v-5.45s-1.5,1.4-1.5,1.4c0-1.62-1.1-2.67-2.64-2.7-1.56-.04-2.7,1.1-2.65,2.63h-2.52s-.02-.97-.02-.97h-5.42s.92.96.92.96h-4.04c-.08-.72-.27-1.41-.82-1.89-.95-.82-2.34-.98-3.47-.38-1.1.58-1.63,2.22-.72,3.19,3.33,3.59,8.65,4.34,13.34,3.57ZM19.73,17.97c.13-.71.86-1.1,1.6-1,.8.11,1.29.81,1.19,1.57-.11.77-.84,1.21-1.68,1.08-.85-.13-1.25-.83-1.1-1.65ZM6.06,18.55c-.14.79-.89,1.11-1.59,1.11-.83,0-1.47-.5-1.49-1.29-.02-.77.56-1.37,1.38-1.42.44-.03.89.08,1.2.33.37.29.6.72.5,1.27Z"/>
      <path class="cls-2" d="M12.84,12.45l-3.23-.02.59,1.46h5.97s-1.97-1.14-1.97-1.14c-.41-.23-.91-.29-1.35-.29Z"/>
    </g>
  </g>
</svg>